<?xml version="1.0" encoding="utf-8"?>
<!-- Generator: Adobe Illustrator 27.5.0, SVG Export Plug-In . SVG Version: 6.00 Build 0)  -->
<svg version="1.1" xmlns="http://www.w3.org/2000/svg" xmlns:xlink="http://www.w3.org/1999/xlink" x="0px" y="0px"
	 viewBox="0 0 500 500" style="enable-background:new 0 0 500 500;" xml:space="preserve">
<g id="BACKGROUND">
	<linearGradient id="SVGID_1_" gradientUnits="userSpaceOnUse" x1="250" y1="500" x2="250" y2="-9.094947e-13">
		<stop  offset="0" style="stop-color:#850D39"/>
		<stop  offset="0.1125" style="stop-color:#690B37"/>
		<stop  offset="0.2707" style="stop-color:#4A0934"/>
		<stop  offset="0.4351" style="stop-color:#310732"/>
		<stop  offset="0.6061" style="stop-color:#1F0630"/>
		<stop  offset="0.7882" style="stop-color:#14052F"/>
		<stop  offset="1" style="stop-color:#11052F"/>
	</linearGradient>
	<rect style="fill:url(#SVGID_1_);" width="500" height="500"/>
</g>
<g id="OBJECTS">
	<g>
		<defs>
			<rect id="SVGID_00000178891570387932334740000006658266352088504478_" width="500" height="500"/>
		</defs>
		<clipPath id="SVGID_00000170239618685188862770000008593887119988922262_">
			<use xlink:href="#SVGID_00000178891570387932334740000006658266352088504478_"  style="overflow:visible;"/>
		</clipPath>
	</g>
	<polygon style="fill:#FF75BF;" points="226.687,4.9 226.888,6.694 228.682,6.894 226.888,7.095 226.687,8.889 226.487,7.095 
		224.693,6.894 226.487,6.694 	"/>
	<g>
		<g>
			
				<ellipse transform="matrix(0.7071 -0.7071 0.7071 0.7071 -41.8325 224.4344)" style="opacity:0.1;fill:#FFFFFF;" cx="250" cy="162.713" rx="107.914" ry="107.914"/>
			
				<ellipse transform="matrix(0.7071 -0.7071 0.7071 0.7071 -41.8325 224.4343)" style="opacity:0.1;fill:#FFFFFF;" cx="250" cy="162.713" rx="80.615" ry="80.615"/>
			<circle style="opacity:0.1;fill:#FFFFFF;" cx="250" cy="162.713" r="62.539"/>
			
				<linearGradient id="SVGID_00000145771160962812902270000003465611334735770249_" gradientUnits="userSpaceOnUse" x1="199.8128" y1="162.7134" x2="300.1872" y2="162.7134">
				<stop  offset="0" style="stop-color:#FFF2D4"/>
				<stop  offset="1" style="stop-color:#FFF2D4"/>
			</linearGradient>
			<circle style="fill:url(#SVGID_00000145771160962812902270000003465611334735770249_);" cx="250" cy="162.713" r="50.187"/>
			<g>
				
					<ellipse transform="matrix(0.7071 -0.7071 0.7071 0.7071 -24.4373 210.8753)" style="fill:#FFE4BF;" cx="242.33" cy="134.936" rx="8.322" ry="8.322"/>
				
					<ellipse transform="matrix(0.987 -0.1609 0.1609 0.987 -26.5828 45.7049)" style="fill:#FFE4BF;" cx="268.917" cy="186.99" rx="14.32" ry="14.32"/>
				<path style="fill:#FFE4BF;" d="M298.245,165.691c-4.596,0-8.322,3.726-8.322,8.322c0,3.926,2.722,7.208,6.379,8.085
					c2.11-5.035,3.415-10.488,3.773-16.198C299.486,165.767,298.875,165.691,298.245,165.691z"/>
				<path style="fill:#FFE4BF;" d="M279.314,121.989c-5.686,4.075-9.395,10.734-9.395,18.264c0,12.405,10.056,22.461,22.461,22.461
					c2.732,0,5.35-0.489,7.772-1.383C299.713,145.129,291.603,130.85,279.314,121.989z"/>
				<path style="fill:#FFE4BF;" d="M235.813,169.852c0,2.298,1.863,4.161,4.161,4.161s4.161-1.863,4.161-4.161
					c0-2.298-1.863-4.161-4.161-4.161S235.813,167.554,235.813,169.852z"/>
				<path style="fill:#FFE4BF;" d="M272.289,117.974c-6.716-3.336-14.281-5.221-22.289-5.221c-5.239,0-10.289,0.805-15.037,2.294
					c3.83,6.897,11.185,11.567,19.634,11.567C261.786,126.614,268.18,123.231,272.289,117.974z"/>
				<path style="fill:#FFE4BF;" d="M245.808,212.713c1.519-3.495,2.366-7.349,2.366-11.402c0-15.818-12.823-28.641-28.641-28.641
					c-6.456,0-12.412,2.138-17.202,5.742C208.504,197.165,225.424,211.026,245.808,212.713z"/>
				
					<ellipse transform="matrix(0.9734 -0.2289 0.2289 0.9734 -30.4704 62.7701)" style="fill:#FFE4BF;" cx="255.306" cy="162.713" rx="8.322" ry="8.322"/>
				<path style="fill:#FFE4BF;" d="M222.526,151.353c2.298,0,4.161-1.863,4.161-4.161c0-2.298-1.863-4.161-4.161-4.161
					c-2.298,0-4.161,1.863-4.161,4.161C218.365,149.49,220.229,151.353,222.526,151.353z"/>
			</g>
			<path style="opacity:0.49;fill:#FFFFFF;" d="M250,113.908c-27.486,0-49.798,22.099-50.17,49.496
				c-0.003-0.231-0.018-0.459-0.018-0.691c0-27.718,22.47-50.187,50.187-50.187s50.187,22.47,50.187,50.187
				c0,0.232-0.014,0.46-0.018,0.691C299.798,136.007,277.486,113.908,250,113.908z"/>
		</g>
		<g>
			<polygon style="fill:#B2206E;" points="109.502,100.161 110.196,106.386 116.421,107.081 110.196,107.775 109.502,114.001 
				108.807,107.775 102.582,107.081 108.807,106.386 			"/>
			<polygon style="fill:#B2206E;" points="349.746,29.862 350.441,36.087 356.666,36.782 350.441,37.477 349.746,43.702 
				349.051,37.477 342.826,36.782 349.051,36.087 			"/>
			<polygon style="fill:#B2206E;" points="308.077,138.461 308.772,144.686 314.997,145.381 308.772,146.076 308.077,152.301 
				307.383,146.076 301.158,145.381 307.383,144.686 			"/>
			<polygon style="fill:#B2206E;" points="388.671,196.018 389.366,202.243 395.591,202.938 389.366,203.633 388.671,209.857 
				387.976,203.633 381.751,202.938 387.976,202.243 			"/>
			<polygon style="fill:#B2206E;" points="475.982,43.653 476.676,49.878 482.901,50.573 476.676,51.268 475.982,57.493 
				475.287,51.268 469.062,50.573 475.287,49.878 			"/>
			<polygon style="fill:#B2206E;" points="48.7,15.449 49.395,21.674 55.62,22.369 49.395,23.064 48.7,29.289 48.006,23.064 
				41.78,22.369 48.006,21.674 			"/>
			<polygon style="fill:#B2206E;" points="48.7,76.191 49.013,78.991 51.813,79.303 49.013,79.616 48.7,82.416 48.388,79.616 
				45.588,79.303 48.388,78.991 			"/>
			<polygon style="fill:#850D39;" points="38.668,166.199 39.363,172.424 45.588,173.119 39.363,173.814 38.668,180.039 
				37.973,173.814 31.748,173.119 37.973,172.424 			"/>
			<polygon style="fill:#850D39;" points="85.334,56.193 85.716,59.618 89.141,60 85.716,60.382 85.334,63.807 84.951,60.382 
				81.526,60 84.951,59.618 			"/>
			<polygon style="fill:#FF75BF;" points="77.719,130.979 78.101,134.404 81.526,134.787 78.101,135.169 77.719,138.594 
				77.337,135.169 73.911,134.787 77.337,134.404 			"/>
			<polygon style="fill:#FF75BF;" points="156.782,53.781 157.406,59.376 163,60 157.406,60.624 156.782,66.219 156.158,60.624 
				150.563,60 156.158,59.376 			"/>
			<polygon style="fill:#FF75BF;" points="276.255,16.15 276.88,21.745 282.474,22.369 276.88,22.993 276.255,28.588 
				275.631,22.993 270.037,22.369 275.631,21.745 			"/>
			<polygon style="fill:#FF75BF;" points="221.088,62.761 221.712,68.356 227.307,68.98 221.712,69.604 221.088,75.199 
				220.464,69.604 214.869,68.98 220.464,68.356 			"/>
			<polygon style="fill:#FF75BF;" points="70.104,91.913 70.487,95.338 73.911,95.721 70.487,96.103 70.104,99.528 69.722,96.103 
				66.297,95.721 69.722,95.338 			"/>
			<polygon style="fill:#FF75BF;" points="34.859,113.408 35.059,115.202 36.854,115.403 35.059,115.603 34.859,117.397 
				34.659,115.603 32.864,115.403 34.659,115.202 			"/>
			<polygon style="fill:#FF75BF;" points="77.719,170.046 77.919,171.84 79.714,172.04 77.919,172.24 77.719,174.035 77.519,172.24 
				75.724,172.04 77.519,171.84 			"/>
			<polygon style="fill:#FF75BF;" points="146.8,111.413 147,113.208 148.795,113.408 147,113.608 146.8,115.403 146.6,113.608 
				144.805,113.408 146.6,113.208 			"/>
			<polygon style="fill:#FF75BF;" points="113.309,50.391 113.509,52.185 115.304,52.385 113.509,52.586 113.309,54.38 
				113.109,52.586 111.314,52.385 113.109,52.185 			"/>
			<polygon style="fill:#FF75BF;" points="81.526,14.156 81.726,15.95 83.521,16.15 81.726,16.351 81.526,18.145 81.326,16.351 
				79.532,16.15 81.326,15.95 			"/>
			<polygon style="fill:#FF75BF;" points="66.297,36.782 66.497,38.576 68.291,38.777 66.497,38.977 66.297,40.771 66.097,38.977 
				64.302,38.777 66.097,38.576 			"/>
			<polygon style="fill:#FF75BF;" points="19.551,9.647 19.751,11.441 21.546,11.642 19.751,11.842 19.551,13.636 19.351,11.842 
				17.556,11.642 19.351,11.441 			"/>
			<polygon style="fill:#FF75BF;" points="21.546,46.583 21.746,48.378 23.54,48.578 21.746,48.778 21.546,50.573 21.345,48.778 
				19.551,48.578 21.345,48.378 			"/>
			<polygon style="fill:#FF75BF;" points="142.993,14.156 143.193,15.95 144.988,16.15 143.193,16.351 142.993,18.145 
				142.793,16.351 140.998,16.15 142.793,15.95 			"/>
			<polygon style="fill:#FF75BF;" points="168.136,32.793 168.336,34.587 170.131,34.787 168.336,34.988 168.136,36.782 
				167.936,34.988 166.141,34.787 167.936,34.587 			"/>
			<polygon style="fill:#FF75BF;" points="415.962,12.161 416.162,13.955 417.957,14.156 416.162,14.356 415.962,16.15 
				415.762,14.356 413.968,14.156 415.762,13.955 			"/>
			<polygon style="fill:#FF75BF;" points="303.152,16.15 303.352,17.945 305.147,18.145 303.352,18.345 303.152,20.14 
				302.952,18.345 301.158,18.145 302.952,17.945 			"/>
			<polygon style="fill:#FF75BF;" points="443.189,32.793 443.389,34.587 445.183,34.787 443.389,34.988 443.189,36.782 
				442.988,34.988 441.194,34.787 442.988,34.587 			"/>
			<polygon style="fill:#FF75BF;" points="482.901,13.455 483.102,15.249 484.896,15.449 483.102,15.649 482.901,17.444 
				482.701,15.649 480.907,15.449 482.701,15.249 			"/>
			<polygon style="fill:#FF75BF;" points="136.751,27.294 136.951,29.088 138.746,29.289 136.951,29.489 136.751,31.283 
				136.551,29.489 134.757,29.289 136.551,29.088 			"/>
			<polygon style="fill:#FF75BF;" points="419.951,34.787 420.152,36.582 421.946,36.782 420.152,36.982 419.951,38.777 
				419.751,36.982 417.957,36.782 419.751,36.582 			"/>
			<polygon style="fill:#FF75BF;" points="368.458,20.374 368.659,22.169 370.453,22.369 368.659,22.569 368.458,24.364 
				368.258,22.569 366.464,22.369 368.258,22.169 			"/>
			<polygon style="fill:#FF75BF;" points="308.077,46.583 308.278,48.378 310.072,48.578 308.278,48.778 308.077,50.573 
				307.877,48.778 306.083,48.578 307.877,48.378 			"/>
			<polygon style="fill:#FF75BF;" points="252.995,25.3 253.196,27.094 254.99,27.294 253.196,27.494 252.995,29.289 
				252.795,27.494 251.001,27.294 252.795,27.094 			"/>
			<polygon style="fill:#FF75BF;" points="212.832,42.316 212.971,43.563 214.218,43.702 212.971,43.841 212.832,45.088 
				212.693,43.841 211.446,43.702 212.693,43.563 			"/>
			<polygon style="fill:#FF75BF;" points="252.995,8.261 253.134,9.508 254.381,9.647 253.134,9.786 252.995,11.033 252.856,9.786 
				251.61,9.647 252.856,9.508 			"/>
			<polygon style="fill:#FF75BF;" points="383.137,11.473 383.276,12.72 384.523,12.859 383.276,12.998 383.137,14.245 
				382.998,12.998 381.751,12.859 382.998,12.72 			"/>
			<polygon style="fill:#FF75BF;" points="324.188,12.859 324.327,14.105 325.573,14.245 324.327,14.384 324.188,15.63 
				324.048,14.384 322.802,14.245 324.048,14.105 			"/>
			<polygon style="fill:#FF75BF;" points="375.918,45.198 376.057,46.444 377.303,46.583 376.057,46.723 375.918,47.969 
				375.779,46.723 374.532,46.583 375.779,46.444 			"/>
			<polygon style="fill:#FF75BF;" points="451.762,14.063 451.901,15.31 453.148,15.449 451.901,15.588 451.762,16.835 
				451.623,15.588 450.376,15.449 451.623,15.31 			"/>
			<polygon style="fill:#FF75BF;" points="113.309,12.251 113.448,13.497 114.695,13.636 113.448,13.776 113.309,15.022 
				113.17,13.776 111.923,13.636 113.17,13.497 			"/>
			<polygon style="fill:#FF75BF;" points="31.748,12.069 31.887,13.315 33.134,13.455 31.887,13.594 31.748,14.84 31.609,13.594 
				30.362,13.455 31.609,13.315 			"/>
			<polygon style="fill:#FF75BF;" points="123.129,72.81 123.268,74.057 124.515,74.196 123.268,74.335 123.129,75.582 
				122.99,74.335 121.743,74.196 122.99,74.057 			"/>
			<polygon style="fill:#FF75BF;" points="83.521,43.979 83.66,45.225 84.907,45.365 83.66,45.504 83.521,46.75 83.382,45.504 
				82.135,45.365 83.382,45.225 			"/>
			<polygon style="fill:#FF75BF;" points="231.014,23.914 231.153,25.16 232.4,25.3 231.153,25.439 231.014,26.685 230.875,25.439 
				229.628,25.3 230.875,25.16 			"/>
			<polygon style="fill:#FF75BF;" points="200.47,22.369 200.671,24.163 202.465,24.364 200.671,24.564 200.47,26.358 
				200.27,24.564 198.476,24.364 200.27,24.163 			"/>
			<polygon style="fill:#FF75BF;" points="308.077,194.023 308.278,195.818 310.072,196.018 308.278,196.218 308.077,198.012 
				307.877,196.218 306.083,196.018 307.877,195.818 			"/>
			<polygon style="fill:#FF75BF;" points="347.751,74.196 347.951,75.991 349.746,76.191 347.951,76.391 347.751,78.186 
				347.551,76.391 345.757,76.191 347.551,75.991 			"/>
			<polygon style="fill:#FF75BF;" points="453.757,132.792 453.957,134.587 455.751,134.787 453.957,134.987 453.757,136.781 
				453.556,134.987 451.762,134.787 453.556,134.587 			"/>
			<polygon style="fill:#FF75BF;" points="465.746,200.943 465.946,202.737 467.74,202.938 465.946,203.138 465.746,204.932 
				465.546,203.138 463.751,202.938 465.546,202.737 			"/>
			<polygon style="fill:#FF75BF;" points="238.996,207.863 239.196,209.657 240.99,209.857 239.196,210.058 238.996,211.852 
				238.796,210.058 237.001,209.857 238.796,209.657 			"/>
			<polygon style="fill:#FF75BF;" points="192.778,163.408 192.978,165.202 194.773,165.402 192.978,165.602 192.778,167.397 
				192.578,165.602 190.783,165.402 192.578,165.202 			"/>
			<polygon style="fill:#FF75BF;" points="343.762,170.046 343.962,171.84 345.757,172.04 343.962,172.24 343.762,174.035 
				343.562,172.24 341.767,172.04 343.562,171.84 			"/>
			<polygon style="fill:#FF75BF;" points="341.767,256 341.968,257.794 343.762,257.995 341.968,258.195 341.767,259.989 
				341.567,258.195 339.773,257.995 341.567,257.794 			"/>
			<polygon style="fill:#850D39;" points="146.8,86.847 147.182,90.272 150.607,90.655 147.182,91.037 146.8,94.462 146.418,91.037 
				142.993,90.655 146.418,90.272 			"/>
			<polygon style="fill:#850D39;" points="375.918,100.235 376.3,103.66 379.725,104.043 376.3,104.425 375.918,107.85 
				375.535,104.425 372.111,104.043 375.535,103.66 			"/>
			<polygon style="fill:#850D39;" points="333.174,122.776 333.556,126.201 336.981,126.583 333.556,126.966 333.174,130.391 
				332.791,126.966 329.366,126.583 332.791,126.201 			"/>
			<polygon style="fill:#850D39;" points="109.502,192.21 109.884,195.636 113.309,196.018 109.884,196.4 109.502,199.825 
				109.119,196.4 105.694,196.018 109.119,195.636 			"/>
			<polygon style="fill:#850D39;" points="184.067,48.578 184.45,52.003 187.875,52.385 184.45,52.768 184.067,56.193 
				183.685,52.768 180.26,52.385 183.685,52.003 			"/>
			<polygon style="fill:#850D39;" points="184.067,11.642 184.45,15.067 187.875,15.449 184.45,15.831 184.067,19.256 
				183.685,15.831 180.26,15.449 183.685,15.067 			"/>
			<polygon style="fill:#850D39;" points="109.502,25.482 109.884,28.906 113.309,29.289 109.884,29.671 109.502,33.096 
				109.119,29.671 105.694,29.289 109.119,28.906 			"/>
			<polygon style="fill:#850D39;" points="150.003,137.967 150.175,139.508 151.715,139.68 150.175,139.852 150.003,141.392 
				149.831,139.852 148.29,139.68 149.831,139.508 			"/>
			<polygon style="fill:#850D39;" points="277.968,223.288 278.14,224.828 279.68,225 278.14,225.172 277.968,226.712 
				277.796,225.172 276.255,225 277.796,224.828 			"/>
			<polygon style="fill:#850D39;" points="364.751,139.68 364.923,141.22 366.464,141.392 364.923,141.564 364.751,143.105 
				364.579,141.564 363.039,141.392 364.579,141.22 			"/>
			<polygon style="fill:#B2206E;" points="168.136,190.498 168.308,192.039 169.849,192.21 168.308,192.383 168.136,193.923 
				167.964,192.383 166.424,192.21 167.964,192.039 			"/>
			<polygon style="fill:#B2206E;" points="403.09,77.592 403.216,79.137 404.75,79.355 403.205,79.48 402.987,81.015 402.862,79.47 
				401.327,79.252 402.872,79.126 			"/>
			<polygon style="fill:#B2206E;" points="401.378,41.941 401.504,43.486 403.039,43.704 401.494,43.83 401.276,45.365 
				401.15,43.819 399.615,43.602 401.16,43.476 			"/>
			<polygon style="fill:#B2206E;" points="100.869,139.68 101.041,141.22 102.582,141.392 101.041,141.564 100.869,143.105 
				100.697,141.564 99.157,141.392 100.697,141.22 			"/>
			<polygon style="fill:#B2206E;" points="173.783,123.647 173.955,125.187 175.496,125.359 173.955,125.531 173.783,127.072 
				173.611,125.531 172.071,125.359 173.611,125.187 			"/>
		</g>
	</g>
	<g>
		<g>
			<path style="opacity:0.2;fill:#EFD2FF;" d="M298.051,308.056c-6.318,0-11.915,3.023-15.472,7.686
				c-5.699-3.269-12.297-5.147-19.337-5.147c-21.388,0-38.741,17.247-38.927,38.591c-4.988,2.162-9.183,5.803-12.038,10.37
				c-4.291-2.945-9.484-4.671-15.082-4.671c-14.741,0-26.691,11.95-26.691,26.691c0,1.351,0.102,2.678,0.296,3.975
				c-4.788-2.345-10.169-3.666-15.86-3.666c-7.109,0-13.732,2.063-19.32,5.61c-4.531-21.679-23.749-37.964-46.773-37.964
				c-21.823,0-40.217,14.634-45.937,34.62c-2.854-1.446-6.078-2.266-9.497-2.266c-11.625,0-21.049,9.424-21.049,21.049
				c0,11.625,9.424,21.049,21.049,21.049c4.939,0,9.478-1.706,13.068-4.554c7.98,15.26,23.951,25.681,42.365,25.681
				c12.712,0,24.255-4.973,32.817-13.067c5.48,12.966,18.316,22.065,33.277,22.065c19.944,0,36.111-16.167,36.111-36.111
				c0-3.798-0.59-7.457-1.677-10.896c2.474,0.757,5.099,1.167,7.821,1.167c9.552,0,17.927-5.021,22.644-12.565
				c4.291,2.945,9.484,4.671,15.082,4.671c9.457,0,17.76-4.923,22.501-12.342c1.899,0.285,3.842,0.435,5.821,0.435
				c21.503,0,38.935-17.432,38.935-38.935c0-0.996-0.05-1.979-0.123-2.956c8.831-1.846,15.465-9.673,15.465-19.052
				C317.519,316.772,308.803,308.056,298.051,308.056z M479.49,366.489c-0.678,0-1.339,0.07-1.978,0.202
				c-1.609-9.13-9.561-16.073-19.153-16.073c-10.752,0-19.468,8.716-19.468,19.468s8.716,19.468,19.468,19.468
				c5.691,0,10.795-2.457,14.355-6.35c1.753,1.702,4.14,2.754,6.776,2.754c5.376,0,9.734-4.358,9.734-9.734
				C489.223,370.847,484.865,366.489,479.49,366.489z M390,327.524c-10.752,0-19.468,8.716-19.468,19.468
				c0,10.752,8.716,19.468,19.468,19.468c10.752,0,19.468-8.716,19.468-19.468C409.468,336.24,400.752,327.524,390,327.524z"/>
			<g>
				<path style="opacity:0.2;fill:#EFD2FF;" d="M458.359,351.438c9.592,0,17.544,6.943,19.153,16.073
					c0.639-0.132,1.3-0.202,1.978-0.202c5.238,0,9.497,4.14,9.713,9.324c0.006-0.137,0.021-0.272,0.021-0.41
					c0-5.376-4.358-9.734-9.734-9.734c-0.678,0-1.339,0.07-1.978,0.202c-1.609-9.13-9.561-16.073-19.153-16.073
					c-10.752,0-19.468,8.716-19.468,19.468c0,0.138,0.018,0.272,0.021,0.41C439.132,359.935,447.745,351.438,458.359,351.438z"/>
				<path style="opacity:0.2;fill:#EFD2FF;" d="M189.374,407.921c1.056,3.34,1.631,6.891,1.664,10.572
					c0.002-0.166,0.012-0.33,0.012-0.496c0-3.477-0.516-6.829-1.433-10.011C189.537,407.962,189.454,407.945,189.374,407.921z"/>
				<path style="opacity:0.2;fill:#EFD2FF;" d="M33.413,382.706c3.418,0,6.643,0.82,9.496,2.266
					c5.72-19.986,24.113-34.62,45.937-34.62c23.025,0,42.242,16.285,46.773,37.964c5.588-3.547,12.212-5.61,19.32-5.61
					c5.691,0,11.072,1.321,15.861,3.666c-0.043-0.285-0.063-0.576-0.097-0.864c-4.764-2.316-10.11-3.622-15.764-3.622
					c-7.109,0-13.732,2.063-19.32,5.61c-4.531-21.679-23.749-37.964-46.773-37.964c-21.823,0-40.217,14.634-45.937,34.62
					c-2.854-1.446-6.079-2.266-9.496-2.266c-11.625,0-21.049,9.424-21.049,21.049c0,0.138,0.018,0.272,0.021,0.41
					C12.606,391.911,21.926,382.706,33.413,382.706z"/>
				<path style="opacity:0.2;fill:#EFD2FF;" d="M390,327.524c-10.752,0-19.468,8.716-19.468,19.468c0,0.138,0.018,0.272,0.021,0.41
					c0.22-10.56,8.834-19.058,19.447-19.058c10.613,0,19.227,8.497,19.447,19.058c0.003-0.138,0.021-0.272,0.021-0.41
					C409.468,336.24,400.752,327.524,390,327.524z"/>
				<path style="opacity:0.2;fill:#EFD2FF;" d="M298.051,308.056c-6.318,0-11.915,3.023-15.472,7.686
					c-5.699-3.269-12.297-5.147-19.337-5.147c-21.388,0-38.741,17.247-38.927,38.591c-4.988,2.162-9.183,5.803-12.038,10.37
					c-4.291-2.945-9.484-4.671-15.082-4.671c-14.741,0-26.691,11.95-26.691,26.691c0,0.111,0.011,0.219,0.012,0.33
					c0.262-14.514,12.102-26.201,26.679-26.201c5.598,0,10.79,1.726,15.082,4.671c2.855-4.567,7.05-8.207,12.038-10.37
					c0.186-21.344,17.539-38.591,38.927-38.591c7.04,0,13.638,1.878,19.337,5.147c3.557-4.663,9.155-7.686,15.472-7.686
					c10.623,0,19.243,8.512,19.449,19.086c0.003-0.147,0.019-0.29,0.019-0.438C317.519,316.772,308.803,308.056,298.051,308.056z"/>
				<path style="opacity:0.2;fill:#EFD2FF;" d="M302.055,347.396c0.063,0.835,0.101,1.677,0.113,2.525
					c0.001-0.131,0.01-0.259,0.01-0.39c0-0.722-0.032-1.436-0.074-2.148C302.087,347.387,302.071,347.392,302.055,347.396z"/>
			</g>
		</g>
		<g>
			<g>
				<polygon style="fill:#631E47;" points="421.953,323.787 445.957,378.621 374.922,365.955 				"/>
				<polygon style="fill:#FF623C;" points="421.953,323.787 468.499,372.702 440.412,365.955 				"/>
			</g>
			<g>
				<polygon style="fill:#631E47;" points="340.643,277.792 403.039,420.328 228.187,378.621 				"/>
				<polygon style="fill:#FF623C;" points="340.643,277.792 451.94,394.754 384.781,378.621 				"/>
			</g>
			<g>
				<polygon style="fill:#631E47;" points="244.823,336.273 270.314,394.505 145.785,429.316 				"/>
				<polygon style="fill:#FF623C;" points="244.823,336.273 309.101,403.823 270.314,394.505 				"/>
			</g>
		</g>
	</g>
	<g>
		<path style="fill:#1A0B23;" d="M0,348.245c0,0,71.048,73.354,210.439,59.676C190,439,134.757,438.5,134.757,438.5L0,418.493
			V348.245z"/>
		<path style="fill:#1A0B23;" d="M0,348.245c0,0,71.048,73.354,210.439,59.676C190,439,134.757,438.5,134.757,438.5L0,418.493
			V348.245z"/>
		<g>
			<path style="fill:#481E32;" d="M210.439,407.921C71.048,421.599,0,348.245,0,348.245v2.897
				C13.975,363.564,86.026,421.002,210.439,407.921z"/>
			<polygon style="fill:#481E32;" points="0,417.803 0,418.493 0.025,418.496 			"/>
		</g>
		<g>
			<g>
				<path style="fill:#1A0B23;" d="M23.611,292.759l0.882,3.213h0.185v-3.213l0.756,3.213h4.96v-3.975l2.15,3.975h0.364v-2.679
					l0.974,2.679h5.351v-5.575l1.836,5.575h8.226c-3.22-5.168-8.951-8.609-15.488-8.609s-12.268,3.441-15.488,8.609h5.293V292.759z"
					/>
				<path style="fill:#1A0B23;" d="M73.441,303.973l-2.176,2.523l-0.167-0.079l1.379-2.901l-2.062,2.577l-4.479-2.129l1.707-3.59
					l-3.649,2.667l-0.329-0.157l1.15-2.42l-2.03,2.001l-4.833-2.297l2.394-5.035l-4.052,4.247l-7.429-3.532
					c5.127-3.285,11.78-3.932,17.685-1.125c5.904,2.807,9.602,8.375,10.292,14.425l-4.78-2.273L73.441,303.973z"/>
				<path style="fill:#1A0B23;" d="M69.637,280.875l0.509,2.567l-0.159,0.095l-1.265-2.114l0.617,2.502l-4.255,2.547l-1.566-2.615
					l-0.279,3.72l-0.313,0.187l-1.055-1.763l0.219,2.263l-4.591,2.749l-2.196-3.668l0.621,4.611l-7.058,4.225
					c0.727-5.054,4.289-10.262,9.898-13.62c5.609-3.358,11.882-4.037,16.68-2.291l-4.541,2.719L69.637,280.875z"/>
				<path style="fill:#1A0B23;" d="M38.61,281.327l-0.875,1.593l0.085,0.096l1.281-1.135l-0.933,1.528l2.284,2.579l1.585-1.404
					l-0.595,2.522l0.168,0.19l1.069-0.946l-0.62,1.453l2.464,2.783l2.224-1.969l-1.378,2.924l3.788,4.278
					c0.578-3.5-0.689-7.696-3.7-11.096c-3.011-3.4-7.023-5.165-10.567-5.015l2.438,2.753L38.61,281.327z"/>
				<path style="fill:#1A0B23;" d="M56.516,271.208l1.96,1.733l-0.069,0.172l-2.288-0.914l2.007,1.616l-1.841,4.605l-2.83-1.131
					l2.032,3.128l-0.135,0.339l-1.908-0.762l1.546,1.667l-1.986,4.969l-3.97-1.587l3.289,3.291l-3.053,7.638
					c-2.485-4.461-2.808-10.762-0.382-16.832c2.426-6.07,7.004-10.413,11.879-11.932l-1.964,4.915L56.516,271.208z"/>
			</g>
			<path style="fill:#1A0B23;" d="M49.271,295.971c0,0-14.38,27.658-14.38,81.564l10.751,4.956
				C45.643,382.491,38.076,335.53,49.271,295.971z"/>
		</g>
		<g>
			<g>
				<path style="fill:#1A0B23;" d="M473.632,323.822l-0.471,1.717h-0.099v-1.717l-0.404,1.717h-2.651v-2.124l-1.149,2.124h-0.195
					v-1.432l-0.521,1.432h-2.86v-2.979l-0.981,2.979h-4.396c1.721-2.762,4.784-4.601,8.277-4.601c3.494,0,6.557,1.839,8.277,4.601
					h-2.829V323.822z"/>
				<path style="fill:#1A0B23;" d="M447.001,329.815l1.163,1.348l0.089-0.043l-0.737-1.551l1.102,1.377l2.394-1.138l-0.912-1.918
					l1.95,1.425l0.176-0.084l-0.615-1.293l1.085,1.07l2.583-1.228l-1.279-2.691l2.165,2.27l3.97-1.888
					c-2.74-1.755-6.296-2.102-9.451-0.601c-3.155,1.5-5.132,4.476-5.5,7.709l2.555-1.215L447.001,329.815z"/>
				<path style="fill:#1A0B23;" d="M449.034,317.471l-0.272,1.372l0.085,0.051l0.676-1.13l-0.33,1.337l2.274,1.361l0.837-1.398
					l0.149,1.988l0.167,0.1l0.564-0.942l-0.117,1.21l2.454,1.469l1.173-1.96l-0.332,2.464l3.772,2.258
					c-0.389-2.701-2.292-5.484-5.29-7.279c-2.998-1.794-6.35-2.158-8.914-1.224l2.427,1.453L449.034,317.471z"/>
				<path style="fill:#1A0B23;" d="M465.616,317.713l0.468,0.852l-0.046,0.051l-0.685-0.606l0.499,0.817l-1.221,1.379l-0.847-0.75
					l0.318,1.348l-0.09,0.101l-0.571-0.506l0.331,0.776l-1.317,1.487l-1.188-1.052l0.737,1.563l-2.025,2.286
					c-0.309-1.87,0.368-4.113,1.977-5.93c1.609-1.817,3.753-2.761,5.647-2.68l-1.303,1.471L465.616,317.713z"/>
				<path style="fill:#1A0B23;" d="M456.047,312.305l-1.048,0.926l0.037,0.092l1.223-0.489l-1.073,0.864l0.984,2.461l1.513-0.604
					l-1.086,1.672l0.072,0.181l1.02-0.408l-0.826,0.891l1.061,2.655l2.122-0.848l-1.758,1.759l1.632,4.082
					c1.328-2.384,1.501-5.751,0.204-8.996c-1.297-3.244-3.743-5.565-6.348-6.377l1.05,2.627L456.047,312.305z"/>
			</g>
			<path style="fill:#1A0B23;" d="M459.918,325.539c0,0,7.685,14.781,7.685,43.591l-5.417,0.918
				C462.186,370.048,465.901,346.681,459.918,325.539z"/>
		</g>
		<g>
			<g>
				<path style="fill:#1A0B23;" d="M472.603,338.981l0.329,1.198h0.069v-1.198l0.282,1.198h1.85v-1.483l0.802,1.483h0.136v-0.999
					l0.363,0.999h1.996v-2.08l0.685,2.08h3.068c-1.201-1.928-3.339-3.211-5.777-3.211c-2.439,0-4.576,1.284-5.777,3.211h1.974
					V338.981z"/>
				<path style="fill:#1A0B23;" d="M491.191,343.164l-0.812,0.941l-0.062-0.03l0.514-1.082l-0.769,0.961l-1.671-0.794l0.637-1.339
					l-1.361,0.995l-0.123-0.058l0.429-0.903l-0.757,0.747l-1.803-0.857l0.893-1.878l-1.511,1.584l-2.771-1.317
					c1.912-1.225,4.394-1.467,6.596-0.42s3.582,3.124,3.839,5.381l-1.783-0.848L491.191,343.164z"/>
				<path style="fill:#1A0B23;" d="M489.772,334.548l0.19,0.958l-0.059,0.035l-0.472-0.788l0.23,0.933l-1.587,0.95l-0.584-0.975
					l-0.104,1.387l-0.117,0.07l-0.394-0.658l0.082,0.844l-1.713,1.025l-0.819-1.368l0.232,1.72l-2.633,1.576
					c0.271-1.885,1.6-3.828,3.692-5.081c2.092-1.253,4.432-1.506,6.222-0.855l-1.694,1.014L489.772,334.548z"/>
				<path style="fill:#1A0B23;" d="M478.198,334.717l-0.326,0.594l0.032,0.036l0.478-0.423l-0.348,0.57l0.852,0.962l0.591-0.524
					l-0.222,0.941l0.063,0.071l0.399-0.353l-0.231,0.542l0.919,1.038l0.829-0.734l-0.514,1.091l1.413,1.596
					c0.216-1.306-0.257-2.871-1.38-4.139c-1.123-1.268-2.62-1.927-3.942-1.871l0.909,1.027L478.198,334.717z"/>
				<path style="fill:#1A0B23;" d="M484.877,330.942l0.731,0.646l-0.026,0.064l-0.853-0.341l0.749,0.603l-0.687,1.718l-1.056-0.422
					l0.758,1.167l-0.051,0.126l-0.712-0.284l0.577,0.622l-0.741,1.853l-1.481-0.592l1.227,1.228l-1.139,2.849
					c-0.927-1.664-1.048-4.014-0.143-6.279c0.905-2.264,2.612-3.884,4.431-4.451l-0.733,1.833L484.877,330.942z"/>
			</g>
			<path style="fill:#1A0B23;" d="M482.175,340.179c0,0-5.364,10.317-5.364,30.424l3.781,0.641
				C480.592,371.245,477.999,354.935,482.175,340.179z"/>
		</g>
		<g>
			<g>
				<path style="fill:#1A0B23;" d="M78.949,343.187l-0.552,2.01h-0.116v-2.01l-0.473,2.01h-3.103v-2.487l-1.345,2.487h-0.228v-1.676
					l-0.61,1.676h-3.348v-3.488l-1.148,3.488h-5.147c2.015-3.233,5.601-5.387,9.691-5.387s7.676,2.153,9.691,5.387h-3.312V343.187z"
					/>
				<path style="fill:#1A0B23;" d="M47.771,350.204l1.361,1.579l0.104-0.05l-0.863-1.815l1.29,1.612l2.803-1.332l-1.068-2.246
					l2.283,1.668l0.206-0.098l-0.72-1.514l1.27,1.252l3.024-1.438l-1.498-3.15l2.535,2.657l4.648-2.21
					c-3.208-2.055-7.371-2.46-11.065-0.704c-3.694,1.756-6.008,5.241-6.439,9.026l2.991-1.422L47.771,350.204z"/>
				<path style="fill:#1A0B23;" d="M50.151,335.752l-0.318,1.606l0.099,0.06l0.792-1.323l-0.386,1.565L53,339.254l0.98-1.636
					l0.175,2.327l0.196,0.117l0.66-1.103l-0.137,1.416l2.873,1.72l1.374-2.295l-0.389,2.885l4.416,2.644
					c-0.455-3.162-2.683-6.421-6.193-8.522c-3.51-2.101-7.434-2.526-10.437-1.434l2.841,1.701L50.151,335.752z"/>
				<path style="fill:#1A0B23;" d="M69.564,336.035l0.548,0.997l-0.053,0.06l-0.802-0.71l0.584,0.956l-1.429,1.614l-0.992-0.878
					l0.372,1.578l-0.105,0.119l-0.669-0.592l0.388,0.909l-1.542,1.741l-1.391-1.232l0.862,1.829l-2.37,2.677
					c-0.362-2.19,0.431-4.815,2.315-6.943c1.884-2.127,4.394-3.232,6.612-3.138l-1.525,1.722L69.564,336.035z"/>
				<path style="fill:#1A0B23;" d="M58.361,329.703l-1.227,1.084l0.043,0.107l1.431-0.572l-1.256,1.011l1.152,2.882l1.771-0.708
					l-1.272,1.957l0.085,0.212l1.194-0.477l-0.967,1.043l1.243,3.109l2.484-0.993l-2.058,2.059l1.91,4.779
					c1.555-2.791,1.757-6.734,0.239-10.532c-1.518-3.798-4.382-6.515-7.432-7.466l1.229,3.075L58.361,329.703z"/>
			</g>
			<path style="fill:#1A0B23;" d="M62.893,345.197c0,0,8.998,17.305,8.998,51.034l-6.342,1.075
				C65.549,397.306,69.898,369.949,62.893,345.197z"/>
		</g>
		<g>
			<g>
				<path style="fill:#1A0B23;" d="M11.052,331.211l0.409,1.488h0.086v-1.488l0.35,1.488h2.298v-1.842l0.996,1.842h0.169v-1.241
					l0.451,1.241h2.479v-2.583l0.851,2.583h3.811c-1.492-2.394-4.147-3.989-7.176-3.989c-3.029,0-5.684,1.594-7.176,3.989h2.452
					V331.211z"/>
				<path style="fill:#1A0B23;" d="M34.139,336.406l-1.008,1.169l-0.077-0.037l0.639-1.344l-0.955,1.194l-2.075-0.987l0.791-1.663
					l-1.691,1.235l-0.153-0.072l0.533-1.121l-0.941,0.927l-2.239-1.064l1.109-2.333l-1.877,1.968l-3.442-1.636
					c2.375-1.522,5.458-1.822,8.194-0.521c2.736,1.301,4.449,3.881,4.768,6.684l-2.215-1.053L34.139,336.406z"/>
				<path style="fill:#1A0B23;" d="M32.377,325.705l0.236,1.189l-0.074,0.044l-0.586-0.979l0.286,1.159l-1.972,1.18l-0.725-1.212
					l-0.129,1.723l-0.145,0.087l-0.489-0.817l0.102,1.049l-2.127,1.273l-1.017-1.699l0.288,2.136l-3.27,1.958
					c0.337-2.342,1.987-4.755,4.586-6.31c2.599-1.556,5.505-1.871,7.728-1.062l-2.104,1.26L32.377,325.705z"/>
				<path style="fill:#1A0B23;" d="M18.001,325.914l-0.406,0.738l0.039,0.045l0.594-0.526l-0.432,0.708l1.058,1.195l0.734-0.65
					l-0.276,1.169l0.078,0.088l0.495-0.439l-0.287,0.673l1.142,1.29l1.03-0.912l-0.639,1.355l1.755,1.982
					c0.268-1.622-0.319-3.566-1.714-5.141c-1.395-1.575-3.254-2.393-4.896-2.323l1.13,1.275L18.001,325.914z"/>
				<path style="fill:#1A0B23;" d="M26.297,321.225l0.908,0.803l-0.032,0.08l-1.06-0.424l0.93,0.749l-0.853,2.134l-1.311-0.524
					l0.942,1.449l-0.063,0.157l-0.884-0.353l0.716,0.772l-0.92,2.302l-1.839-0.735l1.524,1.525l-1.414,3.539
					c-1.151-2.067-1.301-4.986-0.177-7.799c1.124-2.813,3.245-4.824,5.504-5.528l-0.91,2.277L26.297,321.225z"/>
			</g>
			<path style="fill:#1A0B23;" d="M22.941,332.699c0,0-6.663,12.814-6.663,37.79l4.696,0.796
				C20.974,371.285,17.754,351.027,22.941,332.699z"/>
		</g>
		<path style="fill:#360E3C;" d="M500,374.584c0,0-44.491-17.177-136.961-2.1C270.569,387.561,142.085,451.747,0,387.009V500l500-54
			V374.584z"/>
		<path style="fill:#360E3C;" d="M500,374.584c0,0-44.491-17.177-136.961-2.1C270.569,387.561,142.085,451.747,0,387.009V500l500-54
			V374.584z"/>
		<g>
			<path style="fill:#5E0E4D;" d="M363.032,372.97C455.448,357.565,500,374.584,500,374.584s-44.491-17.177-136.961-2.1
				C270.568,387.561,142.085,451.747,0,387.009v1.659C141.602,451.542,271.011,388.31,363.032,372.97z"/>
			<polygon style="fill:#5E0E4D;" points="0,479.276 0,500 0.412,499.956 			"/>
		</g>
		<g>
			<path style="fill:#0F0B1F;" d="M500,393.701c0,0-44.491-17.177-136.961-2.1C270.569,406.678,142.085,505.788,0,441.05v58.991h500
				V393.701z"/>
			<g>
				<path style="fill:#0F0B1F;" d="M347.092,343.066c0,0-0.308-0.384,0.235-1.396l1.933,0.417l1.59-0.218l2.1,0.395l5.606-0.768
					c0,0,2.161,0.216,2.797,1.748c0,0,1.343,1.095,0.309,2.259c0,0,0.476,0.361-0.125,0.955l-3.096,0.424
					c0,0-3.92,2.497-4.848,3.818c0,0-1.292,2.393-4.768,10.626c-3.476,8.233-6.179,10.905-14.041,11.384l-1.331,2.105l-0.201-1.471
					l-0.886,1.62l-0.121-0.884l-2.706,2.653c0,0-1.433,10.7-1.387,11.035s0.576,3.586-0.125,7.177s1.117,11.27,1.627,11.882
					s1.378,1.346,1.378,1.346s-0.977,1.583-4.031,1.063c0,0,0.147-2.663-0.059-4.169c-0.206-1.506-0.495-7.348-1.024-8.725
					c-0.53-1.377-0.611-3.838-0.673-5.534c-0.062-1.696-0.334-6.177-0.334-6.177s-0.189,1.731-0.229,4.549
					c-0.04,2.819,0.615,5.116,0.122,7.74c-0.493,2.625,0.053,7.238,0.191,8.242c0.138,1.004,1.041,3.864,1.041,3.864
					s-0.65,0.856-3.647,0.755c0,0,0.041-0.943,0.318-3.283c0.276-2.339,0.005-6.185-0.298-7.782
					c-0.304-1.597-0.618-5.134-0.46-7.713c0.158-2.579-1.573-10.869-1.573-10.869s-3.678-0.528-8.528,0.405
					c-5.767,1.109-7.84,2.696-9.142,3.767c-1.302,1.072-1.636,2.993-2.001,4.065c-0.365,1.073-0.593,7.497-0.593,7.497
					s0.908,2.897,1.964,5.632c1.056,2.734,4.4,9.096,4.4,9.096s-2.753,1.059-4.222,0.919c-1.468-0.14-0.905-0.388-0.956-2
					c-0.05-1.613,0.691-1.799-0.31-4.134c-1.002-2.335-4.029-7.632-4.356-8.78c-0.328-1.148,0.209-0.966,0.36-2.351
					c0.151-1.385-0.132-8.434-0.132-8.434s-1.96,2.495-2.23,4.877c-0.27,2.383-0.671,7.552-0.671,7.552s-0.181,2.412-0.104,3.595
					s1.434,6.112,1.906,7.07c0.472,0.958,1.831,3.415,1.831,3.415s-2.913,1.763-4.051,0.299c0,0,0.326-2.602-0.2-4.576
					c-0.526-1.974-1.493-10.28-2.011-11.573c-0.518-1.293,0.014-2.389,0.062-4.526c0.048-2.138,0.411-7.583,0.236-10.103
					c-0.175-2.521-1.802-5.691-0.588-9.275c0,0,1.414-7.106,6.699-10.217c0,0-0.493-3.598,1.267-6.311l-0.792-1.426l-1.232,0.339
					l1.802-1.781l1.602,1.741l-2.129-5.59c0,0-0.65,0.856-0.712-0.84c-0.062-1.696,0.489-3.903,0.214-5.911
					c-0.275-2.008,1.029-1.202,1.029-1.202s0.635-2.831,2.854-2.809c0,0,0.207-0.981,1.494-1.541l-1.049-1.433l-0.951-0.722
					l0.14-1.468l0.947-0.556l-0.065-1.099l1.296-1.115l4.024,0.131l0.996-0.818l1.123,1.977l1.503,0.391
					c0,0-0.056,1.457-1.418,1.473l0.139,1.423l-0.538,0.643l0.57,1.46c0,0,0.007,0.255-0.577,0.364l0.129,0.523l-0.301,0.297
					l0.193,0.372l-0.272,0.094l-0.011,0.543l-0.281,0.238c0,0,0.602,1.484,0.791,1.828c0.19,0.344,0.455,2.073,0.455,2.073
					s1.07-0.09,1.727,0.134c0.657,0.223,1.103,0.362,1.103,0.362l2.018-1.273c0,0,1.001,0.034,1.146-0.157
					c0.145-0.191,0.151-0.562,0.37-0.421c0.219,0.141,0.679,0.59,0.679,0.59s0.266-0.549,0.502-0.496s0.459,0.649,0.242,0.935
					c-0.217,0.286-1.533,1.491-1.533,1.491l0.448,0.565c0,0,2.097,2.418,2.278,2.706c0.182,0.288,2.571,3.179,2.585,3.49
					c0.014,0.311-0.495,1.378-0.495,1.378s10.803,6.522,14.799,6.801c3.996,0.279,6.513-0.892,7.838-5.145
					c1.326-4.253,1.174-7.845,2.51-10.367l-0.464-1.104l0.953,0.097L347.092,343.066z"/>
				<path style="fill:#0F0B1F;" d="M281.798,361.054c0.837-1.313-0.663-2.182-0.663-2.182c-0.87-1.413-3.038-1.284-3.038-1.284
					l-5.414,1.645l-2.136-0.057l-1.535,0.466l-1.974-0.106c-0.376,1.085-0.011,1.416-0.011,1.416l-0.381,0.225l-0.956,0.055
					l0.633,1.017c-0.92,2.701-0.203,6.224-0.838,10.634c-0.636,4.41-2.935,5.963-6.925,6.32c-3.99,0.357-15.688-4.374-15.688-4.374
					l-3.121-2.209l1.271-1.348c-0.495-0.455-0.904-0.828-0.984-0.919c0,0-2.378,0.944-2.494,2.289
					c-0.116,1.345,1.514,4.621-0.507,5.118c-2.021,0.497-3.484,1.712-5.411,2.794c-1.927,1.082-5.173,0.829-5.173,0.829
					l-3.671-1.339l-1.858-1.466l-1.497,2.044l1.163-0.53l1.008,1.283c-1.308,2.957-0.253,6.432-0.253,6.432
					c-4.727,3.907-4.998,11.148-4.998,11.148c-0.632,3.731,1.477,6.604,2.048,9.066c0.571,2.461,1.075,7.895,1.365,10.014
					c0.29,2.118-0.061,3.285,0.655,4.479c0.716,1.195,2.985,9.244,3.816,11.109c0.832,1.866,0.922,4.486,0.922,4.486
					c1.355,1.265,3.952-0.936,3.952-0.936s-1.731-2.21-2.348-3.082c-0.618-0.871-2.737-5.523-3-6.679
					c-0.263-1.156-0.465-3.566-0.465-3.566s-0.422-5.168-0.532-7.563c-0.11-2.395,1.431-5.169,1.431-5.169s1.395,6.915,1.465,8.306
					c0.069,1.391-0.489,1.296,0.016,2.378c0.505,1.082,4.332,5.833,5.69,7.98c1.358,2.147,0.656,2.449,0.96,4.033
					c0.305,1.584-0.212,1.918,1.26,1.824c1.472-0.094,4.023-1.575,4.023-1.575s-4.307-5.753-5.783-8.286
					c-1.476-2.533-2.831-5.25-2.831-5.25s-0.791-6.38-0.6-7.497c0.19-1.117,0.216-3.067,1.332-4.331
					c1.117-1.264,2.913-3.159,8.431-5.166c4.641-1.688,8.357-1.749,8.357-1.749s3.021,7.912,3.273,10.484s1.121,6.014,1.674,7.544
					c0.553,1.529,1.429,5.283,1.526,7.637c0.097,2.354,0.206,3.292,0.206,3.292c2.975-0.374,3.482-1.323,3.482-1.323
					s-1.344-2.681-1.639-3.651c-0.295-0.97-1.564-5.439-1.492-8.108c0.072-2.67-0.939-4.834-1.345-7.624s-0.493-4.528-0.493-4.528
					s0.978,4.381,1.307,6.046c0.329,1.665,0.799,4.082,1.539,5.358c0.741,1.275,1.95,6.999,2.392,8.453
					c0.442,1.454,0.718,4.107,0.718,4.107c3.098,0.03,3.812-1.688,3.812-1.688s-0.973-0.587-1.573-1.111
					c-0.6-0.524-3.611-7.818-3.486-11.475c0.125-3.657-0.913-6.784-1.012-7.107s-0.376-11.115-0.376-11.115l2.252-3.047l0.259,0.853
					l0.619-1.74l0.432,1.421l0.982-2.289c7.687-1.717,9.933-4.783,12.063-13.462c2.129-8.679,3.027-11.247,3.027-11.247
					c0.707-1.45,4.183-4.536,4.183-4.536l2.99-0.908C282.325,361.335,281.798,361.054,281.798,361.054z"/>
				<path style="fill:#0F0B1F;" d="M205.606,388.215c0.921-1.256-0.518-2.221-0.518-2.221c-0.776-1.467-2.947-1.481-2.947-1.481
					l-5.51,1.286l-2.127-0.198l-1.563,0.365l-1.963-0.236c-0.447,1.058-0.104,1.412-0.104,1.412l-0.395,0.2l-0.958-0.008
					l0.565,1.056c-1.096,2.635-0.611,6.197-1.535,10.555c-0.924,4.358-3.321,5.758-7.326,5.852
					c-4.005,0.094-15.367-5.395-15.367-5.395l-2.969-2.409l1.356-1.262c-0.464-0.486-0.848-0.885-0.921-0.981
					c0,0-2.435,0.785-2.639,2.12c-0.204,1.335,1.207,4.711-0.842,5.074c-2.049,0.363-3.589,1.479-5.583,2.433
					c-1.994,0.954-5.217,0.487-5.217,0.487l-3.576-1.577l-1.757-1.585l-1.628,1.941l1.195-0.452l0.921,1.346
					c-1.5,2.865-0.675,6.401-0.675,6.401c-4.973,3.589-5.72,10.796-5.72,10.796c-0.876,3.681,1.04,6.687,1.448,9.18
					c0.408,2.494,0.554,7.949,0.704,10.082c0.151,2.133-0.277,3.273,0.359,4.513c0.636,1.239,2.371,9.42,3.078,11.336
					c0.707,1.916,0.625,4.537,0.625,4.537c1.269,1.352,4.005-0.674,4.005-0.674s-1.582-2.319-2.141-3.23
					c-0.559-0.91-2.368-5.691-2.555-6.862c-0.186-1.171-0.23-3.589-0.23-3.589s-0.082-5.184-0.034-7.582
					c0.048-2.397,1.767-5.063,1.767-5.063s0.938,6.992,0.916,8.385c-0.022,1.393-0.573,1.261-0.14,2.374
					c0.433,1.113,3.939,6.105,5.154,8.337c1.214,2.232,0.493,2.486,0.693,4.088c0.2,1.601-0.337,1.9,1.138,1.903
					c1.475,0.003,4.118-1.307,4.118-1.307s-3.92-6.023-5.226-8.648c-1.306-2.624-2.48-5.425-2.48-5.425s-0.37-6.418-0.107-7.52
					c0.263-1.102,0.417-3.046,1.614-4.234c1.197-1.188,3.114-2.961,8.752-4.601c4.742-1.38,8.454-1.196,8.454-1.196
					s2.495,8.094,2.577,10.676c0.082,2.582,0.724,6.075,1.175,7.637c0.451,1.562,1.078,5.366,1.021,7.721
					c-0.058,2.355-0.011,3.298-0.011,3.298c2.994-0.178,3.561-1.091,3.561-1.091s-1.165-2.764-1.395-3.75
					c-0.23-0.987-1.203-5.53-0.956-8.189c0.247-2.659-0.62-4.885-0.842-7.695c-0.222-2.81-0.194-4.551-0.194-4.551
					s4.836,3.172,5.055,4.855c0.219,1.683,0.529,4.126,1.184,5.447c0.655,1.321,1.486,7.112,1.831,8.592s0.447,4.145,0.447,4.145
					c3.09,0.233,3.915-1.434,3.915-1.434s-0.932-0.65-1.497-1.212c-0.565-0.562-3.089-8.038-2.725-11.679
					c0.365-3.641-0.466-6.829-0.543-7.158c-0.077-0.329-3.793-9.853-3.793-9.853l2.447-2.893l0.203,0.868l0.732-1.695l0.337,1.446
					l1.13-2.22c7.783-1.209,10.226-4.12,12.921-12.641s3.759-11.023,3.759-11.023c0.801-1.401,4.471-4.252,4.471-4.252l3.043-0.71
					C206.113,388.531,205.606,388.215,205.606,388.215z"/>
			</g>
		</g>
	</g>
</g>
<g id="DESIGNED_BY_FREEPIK">
	<g>
		<g>
			<path style="fill:#FFFFFF;" d="M179.442,482.762v-0.16c-0.219,0.25-0.434,0.453-0.647,0.609
				c-0.212,0.158-0.442,0.277-0.691,0.357c-0.249,0.084-0.519,0.123-0.813,0.123c-0.39,0-0.751-0.082-1.082-0.246
				c-0.332-0.166-0.618-0.402-0.861-0.707c-0.243-0.307-0.426-0.664-0.551-1.078c-0.125-0.414-0.188-0.861-0.188-1.34
				c0-1.018,0.249-1.811,0.745-2.379c0.497-0.568,1.15-0.852,1.961-0.852c0.468,0,0.864,0.08,1.185,0.24
				c0.322,0.162,0.636,0.41,0.942,0.742v-2.4c0-0.334,0.066-0.586,0.2-0.758c0.132-0.17,0.322-0.256,0.568-0.256
				c0.246,0,0.436,0.078,0.569,0.236c0.133,0.156,0.2,0.387,0.2,0.693v7.174c0,0.311-0.071,0.543-0.214,0.697
				c-0.143,0.154-0.328,0.232-0.555,0.232c-0.222,0-0.405-0.08-0.551-0.24C179.514,483.289,179.442,483.06,179.442,482.762z
				 M176.242,480.373c0,0.442,0.068,0.817,0.205,1.125c0.137,0.311,0.325,0.545,0.563,0.701c0.238,0.156,0.499,0.236,0.781,0.236
				c0.285,0,0.546-0.076,0.784-0.225c0.236-0.148,0.424-0.377,0.565-0.686c0.142-0.307,0.212-0.693,0.212-1.152
				c0-0.433-0.07-0.807-0.212-1.119c-0.141-0.311-0.331-0.549-0.572-0.715c-0.241-0.164-0.503-0.246-0.79-0.246
				c-0.298,0-0.564,0.084-0.798,0.254c-0.235,0.168-0.416,0.41-0.545,0.727C176.306,479.59,176.242,479.955,176.242,480.373z"/>
			<path style="fill:#FFFFFF;" d="M186.615,480.785h-3.181c0.004,0.367,0.078,0.693,0.224,0.977
				c0.145,0.281,0.337,0.494,0.578,0.637c0.241,0.145,0.505,0.215,0.796,0.215c0.194,0,0.372-0.023,0.533-0.068
				c0.161-0.047,0.317-0.117,0.468-0.215c0.151-0.098,0.29-0.201,0.417-0.313c0.128-0.111,0.292-0.264,0.495-0.453
				c0.084-0.072,0.202-0.108,0.358-0.108c0.166,0,0.301,0.047,0.404,0.137c0.103,0.092,0.156,0.221,0.156,0.389
				c0,0.147-0.059,0.316-0.173,0.514c-0.117,0.197-0.29,0.387-0.522,0.566c-0.233,0.182-0.524,0.33-0.876,0.449
				c-0.351,0.121-0.755,0.18-1.212,0.18c-1.044,0-1.857-0.299-2.436-0.895c-0.58-0.596-0.87-1.404-0.87-2.424
				c0-0.48,0.071-0.928,0.215-1.338c0.143-0.412,0.352-0.764,0.625-1.059c0.275-0.293,0.612-0.518,1.014-0.676
				c0.401-0.156,0.847-0.234,1.335-0.234c0.635,0,1.181,0.133,1.635,0.402c0.455,0.267,0.796,0.613,1.022,1.039
				c0.226,0.424,0.34,0.857,0.34,1.299c0,0.408-0.117,0.674-0.351,0.795S187.04,480.785,186.615,480.785z M183.434,479.861h2.95
				c-0.039-0.557-0.19-0.975-0.45-1.25c-0.26-0.275-0.602-0.414-1.027-0.414c-0.406,0-0.739,0.141-0.999,0.42
				C183.647,478.897,183.489,479.313,183.434,479.861z"/>
			<path style="fill:#FFFFFF;" d="M194.027,481.565c0,0.449-0.108,0.834-0.327,1.152c-0.218,0.32-0.542,0.563-0.969,0.729
				c-0.427,0.164-0.946,0.246-1.558,0.246c-0.584,0-1.084-0.09-1.502-0.268c-0.417-0.18-0.725-0.402-0.923-0.67
				c-0.198-0.27-0.297-0.537-0.297-0.809c0-0.18,0.063-0.332,0.19-0.459c0.127-0.127,0.288-0.189,0.483-0.189
				c0.17,0,0.301,0.041,0.393,0.125c0.092,0.082,0.179,0.201,0.262,0.352c0.167,0.291,0.366,0.506,0.599,0.648
				c0.232,0.143,0.549,0.215,0.951,0.215c0.326,0,0.593-0.072,0.802-0.217c0.208-0.146,0.312-0.313,0.312-0.498
				c0-0.287-0.107-0.494-0.325-0.625c-0.217-0.131-0.573-0.258-1.069-0.377c-0.56-0.139-1.016-0.285-1.368-0.438
				c-0.352-0.152-0.633-0.353-0.843-0.603c-0.211-0.252-0.316-0.559-0.316-0.924c0-0.326,0.097-0.635,0.292-0.924
				c0.195-0.289,0.482-0.522,0.862-0.695c0.378-0.172,0.836-0.26,1.373-0.26c0.421,0,0.799,0.045,1.134,0.133
				c0.336,0.086,0.617,0.205,0.841,0.351c0.224,0.147,0.395,0.309,0.512,0.488c0.117,0.178,0.175,0.354,0.175,0.525
				c0,0.186-0.063,0.338-0.187,0.457c-0.125,0.119-0.303,0.18-0.534,0.18c-0.166,0-0.309-0.047-0.426-0.145
				c-0.117-0.094-0.251-0.236-0.402-0.428c-0.122-0.158-0.267-0.285-0.435-0.381c-0.167-0.096-0.393-0.143-0.679-0.143
				c-0.294,0-0.538,0.061-0.733,0.188c-0.195,0.125-0.293,0.279-0.293,0.467c0,0.172,0.072,0.311,0.214,0.42
				c0.144,0.109,0.336,0.201,0.579,0.271c0.242,0.07,0.575,0.158,1.001,0.262c0.504,0.123,0.916,0.271,1.236,0.441
				c0.32,0.17,0.563,0.373,0.728,0.605C193.945,481.002,194.027,481.266,194.027,481.565z"/>
			<path style="fill:#FFFFFF;" d="M195.689,476.32c-0.226,0-0.419-0.068-0.581-0.209c-0.161-0.137-0.242-0.334-0.242-0.59
				c0-0.231,0.083-0.42,0.247-0.568c0.165-0.15,0.357-0.225,0.575-0.225c0.211,0,0.398,0.068,0.56,0.203
				c0.163,0.137,0.245,0.332,0.245,0.59c0,0.252-0.08,0.447-0.239,0.588C196.097,476.25,195.908,476.32,195.689,476.32z
				 M196.494,478.002v4.699c0,0.326-0.077,0.574-0.232,0.74c-0.155,0.166-0.351,0.25-0.59,0.25s-0.433-0.086-0.581-0.256
				c-0.149-0.172-0.224-0.416-0.224-0.734v-4.652c0-0.322,0.074-0.564,0.224-0.727c0.148-0.164,0.342-0.246,0.581-0.246
				s0.435,0.082,0.59,0.246C196.416,477.484,196.494,477.711,196.494,478.002z"/>
			<path style="fill:#FFFFFF;" d="M203.62,478.27v4.725c0,0.541-0.058,1.006-0.174,1.395c-0.114,0.389-0.299,0.711-0.554,0.965
				c-0.253,0.254-0.587,0.443-0.998,0.566c-0.411,0.123-0.922,0.186-1.535,0.186c-0.56,0-1.061-0.08-1.501-0.236
				c-0.44-0.156-0.78-0.359-1.019-0.607c-0.238-0.248-0.358-0.504-0.358-0.766c0-0.199,0.068-0.361,0.203-0.486
				c0.135-0.125,0.298-0.188,0.489-0.188c0.238,0,0.447,0.105,0.626,0.316c0.087,0.107,0.177,0.215,0.271,0.324
				c0.094,0.109,0.197,0.203,0.31,0.281c0.113,0.076,0.249,0.135,0.408,0.172c0.159,0.037,0.343,0.057,0.548,0.057
				c0.422,0,0.748-0.059,0.98-0.176c0.233-0.117,0.396-0.281,0.489-0.492c0.093-0.209,0.148-0.436,0.165-0.676
				c0.016-0.24,0.027-0.627,0.035-1.16c-0.251,0.352-0.539,0.617-0.867,0.801c-0.327,0.182-0.718,0.273-1.17,0.273
				c-0.544,0-1.02-0.139-1.427-0.418c-0.407-0.277-0.721-0.666-0.939-1.168c-0.218-0.5-0.327-1.078-0.327-1.732
				c0-0.488,0.066-0.932,0.199-1.324c0.134-0.393,0.323-0.725,0.569-0.994c0.246-0.272,0.53-0.475,0.852-0.611
				c0.322-0.137,0.675-0.205,1.061-0.205c0.461,0,0.86,0.088,1.198,0.264c0.337,0.178,0.651,0.455,0.941,0.832v-0.221
				c0-0.281,0.069-0.5,0.208-0.656c0.139-0.154,0.318-0.232,0.537-0.232c0.314,0,0.522,0.103,0.625,0.309
				C203.568,477.588,203.62,477.885,203.62,478.27z M198.906,480.33c0,0.66,0.144,1.158,0.432,1.496
				c0.288,0.338,0.661,0.508,1.118,0.508c0.27,0,0.525-0.074,0.765-0.219c0.241-0.145,0.437-0.363,0.588-0.654
				c0.15-0.293,0.226-0.646,0.226-1.064c0-0.662-0.146-1.18-0.438-1.549c-0.293-0.369-0.677-0.555-1.154-0.555
				c-0.465,0-0.837,0.178-1.117,0.531C199.046,479.176,198.906,479.68,198.906,480.33z"/>
			<path style="fill:#FFFFFF;" d="M206.206,477.977v0.197c0.285-0.377,0.598-0.654,0.938-0.832c0.34-0.176,0.729-0.266,1.171-0.266
				c0.429,0,0.812,0.094,1.15,0.281c0.337,0.188,0.59,0.451,0.756,0.791c0.108,0.199,0.177,0.414,0.209,0.645
				c0.032,0.23,0.049,0.525,0.049,0.883v3.025c0,0.326-0.075,0.574-0.224,0.74c-0.149,0.166-0.342,0.25-0.581,0.25
				c-0.243,0-0.439-0.086-0.59-0.256c-0.151-0.172-0.226-0.416-0.226-0.734v-2.711c0-0.535-0.075-0.945-0.224-1.23
				c-0.149-0.283-0.445-0.426-0.891-0.426c-0.29,0-0.554,0.086-0.792,0.26c-0.238,0.174-0.414,0.41-0.524,0.713
				c-0.079,0.242-0.119,0.693-0.119,1.357v2.037c0,0.33-0.077,0.578-0.23,0.744c-0.152,0.164-0.35,0.246-0.592,0.246
				c-0.235,0-0.427-0.086-0.579-0.256c-0.15-0.172-0.226-0.416-0.226-0.734v-4.699c0-0.311,0.068-0.543,0.203-0.695
				c0.135-0.152,0.32-0.23,0.554-0.23c0.143,0,0.272,0.035,0.388,0.103c0.114,0.066,0.207,0.168,0.277,0.303
				C206.17,477.617,206.206,477.783,206.206,477.977z"/>
			<path style="fill:#FFFFFF;" d="M216.101,480.785h-3.181c0.003,0.367,0.078,0.693,0.223,0.977
				c0.145,0.281,0.338,0.494,0.579,0.637c0.239,0.145,0.505,0.215,0.795,0.215c0.195,0,0.373-0.023,0.534-0.068
				c0.16-0.047,0.316-0.117,0.468-0.215c0.15-0.098,0.289-0.201,0.417-0.313c0.126-0.111,0.291-0.264,0.494-0.453
				c0.083-0.072,0.202-0.108,0.358-0.108c0.167,0,0.301,0.047,0.405,0.137c0.104,0.092,0.155,0.221,0.155,0.389
				c0,0.147-0.058,0.316-0.172,0.514c-0.116,0.197-0.289,0.387-0.522,0.566c-0.233,0.182-0.524,0.33-0.876,0.449
				c-0.352,0.121-0.756,0.18-1.212,0.18c-1.045,0-1.857-0.299-2.438-0.895c-0.579-0.596-0.87-1.404-0.87-2.424
				c0-0.48,0.071-0.928,0.214-1.338c0.143-0.412,0.352-0.764,0.626-1.059c0.273-0.293,0.611-0.518,1.012-0.676
				c0.401-0.156,0.847-0.234,1.335-0.234c0.635,0,1.18,0.133,1.635,0.402c0.455,0.267,0.795,0.613,1.022,1.039
				c0.226,0.424,0.34,0.857,0.34,1.299c0,0.408-0.118,0.674-0.352,0.795S216.527,480.785,216.101,480.785z M212.92,479.861h2.949
				c-0.04-0.557-0.19-0.975-0.45-1.25c-0.261-0.275-0.603-0.414-1.028-0.414c-0.406,0-0.739,0.141-0.999,0.42
				C213.133,478.897,212.976,479.313,212.92,479.861z"/>
			<path style="fill:#FFFFFF;" d="M222.732,482.762v-0.16c-0.218,0.25-0.434,0.453-0.646,0.609
				c-0.213,0.158-0.443,0.277-0.691,0.357c-0.248,0.084-0.519,0.123-0.813,0.123c-0.39,0-0.75-0.082-1.082-0.246
				c-0.332-0.166-0.619-0.402-0.861-0.707c-0.243-0.307-0.426-0.664-0.551-1.078c-0.126-0.414-0.189-0.861-0.189-1.34
				c0-1.018,0.249-1.811,0.745-2.379c0.497-0.568,1.15-0.852,1.96-0.852c0.469,0,0.864,0.08,1.186,0.24
				c0.322,0.162,0.636,0.41,0.941,0.742v-2.4c0-0.334,0.067-0.586,0.2-0.758c0.133-0.17,0.324-0.256,0.57-0.256
				c0.246,0,0.435,0.078,0.569,0.236c0.133,0.156,0.2,0.387,0.2,0.693v7.174c0,0.311-0.071,0.543-0.214,0.697
				c-0.144,0.154-0.327,0.232-0.554,0.232c-0.223,0-0.407-0.08-0.551-0.24C222.805,483.289,222.732,483.06,222.732,482.762z
				 M219.533,480.373c0,0.442,0.068,0.817,0.206,1.125c0.136,0.311,0.325,0.545,0.563,0.701c0.238,0.156,0.498,0.236,0.78,0.236
				c0.287,0,0.548-0.076,0.784-0.225c0.236-0.148,0.426-0.377,0.566-0.686c0.142-0.307,0.212-0.693,0.212-1.152
				c0-0.433-0.07-0.807-0.212-1.119c-0.14-0.311-0.331-0.549-0.571-0.715c-0.242-0.164-0.504-0.246-0.791-0.246
				c-0.297,0-0.563,0.084-0.798,0.254c-0.234,0.168-0.417,0.41-0.545,0.727C219.597,479.59,219.533,479.955,219.533,480.373z"/>
			<path style="fill:#FFFFFF;" d="M229.381,475.588v2.484c0.306-0.318,0.618-0.561,0.936-0.73c0.317-0.168,0.711-0.252,1.18-0.252
				c0.54,0,1.013,0.127,1.421,0.383c0.406,0.258,0.722,0.629,0.947,1.115c0.225,0.486,0.337,1.064,0.337,1.732
				c0,0.492-0.064,0.943-0.189,1.353c-0.125,0.412-0.307,0.768-0.545,1.07c-0.238,0.301-0.528,0.535-0.867,0.701
				c-0.34,0.164-0.714,0.246-1.123,0.246c-0.25,0-0.486-0.029-0.706-0.09c-0.221-0.059-0.409-0.137-0.564-0.234
				c-0.154-0.098-0.287-0.197-0.395-0.301c-0.109-0.104-0.254-0.26-0.433-0.465v0.16c0,0.307-0.074,0.537-0.221,0.695
				c-0.146,0.156-0.333,0.234-0.56,0.234c-0.23,0-0.414-0.078-0.551-0.234c-0.137-0.158-0.205-0.389-0.205-0.695v-7.103
				c0-0.328,0.066-0.578,0.199-0.746c0.133-0.17,0.319-0.254,0.557-0.254c0.251,0,0.444,0.08,0.579,0.24
				C229.314,475.06,229.381,475.289,229.381,475.588z M229.459,480.42c0,0.648,0.148,1.145,0.444,1.492
				c0.295,0.348,0.684,0.523,1.165,0.523c0.409,0,0.762-0.178,1.058-0.535c0.296-0.355,0.444-0.863,0.444-1.527
				c0-0.43-0.061-0.799-0.184-1.109c-0.124-0.309-0.298-0.549-0.524-0.717c-0.227-0.17-0.491-0.254-0.793-0.254
				c-0.31,0-0.587,0.084-0.828,0.254c-0.242,0.168-0.433,0.412-0.572,0.732C229.528,479.598,229.459,479.978,229.459,480.42z"/>
			<path style="fill:#FFFFFF;" d="M236.311,483.895l0.149-0.363l-2.002-5.041c-0.123-0.291-0.185-0.502-0.185-0.633
				c0-0.139,0.037-0.268,0.108-0.387c0.072-0.119,0.17-0.215,0.295-0.285c0.126-0.072,0.255-0.109,0.39-0.109
				c0.234,0,0.411,0.076,0.531,0.225c0.12,0.148,0.224,0.361,0.316,0.641l1.376,4.004l1.305-3.725
				c0.103-0.301,0.197-0.537,0.281-0.709c0.083-0.17,0.171-0.285,0.265-0.344c0.093-0.061,0.225-0.092,0.396-0.092
				c0.124,0,0.241,0.033,0.354,0.1c0.113,0.066,0.2,0.154,0.262,0.266c0.061,0.111,0.093,0.228,0.093,0.352
				c-0.017,0.074-0.042,0.182-0.078,0.322c-0.036,0.137-0.08,0.279-0.131,0.422l-2.121,5.555c-0.183,0.488-0.362,0.871-0.537,1.148
				c-0.175,0.277-0.406,0.492-0.694,0.641c-0.289,0.15-0.676,0.225-1.165,0.225c-0.477,0-0.834-0.053-1.072-0.154
				c-0.239-0.105-0.358-0.293-0.358-0.568c0-0.186,0.057-0.33,0.17-0.432c0.113-0.1,0.281-0.152,0.502-0.152
				c0.087,0,0.173,0.012,0.257,0.037c0.104,0.023,0.192,0.035,0.267,0.035c0.186,0,0.334-0.027,0.441-0.084
				c0.107-0.055,0.204-0.15,0.29-0.289C236.102,484.363,236.2,484.16,236.311,483.895z"/>
		</g>
		<g>
			<path style="fill:#FFFFFF;" d="M259.877,477.219h0.389v-0.488c0-0.512,0.063-0.914,0.191-1.217
				c0.129-0.299,0.35-0.518,0.656-0.654c0.309-0.137,0.73-0.205,1.266-0.205c0.953,0,1.426,0.23,1.426,0.699
				c0,0.149-0.049,0.279-0.15,0.385c-0.098,0.107-0.215,0.162-0.35,0.162c-0.063,0-0.176-0.012-0.332-0.039
				c-0.148-0.02-0.283-0.033-0.391-0.033c-0.293,0-0.48,0.088-0.566,0.26c-0.08,0.172-0.123,0.42-0.123,0.742v0.389h0.396
				c0.621,0,0.93,0.185,0.93,0.56c0,0.264-0.08,0.434-0.246,0.506c-0.164,0.07-0.393,0.107-0.684,0.107h-0.396v4.31
				c0,0.32-0.076,0.565-0.232,0.732c-0.15,0.17-0.348,0.254-0.59,0.254c-0.23,0-0.422-0.084-0.576-0.254
				c-0.154-0.168-0.228-0.412-0.228-0.732v-4.31h-0.449c-0.242,0-0.428-0.053-0.561-0.164c-0.131-0.107-0.197-0.252-0.197-0.426
				C259.059,477.41,259.332,477.219,259.877,477.219"/>
			<path style="fill:#FFFFFF;" d="M265.203,481.342v1.361c0,0.328-0.084,0.576-0.234,0.74c-0.156,0.166-0.352,0.246-0.588,0.246
				c-0.24,0-0.432-0.082-0.582-0.25c-0.148-0.166-0.227-0.412-0.227-0.736v-4.531c0-0.732,0.264-1.098,0.791-1.098
				c0.272,0,0.467,0.084,0.586,0.256c0.119,0.172,0.186,0.422,0.199,0.758c0.193-0.336,0.391-0.586,0.596-0.758
				c0.207-0.172,0.479-0.256,0.82-0.256c0.346,0,0.674,0.084,0.994,0.256c0.324,0.172,0.484,0.4,0.484,0.682
				c0,0.197-0.068,0.363-0.205,0.488c-0.137,0.133-0.283,0.197-0.441,0.197c-0.062,0-0.209-0.041-0.436-0.113
				c-0.229-0.072-0.432-0.109-0.604-0.109c-0.238,0-0.434,0.064-0.584,0.188c-0.152,0.129-0.271,0.313-0.355,0.557
				c-0.08,0.248-0.137,0.543-0.17,0.881C265.217,480.44,265.203,480.853,265.203,481.342"/>
			<path style="fill:#FFFFFF;" d="M272.682,480.783h-3.184c0.006,0.367,0.078,0.695,0.223,0.977c0.148,0.281,0.34,0.494,0.58,0.639
				c0.242,0.143,0.504,0.213,0.797,0.213c0.193,0,0.371-0.021,0.531-0.07c0.16-0.043,0.318-0.115,0.469-0.213
				c0.152-0.096,0.289-0.199,0.416-0.314c0.127-0.109,0.293-0.26,0.496-0.451c0.084-0.07,0.203-0.109,0.355-0.109
				c0.17,0,0.303,0.047,0.408,0.141c0.104,0.092,0.152,0.219,0.152,0.387c0,0.148-0.055,0.318-0.168,0.514
				c-0.117,0.199-0.289,0.387-0.523,0.568c-0.234,0.18-0.527,0.332-0.877,0.447c-0.352,0.121-0.758,0.18-1.213,0.18
				c-1.047,0-1.859-0.295-2.438-0.891c-0.58-0.598-0.873-1.408-0.873-2.428c0-0.48,0.074-0.928,0.219-1.34
				c0.141-0.412,0.35-0.762,0.625-1.059c0.273-0.295,0.609-0.52,1.012-0.676c0.4-0.156,0.846-0.234,1.336-0.234
				c0.635,0,1.18,0.135,1.635,0.404c0.455,0.266,0.799,0.613,1.021,1.039c0.227,0.426,0.34,0.857,0.34,1.301
				c0,0.406-0.117,0.672-0.352,0.793C273.435,480.723,273.107,480.783,272.682,480.783 M269.498,479.857h2.949
				c-0.039-0.555-0.186-0.973-0.447-1.246c-0.262-0.277-0.602-0.414-1.029-0.414c-0.404,0-0.738,0.137-0.998,0.42
				C269.713,478.897,269.553,479.31,269.498,479.857"/>
			<path style="fill:#FFFFFF;" d="M279.449,480.783h-3.184c0.004,0.367,0.08,0.695,0.223,0.977c0.147,0.281,0.338,0.494,0.578,0.639
				c0.24,0.143,0.506,0.213,0.799,0.213c0.191,0,0.371-0.021,0.529-0.07c0.162-0.043,0.316-0.115,0.471-0.213
				c0.152-0.096,0.289-0.199,0.416-0.314c0.125-0.109,0.291-0.26,0.494-0.451c0.086-0.07,0.205-0.109,0.357-0.109
				c0.168,0,0.303,0.047,0.408,0.141c0.104,0.092,0.15,0.219,0.15,0.387c0,0.148-0.055,0.318-0.172,0.514
				c-0.111,0.199-0.285,0.387-0.522,0.568c-0.23,0.18-0.525,0.332-0.875,0.447c-0.35,0.121-0.758,0.18-1.213,0.18
				c-1.047,0-1.857-0.295-2.439-0.891c-0.578-0.598-0.871-1.408-0.871-2.428c0-0.48,0.074-0.928,0.219-1.34
				c0.143-0.412,0.35-0.762,0.625-1.059c0.273-0.295,0.609-0.52,1.012-0.676c0.4-0.156,0.848-0.234,1.336-0.234
				c0.633,0,1.178,0.135,1.641,0.404c0.451,0.266,0.793,0.613,1.016,1.039c0.227,0.426,0.342,0.857,0.342,1.301
				c0,0.406-0.119,0.672-0.352,0.793C280.203,480.723,279.873,480.783,279.449,480.783 M276.266,479.857h2.951
				c-0.041-0.555-0.191-0.973-0.449-1.246c-0.264-0.277-0.603-0.414-1.031-0.414c-0.404,0-0.736,0.137-0.998,0.42
				C276.478,478.897,276.318,479.31,276.266,479.857"/>
			<path style="fill:#FFFFFF;" d="M283.012,477.99v0.193c0.307-0.377,0.625-0.652,0.957-0.83c0.326-0.178,0.701-0.268,1.119-0.268
				c0.498,0,0.963,0.131,1.383,0.387c0.422,0.26,0.752,0.637,0.998,1.133c0.244,0.5,0.367,1.086,0.367,1.766
				c0,0.5-0.07,0.961-0.211,1.381c-0.141,0.42-0.336,0.77-0.582,1.055c-0.248,0.281-0.537,0.502-0.873,0.656
				c-0.34,0.15-0.697,0.227-1.082,0.227c-0.465,0-0.857-0.092-1.172-0.279c-0.314-0.184-0.615-0.461-0.904-0.82v2.443
				c0,0.711-0.26,1.072-0.779,1.072c-0.309,0-0.508-0.092-0.609-0.275c-0.096-0.188-0.146-0.455-0.146-0.811v-7.022
				c0-0.31,0.066-0.539,0.201-0.695c0.135-0.15,0.32-0.229,0.555-0.229c0.23,0,0.418,0.078,0.561,0.234
				C282.941,477.469,283.012,477.691,283.012,477.99 M286.201,480.353c0-0.43-0.066-0.799-0.197-1.105
				c-0.131-0.31-0.313-0.545-0.543-0.709c-0.23-0.164-0.49-0.248-0.773-0.248c-0.447,0-0.826,0.178-1.135,0.529
				c-0.309,0.355-0.463,0.875-0.463,1.564c0,0.643,0.152,1.15,0.461,1.51c0.307,0.359,0.682,0.537,1.137,0.537
				c0.27,0,0.522-0.078,0.752-0.232c0.232-0.158,0.418-0.393,0.555-0.707C286.133,481.178,286.201,480.797,286.201,480.353"/>
			<path style="fill:#FFFFFF;" d="M289.475,476.316c-0.228,0-0.42-0.07-0.58-0.209c-0.162-0.141-0.242-0.334-0.242-0.588
				c0-0.23,0.082-0.42,0.248-0.572c0.164-0.146,0.355-0.223,0.574-0.223c0.213,0,0.398,0.066,0.561,0.201
				c0.162,0.137,0.244,0.334,0.244,0.594c0,0.25-0.078,0.445-0.236,0.586C289.883,476.246,289.695,476.316,289.475,476.316
				 M290.279,477.998v4.705c0,0.324-0.078,0.57-0.232,0.736c-0.156,0.168-0.352,0.25-0.59,0.25c-0.238,0-0.43-0.084-0.582-0.254
				c-0.147-0.174-0.223-0.418-0.223-0.732v-4.66c0-0.318,0.076-0.561,0.223-0.723c0.152-0.166,0.344-0.246,0.582-0.246
				c0.238,0,0.434,0.08,0.59,0.246C290.201,477.482,290.279,477.711,290.279,477.998"/>
			<path style="fill:#FFFFFF;" d="M295.523,482.947l-1.432-2.361l-0.885,0.832v1.297c0,0.313-0.082,0.553-0.248,0.721
				c-0.16,0.17-0.356,0.254-0.568,0.254c-0.25,0-0.449-0.082-0.59-0.25c-0.143-0.166-0.217-0.412-0.217-0.736v-6.941
				c0-0.359,0.072-0.635,0.209-0.824c0.139-0.191,0.342-0.283,0.598-0.283c0.25,0,0.447,0.086,0.596,0.258
				c0.146,0.17,0.221,0.422,0.221,0.754v3.947l1.83-1.92c0.227-0.236,0.397-0.402,0.52-0.488c0.119-0.088,0.262-0.131,0.432-0.131
				c0.205,0,0.373,0.065,0.512,0.193c0.133,0.129,0.201,0.293,0.201,0.484c0,0.238-0.223,0.558-0.662,0.955l-0.863,0.793
				l1.668,2.623c0.121,0.197,0.213,0.342,0.266,0.443c0.053,0.1,0.082,0.201,0.082,0.289c0,0.26-0.072,0.461-0.213,0.613
				c-0.143,0.148-0.33,0.221-0.557,0.221c-0.199,0-0.354-0.051-0.461-0.16C295.855,483.422,295.707,483.227,295.523,482.947"/>
			<path style="fill:#FFFFFF;" d="M299.06,483.69c-0.246,0-0.457-0.078-0.637-0.238c-0.178-0.156-0.27-0.379-0.27-0.668
				c0-0.242,0.088-0.451,0.258-0.623c0.172-0.176,0.381-0.264,0.633-0.264c0.25,0,0.461,0.088,0.641,0.258
				c0.176,0.174,0.266,0.385,0.266,0.629c0,0.283-0.09,0.508-0.266,0.664C299.506,483.611,299.297,483.69,299.06,483.69"/>
			<path style="fill:#FFFFFF;" d="M307.152,481.676c0,0.201-0.06,0.42-0.184,0.65c-0.119,0.23-0.305,0.449-0.555,0.658
				c-0.248,0.207-0.561,0.377-0.938,0.504c-0.377,0.127-0.805,0.191-1.275,0.191c-1.008,0-1.793-0.295-2.357-0.879
				c-0.561-0.586-0.844-1.373-0.844-2.357c0-0.67,0.129-1.26,0.389-1.773c0.256-0.51,0.631-0.906,1.117-1.188
				c0.49-0.281,1.076-0.42,1.754-0.42c0.422,0,0.807,0.06,1.162,0.185c0.352,0.121,0.646,0.283,0.893,0.475
				c0.244,0.197,0.432,0.404,0.559,0.623c0.131,0.221,0.193,0.428,0.193,0.619c0,0.193-0.07,0.359-0.215,0.494
				c-0.148,0.135-0.324,0.203-0.527,0.203c-0.137,0-0.248-0.035-0.338-0.104c-0.092-0.07-0.191-0.182-0.301-0.34
				c-0.199-0.301-0.406-0.529-0.625-0.678c-0.215-0.152-0.49-0.226-0.824-0.226c-0.479,0-0.867,0.185-1.162,0.563
				c-0.295,0.373-0.441,0.891-0.441,1.539c0,0.307,0.039,0.59,0.113,0.846c0.074,0.256,0.184,0.475,0.328,0.656
				c0.145,0.18,0.316,0.316,0.518,0.41c0.203,0.096,0.428,0.141,0.668,0.141c0.326,0,0.605-0.074,0.838-0.227
				c0.236-0.15,0.441-0.381,0.619-0.691c0.1-0.182,0.205-0.324,0.318-0.428c0.115-0.103,0.258-0.156,0.424-0.156
				c0.199,0,0.365,0.076,0.494,0.227C307.086,481.344,307.152,481.506,307.152,481.676"/>
			<path style="fill:#FFFFFF;" d="M314.172,480.383c0,0.484-0.076,0.932-0.223,1.342c-0.154,0.41-0.371,0.762-0.658,1.055
				c-0.285,0.293-0.629,0.52-1.023,0.678c-0.402,0.154-0.848,0.234-1.342,0.234c-0.492,0-0.938-0.08-1.33-0.24
				c-0.393-0.156-0.736-0.385-1.022-0.68c-0.289-0.299-0.508-0.649-0.66-1.051c-0.143-0.404-0.219-0.85-0.219-1.338
				c0-0.492,0.078-0.943,0.225-1.354c0.152-0.41,0.369-0.76,0.652-1.049c0.283-0.291,0.623-0.514,1.023-0.672
				c0.402-0.156,0.846-0.234,1.33-0.234c0.492,0,0.939,0.078,1.342,0.24c0.4,0.156,0.742,0.385,1.031,0.676
				c0.287,0.299,0.504,0.646,0.652,1.049C314.098,479.447,314.172,479.893,314.172,480.383 M312.539,480.383
				c0-0.664-0.147-1.18-0.438-1.549c-0.291-0.373-0.684-0.557-1.176-0.557c-0.318,0-0.6,0.084-0.842,0.248
				c-0.244,0.164-0.428,0.406-0.559,0.73c-0.131,0.322-0.199,0.697-0.199,1.127c0,0.426,0.064,0.797,0.195,1.113
				c0.131,0.32,0.314,0.563,0.555,0.732c0.242,0.166,0.525,0.254,0.85,0.254c0.492,0,0.885-0.188,1.176-0.56
				C312.393,481.551,312.539,481.037,312.539,480.383"/>
			<path style="fill:#FFFFFF;" d="M320.379,480.504v2.162c0,0.342-0.076,0.596-0.232,0.77c-0.156,0.17-0.357,0.256-0.613,0.256
				c-0.246,0-0.447-0.086-0.596-0.256c-0.156-0.174-0.234-0.428-0.234-0.77v-2.592c0-0.41-0.014-0.73-0.039-0.957
				c-0.029-0.221-0.105-0.41-0.229-0.555c-0.123-0.147-0.318-0.219-0.584-0.219c-0.533,0-0.883,0.182-1.051,0.553
				c-0.168,0.361-0.256,0.885-0.256,1.572v2.197c0,0.336-0.076,0.594-0.227,0.768c-0.156,0.17-0.355,0.258-0.605,0.258
				c-0.248,0-0.449-0.088-0.605-0.258c-0.158-0.174-0.236-0.432-0.236-0.768v-4.654c0-0.309,0.07-0.541,0.211-0.697
				c0.143-0.162,0.33-0.24,0.557-0.24c0.225,0,0.41,0.076,0.56,0.223c0.148,0.15,0.223,0.355,0.223,0.617v0.154
				c0.283-0.336,0.586-0.584,0.906-0.74c0.322-0.164,0.678-0.242,1.074-0.242c0.408,0,0.76,0.082,1.053,0.244
				c0.293,0.164,0.535,0.412,0.727,0.738c0.275-0.332,0.57-0.578,0.885-0.74c0.314-0.162,0.66-0.242,1.043-0.242
				c0.443,0,0.83,0.09,1.15,0.262c0.32,0.176,0.56,0.428,0.721,0.75c0.139,0.297,0.207,0.76,0.207,1.391v3.178
				c0,0.342-0.076,0.596-0.23,0.77c-0.154,0.17-0.361,0.256-0.615,0.256c-0.246,0-0.447-0.088-0.605-0.258
				c-0.156-0.174-0.234-0.432-0.234-0.768v-2.736c0-0.352-0.016-0.629-0.045-0.84c-0.029-0.211-0.109-0.389-0.24-0.531
				c-0.133-0.143-0.332-0.215-0.598-0.215c-0.215,0-0.418,0.066-0.611,0.191c-0.191,0.125-0.342,0.299-0.451,0.51
				C320.439,479.32,320.379,479.807,320.379,480.504"/>
		</g>
		<g>
			<path style="fill:#FFFFFF;" d="M244.652,479.99c-0.001-0.004-0.001-0.006-0.001-0.012
				C244.651,479.984,244.651,479.986,244.652,479.99z"/>
			<path style="fill:#FFFFFF;" d="M244.734,480.51c0.001,0,0.001,0,0.001,0c-0.031-0.148-0.055-0.295-0.074-0.439
				C244.681,480.215,244.705,480.363,244.734,480.51z"/>
			<path style="fill:#FFFFFF;" d="M245.272,482.02c-0.003-0.006-0.006-0.014-0.01-0.022
				C245.267,482.006,245.269,482.014,245.272,482.02z"/>
			<path style="fill:#FFFFFF;" d="M245.221,481.92c-0.014-0.029-0.027-0.057-0.04-0.084
				C245.194,481.865,245.207,481.891,245.221,481.92z"/>
			<path style="fill:#FFFFFF;" d="M244.885,481.092c0.079,0.25,0.176,0.494,0.287,0.727c-0.113-0.238-0.207-0.48-0.284-0.727
				C244.888,481.092,244.887,481.092,244.885,481.092z"/>
			<path style="fill:#FFFFFF;" d="M250.95,473.756c0.314,0,0.546,0.025,0.812,0.07l0.076-0.479c0,0-0.734-0.227-1.701-0.146
				l-0.076-0.262c0.3-0.063,0.525-0.33,0.525-0.649c0-0.365-0.298-0.66-0.663-0.66c-0.366,0-0.663,0.295-0.663,0.66
				c0,0.318,0.225,0.586,0.525,0.649l0.084,0.291c-1.025,0.141-1.841,0.541-1.841,0.541l0.145,0.441
				c0.62-0.205,1.158-0.332,1.646-0.385C250.296,473.777,250.657,473.756,250.95,473.756z"/>
			<path style="fill:#FFFFFF;" d="M245.26,476.176l0.004-0.004c0.024-0.031,0.047-0.061,0.071-0.09l-0.196-0.141l-0.307-0.225
				c-0.017,0.023-0.498,0.467-0.878,1.285c-0.016-0.025-0.036-0.051-0.057-0.074c-0.114-0.125-0.273-0.189-0.476-0.186
				c-0.003,0-0.006,0-0.009,0c-0.125,0-0.211-0.041-0.268-0.092c0.056-0.072,0.09-0.16,0.09-0.26c0-0.23-0.189-0.42-0.42-0.42
				c-0.232,0-0.419,0.189-0.419,0.42c0,0.232,0.188,0.42,0.419,0.42c0.037,0,0.071-0.006,0.105-0.014
				c0.104,0.115,0.266,0.215,0.506,0.211c0.124-0.002,0.214,0.029,0.274,0.098c0.07,0.076,0.093,0.185,0.101,0.267
				c-0.001,0.002-0.001,0.004-0.003,0.004c-0.273,0.746-0.195,1.674-0.195,1.674l0.663,0.027c0.013-0.338,0.063-0.93,0.233-1.4
				C244.83,476.77,245.244,476.201,245.26,476.176z"/>
			<path style="fill:#FFFFFF;" d="M256.721,474.31c-0.23,0-0.42,0.188-0.42,0.42c0,0.035,0.006,0.07,0.016,0.104
				c-0.115,0.103-0.215,0.268-0.213,0.508c0.002,0.125-0.029,0.213-0.096,0.273c-0.053,0.049-0.121,0.072-0.185,0.09
				c-0.494-0.693-1.102-1.115-1.102-1.115l-0.477,0.512c0.359,0.326,0.727,0.736,1.084,1.248c0.248,0.353,0.502,0.809,0.713,1.264
				l0.643-0.305c0,0-0.293-0.725-0.705-1.375c0.07-0.025,0.143-0.064,0.207-0.121c0.125-0.113,0.188-0.273,0.184-0.475
				c-0.002-0.131,0.041-0.219,0.094-0.277c0.07,0.055,0.16,0.09,0.258,0.09c0.232,0,0.42-0.189,0.42-0.42
				C257.141,474.498,256.953,474.31,256.721,474.31z"/>
			<path style="fill:#FFFFFF;" d="M255.053,480.084c-0.883,0.43-2.338,1-4.253,1.266c-0.752,0.105-1.48,0.145-2.151,0.145
				c-0.872,0-1.643-0.066-2.235-0.141c-0.675-0.086-1.203-0.189-1.525-0.262c0.077,0.246,0.171,0.488,0.284,0.727
				c0.002,0.006,0.005,0.012,0.009,0.018c0.013,0.027,0.027,0.055,0.04,0.084c0.013,0.027,0.027,0.053,0.041,0.078
				c0.004,0.008,0.007,0.016,0.01,0.022c0.19,0.358,0.418,0.688,0.678,0.971c0.904,0.988,1.824,1.145,1.832,1.146l0.015,0.002
				l0.014,0.006c0.008,0.002,0.824,0.266,2.065,0.266c1.219,0,2.418-0.246,3.559-0.732c0.846-0.432,1.645-1.09,2.041-1.674
				c0.307-0.455,0.527-0.938,0.658-1.439c0.07-0.268,0.125-0.695,0.094-1.147C255.979,479.586,255.586,479.824,255.053,480.084z"/>
			<path style="fill:#FFFFFF;" d="M245.544,476.387c-0.025,0.037-0.409,0.58-0.712,1.412c-0.227,0.625-0.217,1.533-0.217,1.543
				v0.002c0,0.215,0.012,0.426,0.036,0.635c0,0.006,0,0.008,0.001,0.012c0.003,0.027,0.007,0.053,0.009,0.08
				c0.019,0.145,0.044,0.291,0.074,0.439c0.44,0.111,3.061,0.723,5.99,0.314c1.836-0.256,3.231-0.797,4.077-1.209
				c0.705-0.34,1.156-0.648,1.332-0.775c-0.176-0.646-0.654-1.658-1.094-2.289c-1.258-1.797-2.615-2.258-3.313-2.373
				c-0.266-0.043-0.479-0.068-0.779-0.068c-0.281,0-0.629,0.023-1.094,0.072c-0.466,0.047-0.986,0.17-1.589,0.373
				c-0.845,0.283-1.61,0.727-2.213,1.285l-0.02,0.02C245.945,475.941,245.759,476.113,245.544,476.387z M253.242,475.967
				c0.604,0,1.094,0.49,1.094,1.094c0,0.604-0.49,1.096-1.094,1.096s-1.094-0.492-1.094-1.096
				C252.148,476.457,252.639,475.967,253.242,475.967z M248.071,475.924c0.977,0,1.767,0.791,1.767,1.768s-0.79,1.766-1.767,1.766
				c-0.976,0-1.767-0.789-1.767-1.766S247.096,475.924,248.071,475.924z"/>
		</g>
	</g>
</g>
</svg>
