<?xml version="1.0" encoding="utf-8"?>
<!-- Generator: Adobe Illustrator 27.5.0, SVG Export Plug-In . SVG Version: 6.00 Build 0)  -->
<svg version="1.1" id="L1" xmlns="http://www.w3.org/2000/svg" xmlns:xlink="http://www.w3.org/1999/xlink" x="0px" y="0px"
	 viewBox="0 0 540.44 400" style="enable-background:new 0 0 540.44 400;" xml:space="preserve">
<g>
	<rect x="0" style="fill:#CEEFEC;" width="540.44" height="399.586"/>
	<circle style="fill:#FFF8D7;" cx="270.22" cy="48.922" r="20.479"/>
	<path style="fill:#DFEAE9;" d="M540.44,396.763v-207.36c0,0-80.361-15.742-124.842,4.117
		c-44.482,19.859-100.019,4.961-149.106,4.874s-110.154-15.835-128.135-14.91C120.375,184.408,0,204.178,0,204.178v192.585H540.44z"
		/>
	<path style="fill:#F7CFB5;" d="M540.44,396.763V186.193c-2.522,1.412-12.497,5.685-46.452,18.194
		c-56.941,20.978-180.813,10.989-211.412,0c-30.6-10.989-93.272-20.978-123.241-13.498c-29.969,7.48-96.9,0.512-113.523-4.31
		C29.188,181.757,0,196.186,0,196.186v200.577H540.44z"/>
	<path style="fill:#FCC199;" d="M540.44,396.763V244.161c0,0-174.319-31.967-192.301-30.231
		c-17.981,1.736-96.9,25.236-142.852,24.237c-45.952-0.999-96.9-46.951-101.894-47.95c-4.995-0.999-23.975-3.996-97.899,30.968
		L0,222.184v174.579H540.44z"/>
	<path style="fill:#F89655;" d="M540.44,396.763V226.667c0,0-172.321,27.484-218.274,18.493
		c-45.952-8.991-95.901-37.961-138.856-36.962C140.355,209.198,0,217.189,0,217.189v179.573H540.44z"/>
	<path style="fill:#E48640;" d="M540.44,396.763V245.161c0,0-182.387-21.595-214.278-23.975
		c-31.891-2.381-79.917,35.963-149.845,43.954S0,231.175,0,231.175v165.588H540.44z"/>
	<path style="fill:#D17E3A;" d="M540.44,396.763V241.165c0,0-180.313-7.992-185.308-7.992c-4.995,0-101.894,32.966-166.827,18.98
		S0,246.16,0,246.16v150.603H540.44z"/>
	<path style="fill:#C17134;" d="M540.44,396.763V292.424c-22.477-9.303-99.397-55.255-142.353-48.262
		c-42.956,6.993-89.907,26.563-197.795,23.771C92.404,265.14,0,263.142,0,263.142v133.621H540.44z"/>
	<path style="fill:#B26932;" d="M540.44,396.763V275.129c0,0-165.329-25.973-226.266,0
		c-60.937,25.973-123.751-42.075-157.837-36.684s-86.91,34.686-113.882,36.684C15.484,277.127,0,281.062,0,281.062v115.701H540.44z"
		/>
	<path style="fill:#AD5B33;" d="M540.44,396.763V276.128c0,0-15.194-2.163-59.438,0.425s-130.864,11.563-192.8,5.508
		c-61.936-6.055-84.912-13.924-131.863-9.928C109.387,276.128,4.869,280.996,0,282.061v114.702H540.44z"/>
	<path style="fill:#A45B32;" d="M540.44,396.763V269.136c0,0-113.383,18.98-197.296,33.965
		c-83.913,14.984-175.818-27.971-245.745-16.982C27.472,297.107,0,275.068,0,275.068v121.695H540.44z"/>
	<path style="fill:#9C5330;" d="M540.44,396.763v-94.175c-4.495,2.51-160.334-13.498-232.259,0
		c-71.925,13.499-153.841,16.39-207.785,15.943C46.452,318.085,0,302.588,0,302.588s0,59.485,0,94.175H540.44z"/>
	<path style="fill:#964B2E;" d="M540.44,396.763v-98.661c0,0-224.268,32.969-328.16,10.492
		C108.388,286.118,55.443,305.098,0,316.087v80.676H540.44z"/>
	<path style="fill:#8D3E2D;" d="M540.44,399.894v-65.803c0,0-138.357-12.445-209.283-2.864C260.23,340.807,0,338.07,0,338.07v61.824
		H540.44z"/>
	<path style="fill:#80382A;" d="M540.44,396.763v-77.04c0,0-214.278,40.319-329.159,18.342S129.366,300.254,0,349.128v47.635H540.44
		z"/>
	<path style="fill:#753126;" d="M540.44,396.763v-49.708c0,0-220.272,44.95-287.202,14.483
		c-66.931-30.467-73.485-43.267-103.173-34.369C120.375,336.066,0,352.125,0,352.125v44.638H540.44z"/>
	<path style="fill:#6B2B22;" d="M540.44,396.763v-30.772c0,0-39.459,7.037-103.393,15.029
		c-63.934,7.992-201.815-28.921-249.741-40.958C139.38,328.025,0,351.126,0,351.126v45.637H540.44z"/>
	<path style="fill:#602320;" d="M540.44,396.763v-13.745c-17.482-0.999-245.952-17.372-270.22-26.972
		c-24.268-9.6-270.22-4.92-270.22-4.92v45.637H540.44z"/>
	<path style="fill:#521817;" d="M540.44,396.763v-10.748c0,0-139.42-8.093-178.315-22.478s-81.915,12.011-133.861,14.248
		C176.317,380.021,0,354.123,0,354.123v42.64H540.44z"/>
	<path style="fill:#491311;" d="M540.44,396.763v-5.754c-64.433-14.984-79.418-38.963-151.343-22.478
		C317.171,385.016,28.471,400,0,391.009v5.754H540.44z"/>
	<path style="fill:#40090C;" d="M540.44,396.763v-15.968c0,0-61.436-18.755-149.345-5.803C303.186,387.944,7.565,375.36,0,374.027
		v22.736H540.44z"/>
	<path style="fill:#350306;" d="M540.44,361.8c-36.462,5.234-160.334,31.207-201.291,26.212
		c-40.958-4.995-215.788-37.112-249.741-26.212C55.454,372.7,0,383.218,0,383.218V400h540.44V361.8z"/>
</g>
<path style="fill:#9C5330;" d="M475.917,297.52c-0.629-0.428-1.265-0.845-1.9-1.263c-0.5-0.463-0.908-0.952-1.221-1.582
	c-0.25-2.082-0.315-4.17-0.113-6.27c0.241-2.516,0.161-2.449-1.805-3.753c-1.737-1.152-3.146-2.671-4.496-4.257
	c0.105-0.275,0.217-0.548,0.342-0.816c0.598-1.272,1.355-2.467,1.872-3.777c0.444-1.124,0.703-2.369,0.506-3.575
	c-0.193-1.183-0.877-2.152-1.79-2.902c-1.397-1.148-3.038-1.898-4.708-2.565c0.158-1.302,0.245-2.628,0.437-3.907
	c0.271-1.807,0.26-4.794,1.481-6.172c0.063-0.072-0.052-0.114-0.105-0.118c-1.642-0.129-1.841,1.993-2.113,3.253
	c-0.013,0.001-0.031,0-0.042,0.001c-0.816,0.117-1.633,0.207-2.449,0.282c-0.029-0.647-0.096-1.29-0.288-1.906
	c-0.066-0.213-0.604-0.231-0.655,0c-0.145,0.653-0.173,1.323-0.183,1.995c-0.213,0.015-0.425,0.038-0.638,0.05
	c-0.563-0.079-1.172-0.065-1.533-0.068c-0.741-0.007-2.078-0.152-3.051,0.137c-3.133-0.092-6.253-0.458-9.344-1.09
	c-0.919-0.315-1.828-0.668-2.733-1.056c-0.534-1.348-1.178-2.652-2.11-3.679c-0.053-0.059-0.269-0.071-0.262,0.046
	c0.059,0.959,0.335,1.918,0.674,2.869c-0.099-0.047-0.199-0.091-0.298-0.138c-0.027-0.013-0.122,0.012-0.08,0.052
	c0.165,0.157,0.336,0.301,0.506,0.447c0.395,1.058,0.85,2.103,1.165,3.124c0.086,0.278,0.158,0.557,0.236,0.837
	c-0.119-0.164-0.24-0.329-0.351-0.49c-0.717-1.033-1.469-2.874-2.956-2.59c-0.176,0.034-0.178,0.212,0,0.245
	c0.921,0.17,1.378,1.603,1.82,2.329c0.457,0.75,0.922,1.494,1.392,2.236c0.321,0.507,0.633,1.039,0.955,1.568
	c0.057,0.232,0.124,0.462,0.179,0.694c-1.123,0.266-2.264,0.559-3.257,1.166c-0.909,0.556-1.584,1.373-2.252,2.186
	c-0.763,0.929-1.587,1.963-2.798,2.296c-1.515,0.417-2.997-0.481-3.967-1.586c-1.025-1.168-1.549-2.681-2.188-4.072
	c-0.319-0.696-0.685-1.354-1.096-2c-0.324-0.509-0.669-1.046-0.804-1.627c0.068-0.128,0.145-0.253,0.232-0.372
	c0.285-0.389,0.856-0.662,0.933-1.165c0.016-0.103-0.04-0.175-0.143-0.188c-0.546-0.066-0.973,0.208-1.409,0.507
	c-0.249,0.171-0.509,0.34-0.759,0.521c-0.808,0.29-1.624,0.559-2.46,0.754c-0.634,0.148-1.279,0.251-1.93,0.283
	c-0.569,0.028-1.142-0.023-1.709,0.041c-1.099,0.124-2.007,0.861-2.433,1.827c-0.383,0.394-0.71,0.888-0.673,1.381
	c-1.33,0.452-2.67,0.876-4.021,1.266c-0.697-1.286-1.554-2.474-2.692-3.427c-1.094-0.917-2.413-1.501-3.415-2.536
	c-0.062-0.064-0.113-0.137-0.173-0.202c-0.212-2.929-0.248-5.891-0.739-8.763c-0.032-0.185-0.439-0.24-0.491-0.043
	c-0.112,0.426-0.202,0.86-0.278,1.297c0.152-1.935,0.355-3.862,0.324-5.714c-0.002-0.143-0.272-0.132-0.322-0.028
	c-0.484,0.989-0.81,2.061-1.038,3.163c-0.313-0.387-0.648-0.447-1.389-0.398c-0.137,0.009-0.277,0.032-0.414,0.046
	c-0.149-0.303-0.316-0.598-0.522-0.872c-0.03-0.041-0.157-0.046-0.171,0.015c-0.076,0.314-0.105,0.635-0.115,0.958
	c-2.486,0.398-5.122,1.426-7.469,2.06c-2.332,0.629-4.757,1.199-7.048,2.03c-0.558-1.497-1.097-3.012-1.699-4.541
	c-0.06-0.153-0.443-0.151-0.445,0.039c-0.018,1.676,0.306,3.365,0.815,5.019c-0.056,0.024-0.114,0.042-0.169,0.066
	c-0.493-0.779-1.014-1.536-1.633-2.199c-0.04-0.043-0.238-0.059-0.218,0.038c0.36,1.755,1.303,3.396,2.101,4.987
	c0.368,0.733,0.716,1.547,1.108,2.336c-1.358,0.369-2.71,0.754-3.959,1.427c-2.924,1.578-5.631,5.49-9.379,4.694
	c-2.069-0.44-2.398-2.469-3.342-4.023c-0.723-1.191-3.508-4.013-1.196-5.153c0.554-0.273-0.078-0.711-0.476-0.529
	c-1.861,0.852-3.781,1.539-5.779,1.994c-1.549,0.353-3.292,0.306-4.792,0.798c-0.772,0.253-1.538,0.777-1.462,1.69
	c0.049,0.586,0.362,0.934,0.815,1.091c-0.066,0.254-0.132,0.509-0.197,0.763c-0.064,0.248,0.22,0.372,0.428,0.365
	c0.237-0.008,0.469,0.007,0.704,0.009c-1.481,0.65-2.989,1.18-4.521,1.575c-2.358-1.792-5.215-2.768-7.94-3.841
	c-1.54-0.606-2.963-1.392-3.91-2.795c-0.757-1.122-1.31-2.451-2.475-3.229c-1.345-0.898-2.889-0.824-4.339-0.316
	c-0.002-0.009-0.005-0.018-0.007-0.027c-0.02-2.262-0.397-4.501-1.334-6.616c-0.356-0.804-0.728-1.526-1.061-2.248
	c0.002-0.038,0.007-0.075,0.005-0.116c-0.041-0.65-0.216-1.633-0.211-2.373c0.24-0.373,0.374-0.812,0.36-1.288
	c0.097-0.216,0.158-0.446,0.088-0.823c-0.278-1.504-1.81-2.366-3.238-2.27c-0.486,0.033-0.87,0.381-0.881,0.881
	c0.001,0.145-0.014,0.287-0.026,0.43c-0.818,0.841-1.052,2.159-0.458,3.131c-0.024,0.154-0.059,0.314-0.045,0.461
	c0.034,0.34,0.15,0.682,0.224,1.015c0.08,0.359,0.149,0.705,0.237,1.046c-0.422,2.015-0.523,4.108-0.771,6.171
	c-0.065,0.539-0.151,1.075-0.249,1.609c-0.495,0.411-0.976,0.816-1.566,1.135c-0.747,0.405-1.291,0.589-1.786,1.297
	c-0.115,0.164-0.066,0.427,0.069,0.562c-2.413,1.047-4.488,2.871-6.497,4.526c-2.451,2.02-4.809,4.17-7.349,6.081
	c-0.743-0.381-1.413-0.941-1.952-1.555c-1.249-1.424-1.889-3.269-2.667-4.965c-0.389-0.849-0.835-1.651-1.336-2.438
	c-0.395-0.621-0.815-1.275-0.98-1.984c0.083-0.156,0.176-0.308,0.283-0.453c0.348-0.475,1.044-0.807,1.138-1.42
	c0.019-0.126-0.048-0.213-0.174-0.229c-0.665-0.081-1.187,0.254-1.717,0.618c-0.304,0.209-0.621,0.414-0.925,0.635
	c-0.985,0.354-1.98,0.682-2.999,0.919c-0.773,0.18-1.56,0.306-2.353,0.345c-0.694,0.034-1.392-0.028-2.084,0.05
	c-1.34,0.151-2.447,1.05-2.967,2.228c-0.587,0.605-1.079,1.403-0.696,2.148c0.208,0.406,0.642,0.464,1.036,0.326
	c0.221,0.014,0.453-0.014,0.669-0.058c0.418-0.086,0.82-0.165,1.22-0.218c0.205,1.843-0.178,3.619,0.735,5.343
	c0.906,1.71,2.291,3.484,3.573,4.937c0.744,0.844,1.555,1.258,2.401,1.388c1.286,0.655,2.708,0.973,4.164,1.098
	c0.463,0.696,1.049,1.301,1.798,1.775c1.298,0.819,2.835,1.19,4.347,1.339c1.748,0.172,3.484-0.163,5.224-0.028
	c0.284,0.022,0.557,0.067,0.82,0.132c-0.253,2.334-0.663,4.635-1.311,6.897c-0.326,1.14-0.721,2.252-1.129,3.364
	c-0.087,0.05-0.157,0.119-0.194,0.211c-0.08,0.191-0.152,0.386-0.229,0.578c-0.189,0.037-0.36,0.131-0.447,0.303
	c-0.516,1.021-0.9,2.025-1.196,3.13c-0.085,0.318,0.203,0.478,0.473,0.542c0.099,0.023,0.211,0.038,0.326,0.048
	c0,0.135-0.001,0.27-0.001,0.405c-0.127,0.072-0.211,0.181-0.203,0.335c0.055,0.975,0.069,1.944,0.062,2.913
	c-0.18,2.434-0.968,4.743-2.377,6.863c-0.427,0.642,0.762,0.888,1.159,0.582c0.249-0.23,0.523-0.412,0.811-0.569
	c-0.018,0.15-0.034,0.303-0.052,0.453c-0.047,0.402,0.663,0.518,0.913,0.452c1.771-0.467,1.376-2.269,1.416-3.789
	c0.035-1.349,0.148-2.694,0.3-4.035c0.468-1.37,0.676-2.697,0.634-4.074c0.67-1.075,1.13-2.174,1.412-3.382
	c0.053-0.039,0.096-0.087,0.119-0.147c0.41-1.072,0.817-2.15,1.218-3.231c1.009-1.136,1.858-2.368,2.577-3.719
	c0.543,1.361,1.071,2.726,1.559,4.107c0.177,0.546,0.352,1.093,0.533,1.639c0.009,0.027,0.032,0.044,0.046,0.068
	c0.167,0.505,0.34,1.008,0.498,1.517c0.02,0.064,0.063,0.118,0.118,0.164c-0.123,0.317-0.181,0.632-0.178,0.947
	c-0.047,0.117-0.081,0.24-0.106,0.364c-0.002,0.01-0.007,0.016-0.009,0.026c-0.022,0.119-0.03,0.228-0.032,0.333
	c-0.029,0.753,0.355,1.469,1.259,1.59c0.002,0.002,0.004,0.003,0.007,0.004c0.079,1.997,0.334,3.951,0.759,5.892
	c0.042,0.699,0.081,1.398,0.129,2.094c0.012,0.178,0.135,0.301,0.299,0.378c0.034,1.017,0.069,2.033,0.104,3.05
	c0.023,0.667,1.323,0.6,1.446,0c0.191-0.934,0.315-1.864,0.405-2.793c0.061-0.068,0.109-0.147,0.118-0.248
	c0.149-1.631,0.106-3.213-0.097-4.779c-0.047-0.563-0.09-1.124-0.168-1.691c-0.016-0.113-0.083-0.197-0.17-0.264
	c-0.142-0.636-0.304-1.271-0.505-1.907c0.518-0.82,0.398-1.523-0.043-2.02c-0.029-0.043-0.057-0.087-0.094-0.131
	c-0.068-0.223-0.196-0.436-0.364-0.631c-0.413-2.539-0.938-5.061-1.504-7.577c0.075-0.045,0.137-0.099,0.161-0.172
	c0.013-0.04,0.024-0.08,0.037-0.12c0.13-0.044,0.24-0.11,0.285-0.197c0.237-0.45,0.426-0.919,0.593-1.396
	c0.125,0.046,0.254,0.083,0.376,0.135c0.103-0.313,0.199-0.627,0.312-0.937c3.845,0.779,8.007,0.655,11.786-0.317
	c0.431-0.111,0.862-0.239,1.292-0.377c0.642,3.638,3.507,7.366,2.64,11.117c-0.481,2.081-2.719,5.247-3.461,8.081
	c-0.008,0.081-0.016,0.164-0.024,0.247c0.204,1.826,0.035,3.611-0.123,5.464c0.592-0.084,1.183-0.17,1.776-0.255
	c0.172-0.024,0.344-0.044,0.516-0.066c0.276-0.597,0.567-1.187,0.819-1.77c0.206-0.478,0.451-0.928,0.711-1.368
	c-0.119,0-0.238-0.001-0.358-0.001c0.145-0.751,0.251-1.523,0.356-2.296c-0.218-2.168,0.066-4.359,1.522-5.723
	c0.406-0.706,0.928-1.355,1.628-1.917c0.047-0.347,0.099-0.693,0.152-1.038c-0.415-1.212-0.765-2.43-1.016-3.656
	c0.411-1.17,0.286-2.654,0.372-3.823c0.034-0.461,0.083-0.919,0.132-1.376c0.012,0.148,0.024,0.296,0.044,0.444
	c0.05,0.365,0.141,0.712,0.247,1.052c0.009-0.98,0.753-1.873,1.82-2.383c0.677,1.392,1.421,2.751,2.199,4.078
	c0.15,0.255,0.585,0.337,0.936,0.281c0.136,0.198,0.27,0.397,0.409,0.593c0.184,0.26,0.729,0.329,1.103,0.188
	c0.326,0.4,0.669,0.792,1.02,1.178c0.985,1.245,2.09,2.402,3.331,3.46c0.039,0.033,0.094,0.054,0.147,0.077
	c0.114,0.135,0.23,0.269,0.323,0.41c0.878,1.324,0.483,2.492,0.364,3.941c-0.147,1.777,0.074,3.502,0.55,5.187
	c-0.054,1.12,0.103,1.992,0.589,3.053c0.162,0.354,0.821,0.357,1.132,0.157c0.068,0.329,0.13,0.659,0.201,0.987l0,0.001h0
	c0.009,0.043,0.017,0.086,0.026,0.128c0.118,0.542,1.468,0.467,1.462-0.128c-0.029-2.622-0.123-5.242-0.313-7.857
	c-0.076-1.049-0.009-2.395-0.217-3.586c0.252-1.283,0.041-2.528-0.644-3.52c0.172-0.127,0.225-0.307,0.018-0.525
	c-0.603-0.635-1.167-1.293-1.708-1.964c-1.259-1.645-2.215-3.456-2.824-5.399c0.131-0.075,0.226-0.186,0.233-0.348
	c0.01-0.225,0.01-0.451,0.016-0.677c0.17-0.49,0.204-0.906,0.113-1.344c0.085-1.697-0.085-3.358-0.489-4.982
	c0.346-1.132,0.515-2.329,0.324-3.498c-0.179-1.097-0.707-2.041-1.437-2.833c0.004-0.001,0.008-0.001,0.012-0.002
	c1.731-0.317,5.002-0.73,6.403-2.334c0.961,0.154,1.914,0.363,2.867,0.639c3.339,5.755,9.978,9.13,16.515,9.599
	c1.233,0.606,0.151,2.981-0.407,3.651c-0.627,0.753-1.371,1.409-2.021,2.144c-1.222,1.381-2.358,2.972-2.76,4.803
	c-0.456,2.072,0.373,3.972,0.634,6.005c0.325,2.528-0.03,5.049-0.927,7.427c-0.14,0.372,0.425,0.453,0.658,0.428
	c1.545-0.164,1.66-1.786,1.707-3.044c0.107-2.843,0.151-5.688,0.247-8.532c0.027-0.817,0.113-1.466,0.723-2.1
	c0.398-0.413,1.157-0.686,1.636-1.019c0.831-0.577,1.618-1.225,2.344-1.93c1.296-1.262,2.359-2.71,3.234-4.281
	c0.76,1.319,1.491,2.657,2.048,4.076c0.747,1.902,0.973,3.865,1.203,5.878c0.44,3.856,0.642,7.613,0.086,11.473
	c-0.063,0.44,0.847,0.427,1.031,0.181c2.054-2.74,1.323-6.564,1.175-9.749c-0.191-4.102-0.381-8.204-0.572-12.306
	c4.1,1.231,8.791,1.033,12.288-1.448c-0.441,1.431-0.655,2.932-0.583,4.431c0.105,2.186,1.294,4.292,1.13,6.461
	c-0.169,2.24-1.549,4.437-2.574,6.389c-1.105,2.104-2.351,4.093-4.017,5.799c-0.43,0.44,0.603,0.582,0.864,0.433
	c1.992-1.133,3.194-3.017,4.437-4.88c0.637-0.954,1.291-1.906,2.097-2.727c0.88-0.896,2.014-1.532,2.702-2.609
	c1.276-1.996,0.837-4.531,0.89-6.768c0.052-2.201,0.682-4.274,1.791-6.105c0.27,0.927,0.707,1.788,1.226,2.598
	c1.147,1.789,2.679,3.282,4.063,4.88c1.707,1.97,2.983,4.065,3.502,6.648c0.557,2.772,0.366,5.628,0.173,8.428
	c-0.032,0.461,1.017,0.469,1.064,0c0.367-3.661,0.735-7.322,1.102-10.983c0.153-1.526,0.293-2.711-0.5-4.065
	c-0.856-1.463-1.743-2.887-2.498-4.409c-1.4-2.821-2.338-5.781-3.411-8.73c-0.165-0.454-0.343-0.909-0.529-1.36
	c2.806-0.465,6.064-0.795,8.464-2.369c0.195,0.091,0.395,0.171,0.581,0.281c1.401,0.829,2.412,2.138,3.127,3.581
	c0.717,1.447,1.049,2.993,1.55,4.515c0.413,1.258,1.104,2.327,2.237,3.043c1.064,0.672,2.325,0.976,3.565,1.098
	c1.434,0.142,2.858-0.134,4.285-0.023c0.265,0.021,0.515,0.07,0.756,0.136c-0.516,1.729-1.097,3.436-1.76,5.122
	c-0.08,0.204,0.03,0.349,0.211,0.433c-0.007,0.018-0.015,0.036-0.022,0.054c-0.567,1.089-1.133,2.177-1.716,3.26
	c-0.012,0.006-0.029,0.01-0.04,0.016c-0.14,0.085-0.262,0.179-0.375,0.277c-0.034-0.001-0.069,0-0.103-0.002
	c-0.171-0.004-0.483,0.089-0.477,0.31c0.004,0.132,0.007,0.263,0.011,0.394c-0.715,1.279-0.41,3.064-0.932,4.489
	c-0.012,0.032-0.029,0.06-0.041,0.092c-0.31,0.5-0.638,0.987-0.986,1.462c-0.9,1.172-1.871,2.291-2.953,3.337
	c-0.321,0.31,0.086,0.545,0.518,0.58c-0.229,0.409-0.44,0.829-0.598,1.281c-0.253,0.726,1.153,0.748,1.448,0.26
	c0.603-0.998,1.203-1.997,1.805-2.996c0.439-0.602,0.851-1.219,1.237-1.848c0.163-0.244,0.321-0.493,0.468-0.75
	c0.009-0.016,0.016-0.035,0.025-0.051c0.201-0.353,0.383-0.717,0.569-1.079c0.242-0.415,0.475-0.836,0.705-1.258
	c0.45-0.747,0.901-1.493,1.35-2.241c0.736-1.225,1.518-2.446,2.28-3.681c1.044-1.04,2.018-2.133,2.92-3.292
	c0.113,0.17,0.23,0.339,0.364,0.503c0.495,0.61,1.092,1.164,1.542,1.798c0.327,0.761,0.502,1.586,0.48,2.441
	c-0.016,0.629-0.165,1.274-0.102,1.904c-0.037,0.477,0.036,0.862,0.401,1.241c0.227,0.236,0.464,0.435,0.623,0.729
	c0.188,0.35,0.254,0.76,0.278,1.152c0.043,0.689-0.032,1.38-0.024,2.07c0.009,0.796,0.064,1.632,0.191,2.456l-0.023,0.477
	c-0.024,0.503-0.027,1.012-0.077,1.512c-0.067,0.659-0.356,0.952-0.899,1.275c-0.473,0.281-0.913,0.748-0.62,1.319
	c0.026,0.05,0.089,0.085,0.145,0.083l1.602-0.048c0.442-0.013,1.03,0.066,1.444-0.13c0.604-0.285,0.417-0.939,0.275-1.448
	c-0.155-0.557-0.069-0.913,0.206-1.411c0.216-0.389,0.352-0.754,0.291-1.206c-0.058-0.428-0.256-0.821-0.391-1.227
	c-0.183-0.553-0.292-1.127-0.348-1.706c-0.105-1.087-0.039-2.181,0-3.271c0.032-0.895,0.165-1.949-0.188-2.798
	c-0.181-0.435-0.51-0.782-0.757-1.178c-0.288-0.461-0.488-0.971-0.614-1.5c-0.249-1.042-0.198-2.135,0.012-3.179
	c0.19-0.941,0.478-1.858,0.807-2.764c3.153,0.639,6.567,0.537,9.666-0.26c1.079-0.277,2.156-0.674,3.196-1.161
	c0.205,0.088,0.399,0.19,0.601,0.283c0.601,0.504,1.229,0.986,1.874,1.452c0.007,0.271,0.015,0.542,0.052,0.81
	c0.217,1.573,1.169,2.825,1.8,4.243c0.615,1.382,0.989,2.874,1.125,4.38c0.266,2.947-0.35,5.978-1.809,8.557
	c-0.172,0.305-0.357,0.602-0.552,0.893c-1.009,0.499-1.958,1.211-2.316,2.281c-0.035,0.105,0.057,0.201,0.157,0.206
	c0.732,0.034,1.465,0.032,2.197-0.024c0.4-0.03,1.092,0.004,1.361-0.374c0.148-0.208,0.151-0.513,0.129-0.809
	c0.115-0.154,0.212-0.314,0.287-0.473c0.365-0.777,0.471-1.647,0.618-2.484c0.172-0.98,0.357-1.961,0.664-2.909
	c0.562-1.734,1.637-3.418,3.403-4.103c0.088-0.034,0.165-0.146,0.097-0.239c-1.376-1.894-2.099-4.194-2.094-6.526
	c0.68,0.441,1.357,0.885,2.044,1.314c0.965,0.603,1.457,0.732,1.916,1.764c0.343,0.773,0.277,1.231,0.291,2.034
	c0.038,2.15,0.531,4.212,1.317,6.195c0.031,1.686,0.202,4.636,1.667,5.375c0.983,0.496,1.612-0.125,2.092-0.901
	c0.512-0.828,0.838-1.351,0.777-1.844C476.103,298.038,476.301,297.781,475.917,297.52z M298.339,271.529
	c-0.246-0.196-0.487-0.404-0.714-0.639c-2.421-2.507-3.165-6.394-4.573-9.501c-0.011-0.025-0.049-0.007-0.043,0.018
	c0.476,1.987,0.99,4.278,1.865,6.348c-0.361-0.535-0.677-1.043-0.915-1.46c-0.953-1.671-0.846-3.269-1.095-5.015
	c0.476-0.047,0.956-0.048,1.465,0.041c0.892,0.155,1.744,0.49,2.522,0.951c1.708,1.01,2.941,2.607,3.813,4.366
	c0.774,1.561,1.181,3.217,1.687,4.863C300.926,272.002,299.517,272.14,298.339,271.529z M301.003,272.908
	c0.544-0.111,1.093-0.292,1.642-0.516c0.117,0.325,0.252,0.637,0.404,0.938C302.35,273.247,301.664,273.112,301.003,272.908z
	 M325.227,257.497c-0.427,1.13-0.929,1.923-1.1,2.863c-0.609,0.168-1.227,0.311-1.84,0.455c-1.419,0.334-2.871,0.692-4.128,1.461
	c-1.108,0.678-1.931,1.674-2.745,2.666c-0.93,1.133-1.935,2.393-3.411,2.799c-0.58,0.159-1.156,0.161-1.71,0.046
	c1.355-1.054,2.663-2.172,3.936-3.3c2.914-2.581,6.064-4.945,8.937-7.56c0.631,0.491,1.326,0.51,2.109,0.428
	C325.258,257.403,325.245,257.451,325.227,257.497z M353.188,265.742c-0.128-0.127-0.256-0.255-0.394-0.373
	c1.673-0.473,3.287-1.126,4.798-1.977c0.53,0.025,1.055,0.073,1.577,0.14C357.695,264.797,355.429,265.426,353.188,265.742z
	 M414.628,267.957c-0.791,0.158-1.584,0.303-2.376,0.455c-0.127-0.289-0.259-0.575-0.398-0.858c1.316-0.418,2.599-0.901,3.856-1.432
	c0.185,0.251,0.496,0.292,0.787,0.19c0.182,0.012,0.372-0.011,0.549-0.047c0.824-0.168,1.567-0.318,2.411-0.171
	c0.276,0.048,0.541,0.136,0.807,0.223c0.049,0.058,0.164,0.078,0.267,0.075c0.02,0.008,0.038,0.02,0.058,0.028
	C419.045,267.438,416.399,267.602,414.628,267.957z M469.984,285.588c-0.597-0.392-1.211-0.76-1.82-1.135
	c0.063-0.104,0.056-0.234-0.076-0.388c-0.103-0.121-0.216-0.229-0.321-0.347c0.004-0.004,0.007-0.009,0.011-0.013
	c0.152,0.14,0.296,0.288,0.453,0.423c0.595,0.517,1.302,0.91,1.89,1.421c0.246,0.214,0.426,0.404,0.578,0.587
	C470.509,285.962,470.286,285.785,469.984,285.588z"/>
</svg>
