<?xml version="1.0" encoding="utf-8"?>
<!-- Generator: Adobe Illustrator 27.5.0, SVG Export Plug-In . SVG Version: 6.00 Build 0)  -->
<svg version="1.1" xmlns="http://www.w3.org/2000/svg" xmlns:xlink="http://www.w3.org/1999/xlink" x="0px" y="0px"
	 viewBox="0 0 500 500" style="enable-background:new 0 0 500 500;" xml:space="preserve">
<g id="BACKGROUND_1_">
	<g>
		<defs>
			<rect id="SVGID_1_" width="500" height="500"/>
		</defs>
		<clipPath id="SVGID_00000036940038231652486680000002626535360931051412_">
			<use xlink:href="#SVGID_1_"  style="overflow:visible;"/>
		</clipPath>
		<g style="clip-path:url(#SVGID_00000036940038231652486680000002626535360931051412_);">
			<rect style="fill:#6ACBD1;" width="500" height="500"/>
			<rect style="fill:#48C1C5;" width="501.359" height="135.316"/>
			<rect style="fill:#33AFB2;" width="501.359" height="67.658"/>
			<g>
				<circle style="opacity:0.2;fill:#FEFEFC;" cx="362.61" cy="158.336" r="64.353"/>
				
					<ellipse transform="matrix(0.7071 -0.7071 0.7071 0.7071 -5.7544 302.7798)" style="opacity:0.2;fill:#FEFEFC;" cx="362.61" cy="158.336" rx="53.627" ry="53.627"/>
				
					<ellipse transform="matrix(0.8551 -0.5184 0.5184 0.8551 -29.553 210.9143)" style="fill:#FEFEFC;" cx="362.61" cy="158.336" rx="42.902" ry="42.902"/>
			</g>
			<g style="opacity:0.4;">
				<path style="fill:#059DAD;" d="M159.751,109.662c-58.618,3.311-117.236,5.029-175.854,6.269
					c-58.618,1.173-117.236,1.72-175.854,1.729c-58.618,0.013-117.236-0.535-175.854-1.707
					c-58.618-1.234-117.236-2.959-175.855-6.291c58.618-3.332,117.236-5.056,175.855-6.29c58.618-1.172,117.236-1.72,175.854-1.707
					c58.618,0.009,117.236,0.555,175.854,1.729C42.515,104.633,101.133,106.352,159.751,109.662z"/>
			</g>
			<g style="opacity:0.4;">
				<path style="fill:#059DAD;" d="M937.955,85.82c-58.618,3.311-117.236,5.029-175.854,6.269
					c-58.618,1.174-117.236,1.72-175.855,1.729c-58.618,0.013-117.236-0.535-175.855-1.707
					c-58.618-1.234-117.236-2.959-175.854-6.29c58.618-3.332,117.236-5.056,175.854-6.29c58.618-1.172,117.236-1.72,175.855-1.707
					c58.618,0.009,117.236,0.555,175.855,1.729C820.719,80.791,879.337,82.509,937.955,85.82z"/>
			</g>
			<g style="opacity:0.4;">
				<path style="fill:#059DAD;" d="M891.549,48.475c-58.618,3.311-117.236,5.029-175.854,6.269
					c-58.618,1.173-117.236,1.72-175.855,1.729c-58.618,0.013-117.236-0.535-175.854-1.707
					c-58.618-1.234-117.236-2.959-175.855-6.29c58.618-3.332,117.236-5.056,175.855-6.29c58.618-1.172,117.236-1.72,175.854-1.707
					c58.618,0.009,117.236,0.555,175.855,1.729C774.313,43.446,832.931,45.164,891.549,48.475z"/>
			</g>
			<g style="opacity:0.4;">
				<path style="fill:#059DAD;" d="M223.251,154.5c-58.618,3.311-117.236,5.029-175.855,6.269
					c-58.618,1.173-117.236,1.72-175.854,1.729c-58.618,0.013-117.236-0.535-175.854-1.707
					c-58.618-1.234-117.236-2.959-175.855-6.29c58.618-3.332,117.236-5.056,175.855-6.29c58.618-1.172,117.236-1.72,175.854-1.707
					c58.618,0.009,117.236,0.555,175.854,1.729C106.015,149.471,164.633,151.189,223.251,154.5z"/>
			</g>
			<path style="fill:#6ACBD1;" d="M46.17,68.182c2.138-0.034,4.282,0.3,6.308,0.984c-3.852-6.169-0.815-15.374,5.807-18.378
				c6.623-3.004,15.287,0.455,18.372,7.041c-2.171-4.444-0.05-10.471,4.426-12.575c4.476-2.105,10.47,0.107,12.508,4.614
				c-0.135-5.585,5.144-9.957,10.536-11.418c6.423-1.74,13.718-0.471,18.825,3.796c5.107,4.266,7.662,11.562,5.801,17.951
				c4.033-2.068,9.368-1.194,12.53,2.052c3.162,3.246,3.896,8.603,1.723,12.58c-0.731,1.338-1.783,2.54-3.144,3.227
				c-1.662,0.839-3.605,0.844-5.467,0.831c-26.927-0.195-53.854-0.39-80.782-0.585c-3.164-0.023-10.784,0.963-13.407-1.245
				C35.158,72.806,42.096,68.247,46.17,68.182z"/>
			<path style="fill:#85E0E0;" d="M248.432,107.666c-1.462-0.023-2.928,0.205-4.314,0.673c2.634-4.219,0.558-10.514-3.972-12.569
				c-4.529-2.055-10.455,0.311-12.565,4.815c1.485-3.039,0.034-7.161-3.027-8.601c-3.061-1.439-7.161,0.073-8.554,3.155
				c0.092-3.82-3.518-6.81-7.206-7.809c-4.393-1.19-9.382-0.322-12.874,2.596c-3.492,2.918-5.24,7.907-3.968,12.277
				c-2.758-1.414-6.407-0.817-8.57,1.403c-2.163,2.22-2.664,5.884-1.178,8.604c0.5,0.915,1.219,1.737,2.15,2.207
				c1.137,0.574,2.466,0.577,3.739,0.568c18.416-0.133,36.831-0.266,55.247-0.4c2.164-0.016,7.375,0.659,9.169-0.852
				C255.963,110.829,251.218,107.711,248.432,107.666z"/>
		</g>
	</g>
	<path style="fill:#FDE79B;" d="M500,341.967c0,0-318.129-20.967-346-20.967S0.752,322.398,0.752,322.398V499H500V341.967z"/>
</g>
<g id="OBJECTS">
	<g>
		<defs>
			<rect id="SVGID_00000152942395059895562400000004035336110435811479_" width="500" height="500"/>
		</defs>
		<clipPath id="SVGID_00000042006402631356210180000009806415426946070451_">
			<use xlink:href="#SVGID_00000152942395059895562400000004035336110435811479_"  style="overflow:visible;"/>
		</clipPath>
		<g style="clip-path:url(#SVGID_00000042006402631356210180000009806415426946070451_);">
			<rect x="-29.747" y="275.859" style="fill:#F88F4B;" width="531.106" height="86.583"/>
			<polygon style="fill:#D97422;" points="176.851,151.667 69.851,276 283.851,276 			"/>
			<polygon style="fill:#FF9B46;" points="176.851,151.667 151.223,276 283.851,276 			"/>
			<polygon style="fill:#AA3A14;" points="60.738,182.217 -29.747,276 151.223,276 			"/>
			<polygon style="fill:#C85425;" points="60.738,182.217 37.424,276 151.223,276 			"/>
			<polygon style="opacity:0.2;fill:#231F20;" points="285.743,275.859 218.573,275.859 186.145,275.859 106.721,275.859 
				104.773,275.859 102.79,275.859 -25.987,275.859 -27.855,275.859 -29.747,275.859 -6,336.333 			"/>
			<path style="fill:#F07E35;" d="M-24.277,305.498c0.038-1.76,25.788-9.223,29.136-10.38c10.865-3.756,21.812-7.375,32.913-10.685
				c33.171-9.89,69.347-17.053,105.524-16.154c34.504,0.857,61.794,13.559,90.145,27.51c35.604,17.52,86.682,24.148,124.671,7.457
				c22.792-10.014,42.202-21.174,68.685-24.481c26.928-3.363,55.285-0.268,79.626,9.459v178.507l-534.278,2.313
				C-27.855,469.045-24.278,305.514-24.277,305.498z"/>
			<path style="opacity:0.1;fill:#FFFFFF;" d="M-24.277,314.316c0.038-1.76,25.788-9.223,29.136-10.38
				c10.865-3.756,21.812-7.375,32.913-10.685c33.171-9.89,69.347-17.053,105.524-16.154c34.504,0.857,61.794,13.56,90.145,27.511
				c35.604,17.52,86.682,24.148,124.671,7.457c22.792-10.014,42.202-21.174,68.685-24.481c26.928-3.363,55.285-0.268,79.626,9.459
				v178.507l-534.278,2.313C-27.855,477.862-24.278,314.332-24.277,314.316z"/>
			<path style="fill:#E26240;" d="M-24.216,351.934c81.933-34.771,181.945-42.529,271.026-21.023
				c37.636,9.086,73.557,23.168,112.502,27.788c46.498,5.515,93.665-2.855,139.403-11.413c5.781-1.082,12.692-3.082,13.543-7.68
				v135.942l-536.474,2.313V351.934z"/>
			<path style="fill:#D6552B;" d="M508.995,336.939c0.288,15.172-41.925,24.902-55.176,28.988
				c-23.846,7.353-48.624,12.85-73.843,16.44c-46.567,6.628-96.004,6.733-142.568,0.128c-31.343-4.446-61.894-11.631-92.909-17.214
				c-53.725-9.67-118.833-15.438-172.354-2.266v148.006l540.113-2.314C512.258,508.708,508.998,337.108,508.995,336.939z"/>
			<path style="opacity:0.1;fill:#FFFFFF;" d="M508.995,352.918c0.288,15.172-41.925,24.902-55.176,28.988
				c-23.846,7.353-48.624,12.85-73.843,16.44c-46.567,6.628-96.004,6.733-142.568,0.127c-31.343-4.446-61.894-11.631-92.909-17.213
				c-53.725-9.67-118.833-15.438-172.354-2.266V527l540.113-2.313C512.258,524.687,508.998,353.087,508.995,352.918z"/>
			<path style="fill:#C13E10;" d="M-17.566,375.343c29.052-12.347,61.302-22.367,96.012-26.938
				c35.375-4.659,73.135-2.918,106.203,6.223c35.259,9.747,62.397,27.428,92.365,41.785c29.6,14.181,68.098,23.427,104.639,28.585
				c20.08,2.834,40.63,4.412,61.246,4.694c5.745,0.078,63.019-0.698,62.978-3.34l0.546,81.541L-9.609,509.68L-17.566,375.343z"/>
			<path style="opacity:0.1;fill:#FFFFFF;" d="M-17.566,388.32c29.052-12.347,61.302-22.367,96.012-26.938
				c35.375-4.658,73.135-2.918,106.203,6.223c35.259,9.747,62.397,27.428,92.365,41.785c29.6,14.18,68.098,23.427,104.639,28.585
				c20.08,2.834,40.63,4.412,61.246,4.694c5.745,0.078,63.019-0.698,62.978-3.34l0.546,64.542l-516.032,1.788L-17.566,388.32z"/>
			<g>
				<g>
					<path style="fill:#5E1F0E;" d="M318.6,335.897c1.372,0.385,2.237,0.581,3.282,1.656c0.753,0.774,0.703,1.581,1.904,1.901
						c1.508,0.401,2.341,1.01,3.465,2.1c0.925,0.897,2.239,2.122,3.658,1.838c1.453-0.291,1.803-1.853,2.226-3.041
						c0.175-0.49,0.268-1.008,0.41-1.509c0.076-0.267,0.158-0.534,0.269-0.789c0.124-0.285,0.084-0.421-0.008-0.714
						c-0.036-0.118-0.045-0.244-0.026-0.365c0.004-0.026,0.01-0.053,0.028-0.074c0.025-0.03,0.067-0.037,0.106-0.043
						c0.112-0.016,0.235-0.029,0.328,0.034c0.041,0.028,0.071,0.067,0.106,0.102c0.251,0.253,0.602,0.156,0.914,0.135
						c0.348-0.024,0.698,0,1.043,0.037c0.673,0.072,1.341,0.222,2.019,0.241c0.585,0.016,1.097,0.126,1.465,0.632
						c0.266,0.365,0.187,0.886,0.175,1.311c-0.001,0.021-0.002,0.045-0.018,0.06c-0.012,0.011-0.028,0.014-0.044,0.016
						c-0.221,0.028-0.473-0.059-0.698-0.077c-0.258-0.021-0.509-0.012-0.751,0.089c-0.617,0.257-1.038,0.855-1.552,1.255
						c-0.908,0.706-1.408,1.853-1.925,2.915c-1.065,2.186-2.951,3.707-5.454,3.706c-0.557,0-1.125-0.159-1.657,0.063
						c-0.376,0.157-1.229,0.794-1.308,1.206c-0.087,0.451,0.508,1.263,0.731,1.655c0.333,0.584,0.909,1.04,1.215,1.615
						c0.639,1.204-0.931,2.165-1.472,3.108c-0.758,1.322-1.144,2.518-0.996,4.029c-0.607-0.121-1.641-0.866-1.429-1.61
						c-0.032,0.112,0.532-0.501,0.519-0.481c0.276-0.413,0.453-0.935,0.708-1.372c0.46-0.787,1.272-1.797,1.265-2.76
						c-0.009-1.161-1.226-1.947-1.966-2.681c-0.207,0.986-0.448,1.919-0.443,2.931c0.005,0.997-0.324,1.745-0.444,2.726
						c-0.102,0.834-0.029,1.877,0.357,2.633c0.327,0.642,1.543,0.799,1.645,1.418c-0.527,0.18-1.999,0.338-2.476-0.09
						c-0.12-0.108-0.231-1.144-0.26-1.326c-0.184-1.172,0.081-2.398-0.125-3.579c-0.189-1.08-0.108-1.798-0.013-2.904
						c0.045-0.524,0.068-1.05,0.069-1.576c0.001-0.841,0.167-0.887-0.634-0.833c-1.085,0.072-2.197-0.3-3.262-0.49
						c-0.997-0.178-2.184-0.154-3.012-0.731c-0.9-0.627-1.767-1.408-2.58-2.145c-0.197,0.668-0.521,1.246-0.749,1.893
						c-0.178,0.505-0.186,0.915-0.493,1.39c-0.317,0.491-0.568,0.482-0.971,0.827c-0.477,0.409-0.719,1.289-0.93,1.863
						c-0.517,1.403-0.505,3.16-0.093,4.595c0.414,1.439,1.056,1.598,2.255,2.214c-0.304,0.464-1.663,0.637-2.119,0.317
						c-0.657-0.461-0.697-1.99-0.93-2.669c-0.046,0.562,0.099,1.2,0.282,1.723c0.183,0.526,0.564,0.8,0.787,1.28
						c-0.464,0.079-1.497,0.155-1.841-0.255c-0.34-0.405,0.002-0.575,0.07-1.065c0.204-1.455-0.245-3.254-0.569-4.662
						c-0.37-1.607,0.931-2.353,1.169-3.852c0.116-0.732-0.06-1.613-0.1-2.353c-0.042-0.783,0.022-1.721-0.19-2.477
						c-0.244,0.88-0.476,1.467-0.987,2.198c-0.213,0.305-0.396,0.758-0.622,1.023c-0.232,0.271-0.362,0.195-0.582,0.587
						c-0.502-0.379,1.471-3.871,1.748-4.536c0.565-1.357,1.76-2.51,2.809-3.491c0.516-0.482,1.157-0.504,1.735-0.85
						c0.63-0.377,0.932-1.121,1.356-1.689C315.891,336.922,317.037,335.897,318.6,335.897z"/>
					<path style="fill:#5E1F0E;" d="M351.132,348.821c0.222,1.28,0.353,2.499,0.179,3.801c-0.084,0.627-0.429,1.367-0.243,1.989
						c0.162,0.539,0.761,1.147,1.071,1.6c0.729,1.065,1.676,2.137,2.277,3.269c0.128,0.242,0.118,0.649,0.358,0.801
						c0.396,0.25,1.632,0.012,2.103,0.012c-0.061-0.633-0.505-0.526-0.945-0.748c-0.572-0.289-0.912-0.827-1.268-1.343
						c-0.789-1.143-1.475-2.435-1.6-3.842c-0.093-1.046,0.107-2.696,0.485-3.684c0.192-0.503,0.572-0.986,0.851-1.45
						c0.385-0.64,0.385-0.839,0.341-1.596c1.43,0.072,2.623,0.714,4.064,0.8c0.827,0.049,1.583-0.352,2.349-0.35
						c0.712,0.002,1.065,0.317,1.117,0.885c0.068,0.741-0.282,1.739-0.5,2.432c-0.301,0.959-0.516,1.537-0.518,2.549
						c-0.003,1.459-0.406,3.12-0.752,4.53c-0.13,0.532-0.589,0.941-0.116,1.272c0.225,0.157,1.951,0.199,2.154-0.02
						c0.471-0.508-0.488-0.539-0.716-0.785c-0.365-0.396-0.077-1.546-0.027-2.056c0.162-1.638,1.024-2.867,1.298-4.421
						c0.227-1.289,0.875-3.651,1.882-4.515c0.007,0.473,0.252,0.608,0.574,0.872c0.464,0.38,0.632,0.565,0.911,1.143
						c0.406,0.841,0.922,1.693,1.215,2.578c0.565,1.713,1.411,3.346,1.942,5.109c0.229,0.761-0.135,1.533,0.773,1.772
						c0.317,0.083,1.678,0.105,1.68-0.396c0.001-0.261-0.905-0.655-1.078-0.901c-0.192-0.272-0.235-0.605-0.35-0.907
						c-0.372-0.978-0.917-1.83-1.077-2.887c-0.169-1.118-0.271-1.787-0.773-2.805c-0.407-0.825-0.505-1.785-0.677-2.679
						c-0.191-0.999-0.444-1.984,0.312-2.827c0.587-0.655,1.88-0.624,2.758-0.86c1.828-0.49,2.991-1.422,4.209-2.832
						c0.735-0.851,1.519-1.675,2.444-2.324c0.437-0.307,0.946-0.651,1.46-0.81c0.258-0.08,0.497,0.121,0.757,0.183
						c0.251,0.06,0.484,0.024,0.69-0.14c0.809-0.647-0.275-2.035-0.92-2.309c-0.527-0.224-1.123-0.223-1.675-0.329
						c-0.488-0.094-0.94-0.384-1.43-0.406c-0.235-0.01-0.452,0.029-0.685,0.036c-0.07,0.002-0.14,0-0.207-0.018
						c-0.136-0.037-0.247-0.136-0.381-0.179c-0.094-0.03-0.198-0.03-0.292-0.001c-0.054,0.017-0.107,0.045-0.14,0.091
						c-0.148,0.208,0.15,0.496,0.084,0.736c-0.068,0.245-0.219,0.518-0.344,0.74c-1.202,2.133-2.305,4.122-5.091,3.824
						c-1.129-0.121-2.22-0.603-2.98-1.47c-0.306-0.348-0.66-0.742-0.877-1.151c-0.244-0.46-0.146-1.012-0.398-1.459
						c-0.177-0.313-0.532-0.494-0.708-0.807c-0.053-0.094-0.09-0.2-0.169-0.274c-0.092-0.086-0.224-0.112-0.348-0.134
						c-0.147-0.026-0.296-0.052-0.444-0.032c-0.21,0.028-0.309,0.172-0.484,0.25c-0.132,0.059-0.326,0.06-0.468,0.068
						c-0.363,0.021-0.729-0.015-1.089-0.063c-0.663-0.088-1.32-0.268-1.987-0.317c-1.029-0.076-2.34-0.392-3.188,0.291
						c-0.848,0.683-1.493,1.64-2.208,2.45c-0.477,0.54-0.816,1.247-1.436,1.531c-0.508,0.233-0.991,0.396-1.434,0.752
						c-0.464,0.372-0.813,0.874-1.294,1.222c0.03-0.134-0.007-0.205-0.111-0.214c-0.085,0.353-0.227,0.31-0.398,0.657
						c-0.222,0.452-0.336,0.952-0.49,1.432c-0.264,0.82-0.479,1.643-0.704,2.472c-0.466,1.715-1.128,3.411-2.122,4.897
						c-1.088,1.627-0.579,3.405-0.747,5.295c-0.068,0.764-0.432,1.816-0.344,2.571c0.111,0.945,1.14,0.831,1.989,0.831
						c-0.023-0.541-0.486-0.483-0.751-0.82c-0.28-0.355-0.127-0.763-0.107-1.197c0.063-1.344,0.189-2.51,0.682-3.776
						c0.452-1.162,1.068-2.216,1.748-3.257C349.4,350.252,350.323,349.567,351.132,348.821z"/>
					<path style="fill:#5E1F0E;" d="M407.552,361.441c-0.506,0.113-1.929,0.408-2.353,0.04c-0.286-0.248-0.085-0.306-0.138-0.627
						c-0.08-0.484-0.268-0.959-0.434-1.43c-0.35-0.997-0.757-1.963-1.184-2.929c-0.452-1.024-0.476-1.734-0.57-2.855
						c-0.093-1.104-0.205-2.135-0.25-3.239c-0.012-0.287-0.042-1.114-0.491-1.162c-0.175-0.019-0.708,0.66-0.799,0.764
						c-1.368,1.564-2.333,3.43-3.392,5.177c-0.478,0.789-1.193,1.363-1.617,2.207c-0.384,0.764-0.747,1.705-0.999,2.5
						c-0.129,0.406-0.16,0.23-0.057,0.611c0.091,0.335,0.761,0.389,0.314,0.751c-0.461,0.374-1.959-0.02-1.929-0.669
						c0.017-0.354,0.59-0.89,0.779-1.191c0.274-0.438,0.521-0.891,0.768-1.343c0.503-0.92,0.913-1.808,1.173-2.824
						c0.233-0.908,0.736-1.582,1.112-2.433c0.461-1.043,0.9-2.09,1.378-3.127c-1.329,0-2.78-0.163-4.02-0.671
						c-1.111-0.455-1.84-1.349-2.777-2.046c0.016,0.645-0.247,1.297-0.282,1.941c-0.033,0.614-0.113,0.883-0.5,1.4
						c-0.902,1.204-1.76,2.457-2.058,3.978c-0.264,1.344,0.121,2.919,0.635,4.157c0.226,0.544,0.471,1.233,1.009,1.536
						c0.539,0.303,1.013,0.148,1.276,0.834c-0.51,0-1.061,0.06-1.568,0.001c-0.648-0.076-0.44,0.025-0.713-0.402
						c-0.482-0.752-0.7-1.762-1.042-2.605c-0.387-0.953-1.243-2.297-1.294-3.324c-0.047-0.934,0.741-2.155,1.092-3.012
						c-0.253-0.168-1.392,0.872-1.652,1.089c-0.613,0.51-1.031,1.147-1.294,1.9c-0.271,0.779-0.399,1.65-0.436,2.47
						c-0.018,0.41,0.125,0.921,0.06,1.311c-0.069,0.411-0.422,0.644-0.533,1.043c-0.121,0.438,0.176,1.611-0.717,1.17
						c-0.234-0.116-0.488-0.737-0.542-0.984c-0.114-0.512-0.04-0.444,0.264-0.781c0.318-0.353,0.397-0.258,0.548-0.768
						c0.129-0.435,0.202-0.911,0.269-1.358c0.162-1.076,0.125-2.175,0.112-3.26c-0.015-1.153,0.377-1.192,1.171-1.889
						c0.876-0.769,1.204-1.142,1.12-2.295c-0.133-1.823,0.207-3.863,1.133-5.474c0.442-0.769,0.979-1.624,1.593-2.262
						c0.63-0.654,1.556-0.626,2.348-1.019c1.422-0.707,2.666-2.491,4.458-2.251c0.766,0.103,1.299,0.789,1.954,1.137
						c0.908,0.482,1.883,0.672,2.884,0.838c0.838,0.139,1.621,0.348,2.329,0.835c0.682,0.469,1.112,1.18,1.864,1.547
						c1.695,0.829,3.517,0.602,4.934-0.665c0.625-0.559,1.059-1.259,1.474-1.979c0.439-0.762,1.072-1.422,1.491-2.183
						c0.223-0.404,0.076-1.082,0.531-1.079c0.167,0.001,0.587,0.349,0.731,0.409c0.133,0.055,0.499,0.154,0.648,0.201
						c0.896,0.285,1.538,0.057,2.455,0.068c0.678,0.008,1.684,0.604,1.602,1.462c-0.068,0.703-1.147,0.545-1.671,0.766
						c-0.767,0.323-1.496,0.931-2.177,1.402c-1.404,0.97-2.204,2.671-3.483,3.815c-1.72,1.538-3.271,2.068-5.524,2.369
						c-2.088,0.279-2.017,2.98-2.105,4.606c-0.056,1.029-0.194,2.086,0.05,3.089c0.22,0.902-0.082,1.73,0.2,2.657
						c0.269,0.882,0.637,2.171,1.242,2.876C406.508,360.907,407.227,360.507,407.552,361.441z M388.07,345.668
						c-0.717,0.536-0.836,2.195-0.245,2.719C387.908,347.468,387.986,346.592,388.07,345.668z"/>
					<g>
						<path style="fill:#5E1F0E;" d="M392.967,344.555c0.484,0.651,1.057,1.285,1.819,1.567c0.536,0.199,1.121,0.206,1.693,0.211
							c0.787,0.007,1.575,0.014,2.362,0.021c0.545,0.005,1.102,0.008,1.619-0.165c0.633-0.212,1.149-0.667,1.647-1.112
							c2.259-2.018,2.104-3.963-0.235-5.765c-1.238-0.954-2.547-1.877-4.051-2.301c-1.145-0.323-2.387-0.3-3.484,0.183
							c-1.177,0.518-1.695,1.523-2.671,2.314c-0.305,0.248-0.65,0.502-0.75,0.882C390.601,341.58,392.303,343.662,392.967,344.555z"
							/>
					</g>
					<g>
						<path style="fill:#5E1F0E;" d="M319.994,345.837c0.865-0.025,1.704-0.245,2.264-0.874c0.432-0.484,0.588-1.127,0.881-1.685
							c0.43-0.82,0.973-1.59,1.419-2.404c0.108-0.197,0.218-0.414,0.177-0.635c-0.04-0.217-0.216-0.379-0.381-0.525
							c-2.082-1.831-4.614-5.163-7.768-4.31c-0.947,0.256-1.632,0.932-2.131,1.75c-0.603,0.989-1.113,1.779-1.839,2.701
							c-0.177,0.225-0.355,0.472-0.374,0.757c-0.013,0.188,0.046,0.373,0.111,0.55c0.959,2.631,2.845,3.878,5.568,4.45
							C318.533,345.743,319.273,345.858,319.994,345.837z"/>
					</g>
					<g>
						<path style="fill:#5E1F0E;" d="M358.235,344.6c1.611,0.185,3.149-0.638,4.55-1.455c0.747-0.435,1.504-0.888,2.07-1.542
							c1.177-1.177,1.193-3.243,0.454-4.63c-0.853-1.6-2.099-1.339-3.739-1.339c-0.267,0-0.536,0-0.799-0.048
							c-0.505-0.093-0.96-0.357-1.44-0.538c-2.993-1.13-5.711,2.383-5.772,5.124C353.512,342.257,356.197,344.365,358.235,344.6z"/>
					</g>
				</g>
			</g>
			<g style="opacity:0.2;">
				<path style="fill:#231F20;" d="M295.407,396.754c2.383-0.569,3.832-0.853,6.333-2.522c1.775-1.201,2.424-2.478,4.4-2.949
					c2.461-0.592,4.13-1.53,6.57-3.221c1.974-1.392,4.688-3.293,6.366-2.805c1.733,0.5,1.101,2.98,0.85,4.871
					c-0.098,0.78-0.326,1.602-0.472,2.397c-0.077,0.424-0.143,0.849-0.16,1.256c-0.017,0.454-0.168,0.668-0.501,1.129
					c-0.134,0.185-0.233,0.384-0.288,0.577c-0.012,0.042-0.022,0.085-0.01,0.117c0.016,0.048,0.073,0.061,0.125,0.071
					c0.151,0.028,0.322,0.053,0.5-0.044c0.078-0.042,0.149-0.104,0.224-0.159c0.534-0.393,0.978-0.229,1.416-0.187
					c0.489,0.048,1.012,0.02,1.537-0.029c1.02-0.095,2.081-0.313,3.071-0.323c0.855-0.009,1.659-0.169,2.482-0.958
					c0.59-0.571,0.775-1.397,1.001-2.07c0.012-0.034,0.023-0.072,0.009-0.095c-0.01-0.018-0.032-0.023-0.053-0.027
					c-0.295-0.051-0.7,0.079-1.027,0.102c-0.377,0.026-0.724,0.004-1.006-0.163c-0.711-0.424-0.932-1.382-1.397-2.029
					c-0.802-1.142-0.737-2.971-0.731-4.665c0.077-3.486-1.267-5.943-4.429-6.009c-0.704-0.015-1.546,0.221-2.043-0.145
					c-0.348-0.258-0.902-1.287-0.664-1.94c0.262-0.716,1.653-1.983,2.239-2.596c0.87-0.915,1.92-1.62,2.734-2.522
					c1.683-1.887,0.633-3.446,0.781-4.951c0.238-2.108,0.809-4.008,2.219-6.393c-0.738,0.176-2.464,1.328-2.875,2.509
					c0.061-0.178,0.15,0.804,0.153,0.773c-0.047,0.66-0.29,1.489-0.372,2.186c-0.137,1.255-0.038,2.872-0.825,4.394
					c-0.949,1.835-3.045,3.046-4.552,4.185c0.586-1.563,1.094-3.044,1.962-4.642c0.856-1.575,1.124-2.766,1.834-4.319
					c0.607-1.32,1.586-2.966,2.646-4.152c0.892-1.006,2.296-1.225,2.913-2.2c-0.395-0.297-1.777-0.582-2.639,0.082
					c-0.219,0.168-1.24,1.802-1.429,2.089c-1.224,1.846-2.008,3.79-3.271,5.651c-1.163,1.701-1.703,2.838-2.562,4.587
					c-0.406,0.83-0.839,1.66-1.299,2.492c-0.735,1.329-0.572,1.405-1.505,1.3c-1.262-0.143-2.966,0.416-4.456,0.688
					c-1.401,0.255-2.843,0.185-4.445,1.074c-1.761,0.966-3.659,2.175-5.467,3.317c0.451-1.06,0.651-1.981,1.052-3.008
					c0.317-0.802,0.744-1.448,0.875-2.207c0.142-0.783-0.173-0.775-0.287-1.331c-0.128-0.658,0.554-2.053,0.939-2.964
					c0.96-2.227,2.937-4.998,4.99-7.251c2.037-2.26,2.895-2.495,4.825-3.437c0.178-0.739-1.047-1.047-1.875-0.552
					c-1.202,0.711-2.956,3.121-3.973,4.187c0.582-0.887,1.455-1.89,2.237-2.712c0.781-0.825,1.486-1.248,2.25-1.999
					c-0.393-0.136-1.379-0.281-2.203,0.357c-0.819,0.63-0.652,0.906-1.137,1.682c-1.432,2.3-3.976,5.126-5.956,7.339
					c-2.28,2.525-1.591,3.736-2.995,6.105c-0.681,1.157-1.893,2.544-2.775,3.709c-0.937,1.234-1.914,2.716-3.043,3.901
					c0.681-1.394,1.051-2.327,1.237-3.494c0.081-0.487,0.376-1.207,0.4-1.63c0.027-0.434-0.224-0.317-0.039-0.942
					c-1.069,0.584-2.61,6.145-3.006,7.201c-0.786,2.156-0.454,4.008-0.086,5.585c0.195,0.775,1.065,0.828,1.505,1.39
					c0.489,0.613,0.141,1.796,0.158,2.704C292.456,395.057,293.105,396.71,295.407,396.754z"/>
				<path style="fill:#231F20;" d="M346.91,377.888c0.69-2.04,1.242-3.983,1.458-6.057c0.107-0.999-0.045-2.177,0.374-3.168
					c0.359-0.859,1.222-1.829,1.706-2.55c1.118-1.697,2.442-3.406,3.382-5.209c0.197-0.385,0.296-1.034,0.583-1.275
					c0.47-0.398,1.676-0.02,2.159-0.02c-0.205,1.007-0.64,0.838-1.148,1.192c-0.667,0.46-1.16,1.317-1.672,2.139
					c-1.158,1.821-2.277,3.879-2.829,6.121c-0.414,1.666-0.664,4.294-0.498,5.867c0.09,0.8,0.417,1.568,0.633,2.306
					c0.306,1.018,0.253,1.334,0.001,2.54c1.815-0.12,3.452-1.146,5.262-1.288c1.037-0.082,1.912,0.555,2.869,0.548
					c0.89-0.006,1.37-0.508,1.506-1.412c0.176-1.178-0.122-2.765-0.292-3.867c-0.225-1.524-0.393-2.444-0.252-4.053
					c0.205-2.321,0.005-4.962-0.149-7.205c-0.053-0.845-0.466-1.497,0.079-2.023c0.257-0.25,2.044-0.317,2.227,0.03
					c0.431,0.808-0.575,0.857-0.845,1.249c-0.438,0.63-0.288,2.459-0.301,3.27c-0.037,2.605,0.787,4.558,0.93,7.028
					c0.13,2.049,0.683,5.802,1.864,7.172c0.044-0.752,0.358-0.968,0.774-1.388c0.595-0.605,0.81-0.899,1.18-1.82
					c0.527-1.338,1.172-2.693,1.54-4.1c0.685-2.723,1.643-5.319,2.212-8.119c0.235-1.209-0.158-2.435,0.785-2.815
					c0.327-0.133,1.741-0.169,1.771,0.628c0.016,0.414-0.923,1.041-1.098,1.432c-0.195,0.432-0.231,0.96-0.346,1.441
					c-0.38,1.554-0.969,2.908-1.136,4.587c-0.184,1.776-0.299,2.839-0.89,4.457c-0.492,1.312-0.624,2.838-0.847,4.259
					c-0.257,1.587-0.599,3.154,0.354,4.489c0.756,1.037,2.435,0.984,3.585,1.353c2.417,0.77,4.032,2.243,5.815,4.475
					c1.107,1.347,2.301,2.65,3.687,3.674c0.663,0.484,1.439,1.026,2.194,1.276c0.38,0.125,0.679-0.194,1.032-0.295
					c0.342-0.097,0.678-0.041,1.002,0.218c1.291,1.02,0.04,3.228-0.841,3.666c-0.724,0.359-1.593,0.361-2.38,0.533
					c-0.698,0.153-1.316,0.616-2.031,0.654c-0.344,0.018-0.667-0.042-1.01-0.053c-0.102-0.003-0.206,0.001-0.302,0.03
					c-0.195,0.06-0.346,0.218-0.538,0.287c-0.135,0.048-0.287,0.049-0.429,0.003c-0.081-0.027-0.162-0.07-0.216-0.143
					c-0.24-0.329,0.165-0.789,0.041-1.169c-0.126-0.388-0.374-0.821-0.578-1.172c-1.911-3.379-3.583-6.53-7.385-6.041
					c-1.55,0.198-3.062,0.97-4.151,2.352c-0.444,0.555-0.964,1.183-1.295,1.835c-0.376,0.733-0.27,1.609-0.662,2.321
					c-0.277,0.499-0.807,0.789-1.088,1.288c-0.085,0.149-0.148,0.318-0.269,0.436c-0.143,0.138-0.338,0.179-0.523,0.215
					c-0.218,0.042-0.44,0.085-0.655,0.055c-0.306-0.043-0.436-0.271-0.684-0.393c-0.187-0.092-0.471-0.093-0.678-0.105
					c-0.529-0.032-1.07,0.029-1.603,0.108c-0.984,0.144-1.976,0.435-2.965,0.518c-1.528,0.128-3.526,0.64-4.622-0.441
					c-1.075-1.082-1.767-2.602-2.574-3.887c-0.527-0.858-0.803-1.981-1.585-2.431c-0.636-0.368-1.255-0.625-1.754-1.19
					c-0.516-0.59-0.825-1.388-1.36-1.94c-0.006,0.213-0.081,0.327-0.224,0.342c0.007-0.562-0.2-0.493-0.307-1.045
					c-0.136-0.718-0.107-1.516-0.138-2.28c-0.046-1.307-0.019-2.616,0.004-3.938c0.069-2.732-0.079-5.433-0.666-7.8
					c-0.58-2.592,0.77-5.428,1.395-8.442c0.256-1.219,0.326-2.896,0.749-4.1c0.527-1.508,1.534-1.326,2.405-1.326
					c-0.24,0.863-0.696,0.77-1.11,1.307c-0.44,0.567-0.45,1.217-0.61,1.909c-0.491,2.143-0.835,4.002-0.799,6.02
					c0.053,1.851,0.358,3.531,0.769,5.187C345.285,375.613,346.167,376.702,346.91,377.888z"/>
				<path style="fill:#231F20;" d="M406.79,362.767c-0.238,1.097,0.069,3.164,0.25,4.575c0.182,1.483,0.95,2.856,1.18,4.302
					c0.248,1.609,0.958,3.339,1.563,5.017c0.959,2.65,2.291,7.035,5.078,7.689c3.031,0.707,5.338,1.722,8.561,4.403
					c2.461,1.999,4.719,4.863,7.335,6.597c1.287,0.842,2.757,1.915,4.077,2.526c0.907,0.417,2.301,0.271,2.957,1.434
					c0.804,1.419-0.173,2.29-1.147,2.23c-1.316-0.082-2.413-0.524-3.498-0.154c-0.181,0.061-0.64,0.183-0.794,0.259
					c-0.167,0.082-0.533,0.606-0.775,0.59c-0.662-0.044-0.917-1.137-1.518-1.823c-1.121-1.289-2.463-2.435-3.587-3.728
					c-1.051-1.22-2.104-2.408-3.316-3.385c-2.7-2.212-5.268-2.764-7.078-1.587c-0.819,0.522-1.031,1.632-1.725,2.324
					c-0.733,0.717-1.717,0.976-2.818,1.114c-1.32,0.164-2.599,0.37-3.67,1.055c-0.782,0.493-1.266,1.547-2.321,1.631
					c-2.478,0.196-4.837-2.814-7.039-4.102c-1.21-0.716-2.482-0.768-3.517-1.884c-0.996-1.089-1.923-2.517-2.69-3.797
					c-1.565-2.679-2.417-5.986-2.621-8.898c-0.134-1.843-0.603-2.471-1.795-3.785c-1.059-1.189-1.524-1.286-1.693-3.133
					c-0.16-1.737-0.297-3.495-0.65-5.232c-0.145-0.723-0.298-1.492-0.504-2.199c-0.239-0.829-0.308-0.685-0.696-1.275
					c-0.367-0.565-0.435-0.462-0.388-1.272c0.022-0.39,0.193-1.365,0.415-1.531c0.836-0.636,0.725,1.221,0.922,1.932
					c0.181,0.649,0.591,1.051,0.735,1.716c0.137,0.63,0.072,1.439,0.162,2.096c0.181,1.317,0.474,2.724,0.917,3.997
					c0.435,1.231,1.035,2.289,1.847,3.163c0.348,0.371,1.917,2.144,2.178,1.897c-0.609-1.408-1.79-3.438-1.936-4.934
					c-0.162-1.644,0.478-3.729,0.672-5.228c0.16-1.327,0.139-2.932,0.444-4.103c0.167-0.664-0.017-0.519,0.619-0.589
					c0.497-0.055,1.071,0.086,1.588,0.127c-0.065,1.084-0.596,0.795-1.064,1.24c-0.473,0.444-0.547,1.532-0.643,2.389
					c-0.237,1.948-0.274,4.446,0.347,6.629c0.719,2.473,2.047,4.564,3.455,6.585c0.617,0.868,0.791,1.308,1.011,2.3
					c0.231,1.041,0.753,2.116,0.924,3.153c0.967-1.033,1.589-2.405,2.805-3.035c1.336-0.704,3.041-0.832,4.659-0.708
					c-1.011-1.723-1.96-3.457-2.917-5.186c-0.767-1.41-1.599-2.543-2.204-4.031c-0.668-1.663-1.439-3.133-2.309-4.66
					c-0.422-0.752-0.838-1.503-1.274-2.232c-0.298-0.501-1.065-1.411-1.197-1.984c-0.242-1.048,1.125-1.565,1.72-0.925
					c0.582,0.62-0.075,0.653-0.049,1.187c0.029,0.607-0.001,0.325,0.276,0.991c0.547,1.305,1.273,2.855,1.966,4.121
					c0.779,1.399,1.785,2.389,2.631,3.706c1.922,2.921,3.854,6.03,6.201,8.69c0.159,0.177,1.131,1.328,1.336,1.314
					c0.526-0.035,0.158-1.376,0.031-1.84c-0.488-1.788-0.864-3.452-1.303-5.236c-0.449-1.811-0.776-2.963-0.792-4.587
					c-0.03-1.534-0.096-3.07-0.252-4.662c-0.078-0.752-0.138-1.509-0.315-2.29c-0.118-0.518-0.351-0.629-0.198-1.009
					c0.223-0.565,1.805,0.026,2.376,0.251C407.951,362.471,406.994,361.762,406.79,362.767z M390.855,380.376
					c-0.623,0.786-0.126,3.459,0.912,4.39C391.454,383.272,391.161,381.859,390.855,380.376z"/>
				<g>
					<path style="fill:#231F20;" d="M398.434,387.038c0.425-1.002,0.958-1.968,1.84-2.349c0.616-0.268,1.362-0.224,2.09-0.176
						c1.003,0.065,2.007,0.13,3.009,0.195c0.694,0.045,1.404,0.094,2.142,0.425c0.908,0.405,1.786,1.194,2.644,1.964
						c3.993,3.502,4.796,6.648,2.443,9.33c-1.309,1.415-2.775,2.771-4.772,3.295c-1.536,0.398-3.351,0.227-5.11-0.672
						c-1.865-0.963-2.918-2.637-4.531-4.015c-0.499-0.431-1.051-0.876-1.296-1.499C396.137,391.591,397.833,388.411,398.434,387.038
						z"/>
				</g>
				<g>
					<path style="fill:#231F20;" d="M306.797,381.095c1.094,0.063,1.976,0.434,2.138,1.442c0.133,0.776-0.231,1.797-0.335,2.686
						c-0.141,1.307-0.072,2.538-0.158,3.837c-0.019,0.314-0.052,0.661-0.297,1.008c-0.241,0.341-0.625,0.593-0.982,0.818
						c-4.563,2.834-11.346,8.024-15.216,6.586c-1.142-0.431-1.457-1.518-1.336-2.824c0.166-1.578,0.275-2.839,0.238-4.315
						c-0.005-0.36,0.013-0.754,0.296-1.205c0.186-0.297,0.467-0.588,0.748-0.865c4.114-4.125,7.899-6.041,12.012-6.871
						C304.821,381.205,305.886,381.043,306.797,381.095z"/>
				</g>
				<g>
					<path style="fill:#231F20;" d="M354.851,385.581c2.147-0.302,4.046,1.001,5.809,2.293c0.957,0.689,1.938,1.405,2.655,2.441
						c1.546,1.865,1.455,5.148,0.305,7.357c-1.374,2.549-3.194,2.142-5.618,2.153c-0.395,0.002-0.792,0.004-1.188,0.082
						c-0.762,0.151-1.48,0.574-2.226,0.866c-4.72,1.82-7.828-3.755-7.137-8.12C347.98,389.333,352.119,385.964,354.851,385.581z"/>
				</g>
			</g>
			<g>
				<defs>
					<polygon id="SVGID_00000126300318956724107520000004801982780187084726_" points="176.851,151.667 151.223,276 283.851,276 
											"/>
				</defs>
				<clipPath id="SVGID_00000086664862712590151520000014537564962291679149_">
					<use xlink:href="#SVGID_00000126300318956724107520000004801982780187084726_"  style="overflow:visible;"/>
				</clipPath>
				<g style="clip-path:url(#SVGID_00000086664862712590151520000014537564962291679149_);">
					<g style="opacity:0.2;">
						<polygon style="fill:#FEFEFC;" points="208.795,188.461 184.167,186.461 208.795,184.461 						"/>
					</g>
					<g style="opacity:0.2;">
						<polygon style="fill:#FEFEFC;" points="223.295,205.875 188.5,203.875 223.295,201.875 						"/>
					</g>
					<g style="opacity:0.2;">
						<polygon style="fill:#FEFEFC;" points="256.276,243.666 197.333,240.833 256.332,239.667 						"/>
					</g>
					<g style="opacity:0.2;">
						<polygon style="fill:#FEFEFC;" points="238.92,223.289 193.625,221.289 238.92,219.289 						"/>
					</g>
				</g>
			</g>
			<g>
				<g>
					<g style="opacity:0.2;">
						<path style="fill:#231F20;" d="M99.387,456.831c2.242,4.034,2.62,8.496,2.995,13.296c0.377,3.682,0.954,8.92,6.311,10.618
							c7.125,2.268,9.72-4.073,10.64-7.781c1.76-6.782-0.171-13.93-4.636-19.065c-2.468-2.954-5.846-5.215-10.042-6.38
							c5.033-8.55,9.818-17.105,14.941-25.588c0.05-0.083,0.104-0.172,0.106-0.236c0.003-0.077-0.068-0.095-0.135-0.108
							c-1.279-0.241-2.515-0.503-3.834-0.675c-1.562-0.202-3.328-0.281-5.17-0.162c-1.162,0.074-2.321-0.184-3.868,0.483
							c-3.546,1.497-7.072,8.011-8.602,10.082c-3.262,4.434-6.591,8.874-9.991,13.314c-3.122,4.086-6.338,8.164-9.61,12.236
							c-9.459,0.063-21.158,4.31-30.014,9.531c-9.336,5.262-15.887,11.553-21.758,17.729c-2.514,2.648-4.975,5.372-5.668,8.089
							c-0.84,3.567,3.417,6.694,11.253,4.322c7.984-2.53,11.505-9.655,15.083-13.717c4.568-5.195,12.085-13.683,21.76-16.758
							c0.79-0.26,1.588-0.474,2.39-0.668c-4.663,5.63-9.423,11.243-14.203,16.851c-6.595,7.669-13.264,15.317-19.829,22.975
							c-5.308,6.163-10.417,13.443-7.445,20c4.323,8.701,17.368,3.811,25.883-1.194c2.305-1.393,4.287-2.787,5.705-3.886
							c4.581-3.607,8.187-7.582,11.21-11.722c0.252,0.228,0.501,0.457,0.742,0.688c4.159,3.968,1.989,7.992,1.332,12.131
							c-0.247,1.648-0.246,3.318,0.521,5.026c1.245,2.707,6.48,4.775,11.05,3.232c6.966-2.438,9.466-11.665,8.192-15.877
							c-0.638-2.218-1.744-4.392-3.788-6.171c-3.2-2.814-8.407-4.326-13.909-5.333c2.565-4.296,4.76-8.643,6.896-12.864
							c5.593-10.872,9.054-22,15.356-32.649C99.299,456.68,99.348,456.758,99.387,456.831z"/>
					</g>
					<g style="opacity:0.2;">
						<path style="fill:#231F20;" d="M38.529,438.745c1.032-1.094,2.043-2.193,3.037-3.293c6.879-7.563,13.174-15.137,20.923-22.549
							c1.416-1.363,2.931-2.713,4.344-4.08c0.901-0.873,3.09-2.791,2.688-3.282c-0.286-0.347-1.255-0.214-1.897-0.253
							c-1.018-0.06-2.181-0.021-3.335,0.077c-0.973,0.081-1.976,0.203-2.982,0.312c-0.053,0.006-0.112,0.014-0.182,0.05
							c-0.058,0.03-0.108,0.071-0.154,0.11c-3.535,2.981-6.756,5.986-10.346,8.954c-3.579,2.938-7.329,5.875-11.057,8.707
							c-4.492,3.369-8.906,6.744-13.228,10.128c-0.287,0.224-0.581,0.452-0.874,0.678c-3.738-0.883-7.993-1.623-12.688-0.972
							c-2.33,0.296-4.601,0.904-6.71,1.603c-3.999,1.281-10.618,5.071-9.997,7.453c0.424,1.576,4.075,2.009,6.804,1.281
							c1.723-0.474,3.134-1.109,4.437-1.795c3.273-1.746,5.878-3.778,10.936-4.541c1.382-0.224,2.785-0.403,4.151-0.661
							c-6.462,4.957-13.326,10.424-15.912,15.869c-1.238,2.758-0.71,5.219,1.869,6.139c-0.007,0.002-0.014,0.006-0.021,0.008
							l0.884,0.39c0.102-0.033,0.194-0.078,0.295-0.112c1.255,0.181,2.83,0.073,4.757-0.426c5.79-1.586,9.742-5.518,13.492-9.025
							C31.53,445.987,35.102,442.379,38.529,438.745z"/>
					</g>
				</g>
				<g>
					<g>
						<path style="fill:#5E1F0E;" d="M132.03,318.705c0.374-1.595,0.883-3.168,1.808-4.651c1.458-2.337,4.828-3.416,6.858-1.239
							c3.144,3.372,2.078,12.33,0.164,16.074c-1.015,1.985-2.309,3.869-4.058,5.253c-3.576,2.831-8.474,3.192-13.034,3.149
							c-0.444-0.004-0.919-0.021-1.277-0.282c-0.797-0.581-0.458-1.851,0.107-2.659c1.224-1.751,3.079-2.933,4.704-4.319
							C131.004,326.873,131.087,322.723,132.03,318.705z"/>
						<path style="fill:#5E1F0E;" d="M133.227,388.458c-3.688,3.088-8.015,5.286-12.531,5.982c-1.271,0.196-2.734,0.133-3.62-0.8
							c-3.153-3.322,3.88-7.405,5.674-9.32c3.604-3.848,5.872-8.238,8.163-12.918c1.739-3.553,4.127-8.564,8.365-9.594
							c5.57-1.353,5.319,4.941,4.738,8.564C142.949,377.028,138.826,383.769,133.227,388.458z"/>
						<path style="fill:#5E1F0E;" d="M89.855,338.883c-1.11,2.901-1.222,6.075-1.263,9.181c-0.095,7.245,0.169,14.698,3.01,21.364
							c2.841,6.666,8.792,12.448,16.005,13.133c1.917,0.182,4.199-0.202,5.091-1.909c0.951-1.82-0.276-4.083-1.906-5.332
							c-1.63-1.249-3.65-1.935-5.202-3.28c-4.894-4.239-5.081-13.893-5.166-19.8c-0.066-4.621,1.423-12.326-1.92-16.061
							C95.288,332.583,91.302,335.103,89.855,338.883z"/>
						<g>
							<path style="fill:#B05B36;" d="M107.484,377.907l0.213-0.772c-5.38-1.481-9.962-5.871-11.672-11.183
								c-0.821-2.551-1.029-5.308-1.16-7.691c-0.425-7.735-0.172-15.558,0.751-23.25l-0.796-0.095
								c-0.928,7.739-1.182,15.608-0.755,23.39c0.133,2.434,0.347,5.252,1.197,7.893C97.053,371.759,101.85,376.356,107.484,377.907
								z"/>
						</g>
						<g>
							<path style="fill:#B05B36;" d="M125.663,335.001c4.166-0.295,8.115-2.873,10.059-6.569c0.622-1.182,1.039-2.448,1.366-3.53
								c1.264-4.191,1.99-8.534,2.158-12.908l-0.739-0.028c-0.166,4.311-0.882,8.591-2.127,12.722
								c-0.316,1.049-0.72,2.273-1.312,3.399c-1.828,3.475-5.54,5.899-9.457,6.176L125.663,335.001z"/>
						</g>
						<g>
							<path style="fill:#B05B36;" d="M117.679,391.22c4.753,0.388,9.937-1.867,13.867-6.033c3.599-3.815,5.856-8.634,7.758-13.275
								c1.253-3.059,2.419-6.195,3.464-9.322l-0.639-0.214c-1.04,3.113-2.2,6.235-3.448,9.28c-1.878,4.58-4.101,9.333-7.625,13.068
								c-3.791,4.018-8.771,6.195-13.322,5.824L117.679,391.22z"/>
						</g>
						<path style="fill:#5E1F0E;" d="M122.747,312.986c0.745,1.709,1.329,3.362,1.716,4.641c3.173,10.475,2.44,22.118,1.722,32.986
							c-0.773,11.695-3.423,23.471-3.712,35.106c-0.256,10.269-1.225,20.49-1.763,30.743c-0.077,1.474,0.456,4.024-0.771,5.144
							c-1.232,1.123-3.316,0.856-4.847,0.944c-2.272,0.13-4.52,0.443-6.753-0.202c-0.626-0.181-1.253-0.445-1.689-0.928
							c-1.581-1.753-0.772-4.965-0.621-7.074c0.215-3.012,0.639-6.032,0.727-9.042c0.09-3.074,0.139-6.151,0.249-9.224
							c0.254-13.992-0.21-27.968-0.667-41.951c-0.295-8.61-0.616-17.219-0.849-25.831c-0.188-6.94,0.204-14.945,4.337-20.832
							C115.188,299.828,120.038,306.775,122.747,312.986z"/>
						<g>
							<path style="fill:#B05B36;" d="M113.1,422.682l0.98-0.207c-1.029-4.936-1.051-9.455-1.063-14.526l-0.195-80.816
								c-0.03-7.21,0.243-16.542,2.858-22.833l-0.889-0.109c-2.707,6.51-2.67,15.624-2.64,22.947l0.005,1.481l0.19,79.333
								C112.358,413.087,112.044,417.62,113.1,422.682z"/>
						</g>
					</g>
					<g>
						<path style="fill:#5E1F0E;" d="M53.009,353.783c-0.268-1.14-0.632-2.266-1.293-3.326c-1.043-1.672-3.453-2.443-4.904-0.886
							c-2.249,2.411-1.486,8.818-0.117,11.496c0.726,1.42,1.652,2.767,2.902,3.757c2.557,2.024,6.06,2.283,9.321,2.252
							c0.317-0.003,0.657-0.015,0.913-0.202c0.57-0.415,0.328-1.323-0.076-1.902c-0.875-1.252-2.202-2.097-3.364-3.089
							C53.742,359.625,53.683,356.657,53.009,353.783z"/>
						<g>
							<path style="fill:#B05B36;" d="M57.562,365.438c-2.979-0.211-5.803-2.055-7.194-4.698c-0.445-0.845-0.743-1.751-0.977-2.525
								c-0.904-2.997-1.423-6.103-1.543-9.231l0.529-0.02c0.118,3.083,0.63,6.144,1.521,9.098c0.226,0.75,0.515,1.626,0.938,2.431
								c1.308,2.485,3.963,4.219,6.763,4.417L57.562,365.438z"/>
						</g>
						<path style="fill:#5E1F0E;" d="M59.96,342.601c-2.58,7.613-1.59,17.35-1.06,25.433c0.312,4.761,0.727,9.51,1.243,14.238
							c0.43,3.939,0.812,7.984,1.076,11.987c0.138,2.102,0.273,4.306,0.289,6.452c0.008,1.021-0.044,2.042-0.097,3.061
							c-0.035,0.67-0.328,1.924,0.171,2.482c0.197,0.22,0.496,0.313,0.781,0.39c1.878,0.506,6.201,1.642,7.675-0.222
							c1.013-1.281,0.679-2.963,0.47-4.444c-0.285-2.022-0.425-4.077-0.534-6.115c-0.424-7.974,0.484-15.918,0.872-23.875
							c0.037-0.774,0.072-1.549,0.103-2.323c0.055-1.347,0.095-2.695,0.117-4.045c0.071-4.478,0.025-8.965-0.189-13.435
							c-0.205-4.454-0.271-9.378-2.746-12.739C65,335.193,61.581,337.817,59.96,342.601z"/>
						<g>
							<path style="fill:#B05B36;" d="M66.923,407.453l-0.822-0.053c0.845-2.911,0.905-5.982,0.915-8.972l0.161-47.657
								c0.024-4.252-0.199-9.755-2.348-13.465l0.73-0.064c2.223,3.839,2.193,9.214,2.168,13.532l-0.004,0.873l-0.156,46.783
								C67.557,401.458,67.79,404.467,66.923,407.453z"/>
						</g>
					</g>
				</g>
			</g>
			<g>
				<defs>
					<polygon id="SVGID_00000090977913657320972140000003714756717120778940_" points="60.655,182.217 39.131,276 150.518,275.269 
											"/>
				</defs>
				<clipPath id="SVGID_00000069388644712448938380000003804601580546811570_">
					<use xlink:href="#SVGID_00000090977913657320972140000003714756717120778940_"  style="overflow:visible;"/>
				</clipPath>
				<g style="clip-path:url(#SVGID_00000069388644712448938380000003804601580546811570_);">
					<g style="opacity:0.2;">
						<polygon style="fill:#FEFEFC;" points="85.462,204.583 60.833,202.583 85.462,200.583 						"/>
					</g>
					<g style="opacity:0.2;">
						<polygon style="fill:#FEFEFC;" points="99.962,220.223 65.167,218.223 99.962,216.223 						"/>
					</g>
					<g style="opacity:0.2;">
						<polygon style="fill:#FEFEFC;" points="132.946,254.164 74,251.416 132.996,250.164 						"/>
					</g>
					<g style="opacity:0.2;">
						<polygon style="fill:#FEFEFC;" points="115.587,235.863 70.292,233.863 115.587,231.863 						"/>
					</g>
				</g>
			</g>
		</g>
	</g>
</g>
<g id="DESIGNED_BY_FREEPIK">
	<g>
		<g>
			<g>
				<path style="fill:#FF9B46;" d="M186.733,485.609v-0.145c-0.198,0.226-0.393,0.411-0.587,0.554
					c-0.194,0.143-0.402,0.251-0.629,0.325c-0.225,0.074-0.471,0.111-0.738,0.111c-0.354,0-0.683-0.074-0.983-0.225
					c-0.302-0.149-0.563-0.364-0.783-0.642c-0.221-0.278-0.387-0.605-0.501-0.98c-0.115-0.376-0.171-0.782-0.171-1.219
					c0-0.924,0.225-1.646,0.677-2.161c0.452-0.516,1.045-0.775,1.781-0.775c0.425,0,0.785,0.074,1.079,0.219
					c0.291,0.147,0.577,0.371,0.855,0.675v-2.184c0-0.303,0.061-0.532,0.181-0.687c0.121-0.156,0.294-0.233,0.517-0.233
					c0.225,0,0.397,0.072,0.519,0.214c0.121,0.143,0.182,0.351,0.182,0.631v6.521c0,0.283-0.064,0.493-0.195,0.634
					c-0.13,0.141-0.299,0.211-0.505,0.211c-0.202,0-0.368-0.073-0.5-0.22C186.798,486.088,186.733,485.88,186.733,485.609z
					 M183.825,483.437c0,0.402,0.062,0.741,0.186,1.024c0.125,0.281,0.296,0.495,0.511,0.635c0.218,0.144,0.454,0.214,0.711,0.214
					c0.26,0,0.497-0.067,0.713-0.203c0.214-0.135,0.386-0.343,0.513-0.622c0.129-0.28,0.192-0.631,0.192-1.049
					c0-0.393-0.063-0.731-0.192-1.016c-0.127-0.282-0.302-0.5-0.52-0.649c-0.22-0.15-0.458-0.224-0.718-0.224
					c-0.27,0-0.513,0.076-0.726,0.23c-0.213,0.152-0.378,0.373-0.495,0.66C183.882,482.725,183.825,483.059,183.825,483.437z"/>
				<path style="fill:#FF9B46;" d="M193.252,483.812h-2.891c0.004,0.334,0.07,0.631,0.203,0.888
					c0.131,0.256,0.308,0.449,0.526,0.579c0.218,0.131,0.46,0.194,0.722,0.194c0.178,0,0.34-0.02,0.486-0.061
					c0.147-0.043,0.289-0.106,0.425-0.195c0.137-0.088,0.264-0.183,0.379-0.285s0.265-0.239,0.449-0.413
					c0.077-0.064,0.184-0.096,0.325-0.096c0.152,0,0.273,0.042,0.368,0.125c0.093,0.084,0.141,0.2,0.141,0.352
					c0,0.134-0.053,0.289-0.157,0.469c-0.105,0.178-0.264,0.35-0.475,0.515c-0.212,0.163-0.476,0.299-0.796,0.409
					c-0.318,0.107-0.687,0.162-1.101,0.162c-0.95,0-1.69-0.272-2.215-0.813c-0.527-0.541-0.792-1.275-0.792-2.204
					c0-0.436,0.064-0.842,0.195-1.215c0.13-0.374,0.319-0.695,0.569-0.962c0.249-0.267,0.557-0.472,0.92-0.615
					c0.365-0.143,0.77-0.212,1.213-0.212c0.577,0,1.073,0.12,1.486,0.365c0.415,0.243,0.725,0.559,0.93,0.944
					c0.206,0.386,0.31,0.781,0.31,1.181c0,0.372-0.107,0.612-0.32,0.724C193.94,483.755,193.64,483.812,193.252,483.812z
					 M190.361,482.972h2.682c-0.036-0.506-0.173-0.885-0.409-1.135c-0.237-0.25-0.549-0.377-0.935-0.377
					c-0.368,0-0.671,0.127-0.907,0.382C190.554,482.096,190.412,482.474,190.361,482.972z"/>
				<path style="fill:#FF9B46;" d="M199.99,484.519c0,0.409-0.098,0.758-0.297,1.051c-0.199,0.29-0.492,0.51-0.88,0.659
					c-0.389,0.151-0.861,0.225-1.418,0.225c-0.531,0-0.986-0.081-1.363-0.243c-0.381-0.163-0.66-0.367-0.841-0.609
					c-0.18-0.245-0.271-0.489-0.271-0.734c0-0.163,0.057-0.302,0.174-0.418c0.114-0.115,0.261-0.173,0.438-0.173
					c0.155,0,0.273,0.037,0.357,0.113c0.084,0.075,0.163,0.183,0.238,0.319c0.152,0.265,0.334,0.461,0.545,0.591
					c0.211,0.131,0.498,0.195,0.863,0.195c0.297,0,0.54-0.066,0.73-0.198c0.188-0.132,0.284-0.283,0.284-0.453
					c0-0.259-0.1-0.449-0.296-0.568c-0.197-0.119-0.521-0.233-0.971-0.342c-0.509-0.126-0.924-0.259-1.243-0.398
					c-0.32-0.138-0.576-0.322-0.767-0.549c-0.191-0.229-0.287-0.507-0.287-0.84c0-0.296,0.089-0.576,0.266-0.84
					c0.178-0.263,0.439-0.473,0.784-0.631c0.344-0.157,0.759-0.236,1.248-0.236c0.382,0,0.727,0.038,1.031,0.119
					c0.305,0.079,0.56,0.186,0.764,0.32c0.204,0.133,0.359,0.282,0.465,0.443c0.107,0.163,0.16,0.322,0.16,0.478
					c0,0.169-0.056,0.309-0.169,0.416c-0.113,0.108-0.276,0.162-0.487,0.162c-0.151,0-0.28-0.043-0.386-0.13
					c-0.107-0.087-0.228-0.216-0.365-0.39c-0.112-0.143-0.244-0.26-0.395-0.345c-0.152-0.087-0.357-0.131-0.617-0.131
					c-0.267,0-0.49,0.057-0.667,0.171c-0.178,0.113-0.265,0.254-0.265,0.425c0,0.156,0.064,0.284,0.193,0.382
					c0.131,0.099,0.307,0.181,0.527,0.246c0.22,0.066,0.522,0.144,0.91,0.239c0.458,0.113,0.832,0.245,1.124,0.4
					c0.29,0.155,0.51,0.339,0.66,0.551C199.916,484.008,199.99,484.249,199.99,484.519z"/>
				<path style="fill:#FF9B46;" d="M201.502,479.756c-0.206,0-0.382-0.064-0.528-0.191c-0.146-0.126-0.219-0.303-0.219-0.536
					c0-0.21,0.075-0.382,0.224-0.518c0.151-0.136,0.324-0.203,0.523-0.203c0.191,0,0.361,0.062,0.51,0.184
					c0.148,0.124,0.221,0.302,0.221,0.537c0,0.228-0.072,0.406-0.217,0.534C201.872,479.69,201.7,479.756,201.502,479.756z
					 M202.232,481.282v4.272c0,0.297-0.07,0.522-0.211,0.673c-0.14,0.152-0.32,0.228-0.536,0.228s-0.393-0.078-0.528-0.233
					c-0.136-0.156-0.203-0.378-0.203-0.668v-4.23c0-0.292,0.067-0.512,0.203-0.66c0.135-0.149,0.311-0.222,0.528-0.222
					s0.396,0.073,0.536,0.222C202.163,480.812,202.232,481.018,202.232,481.282z"/>
				<path style="fill:#FF9B46;" d="M208.71,481.526v4.296c0,0.491-0.052,0.913-0.158,1.267c-0.103,0.353-0.272,0.646-0.503,0.877
					c-0.232,0.23-0.534,0.402-0.908,0.514c-0.373,0.112-0.839,0.168-1.395,0.168c-0.509,0-0.964-0.072-1.365-0.215
					c-0.401-0.141-0.709-0.325-0.926-0.552c-0.216-0.225-0.324-0.458-0.324-0.696c0-0.18,0.061-0.328,0.183-0.441
					c0.123-0.113,0.272-0.171,0.444-0.171c0.216,0,0.405,0.097,0.569,0.286c0.078,0.098,0.16,0.198,0.245,0.297
					c0.085,0.099,0.18,0.183,0.283,0.255c0.102,0.069,0.225,0.12,0.37,0.155c0.145,0.033,0.31,0.053,0.499,0.053
					c0.382,0,0.679-0.054,0.89-0.16c0.211-0.107,0.361-0.257,0.444-0.447c0.085-0.191,0.135-0.396,0.15-0.615
					c0.014-0.219,0.025-0.57,0.032-1.054c-0.228,0.319-0.49,0.561-0.789,0.727c-0.297,0.166-0.652,0.248-1.063,0.248
					c-0.495,0-0.926-0.126-1.298-0.379c-0.369-0.253-0.654-0.606-0.852-1.061c-0.199-0.455-0.297-0.98-0.297-1.576
					c0-0.444,0.059-0.846,0.181-1.203c0.121-0.358,0.293-0.659,0.516-0.904c0.225-0.246,0.483-0.432,0.775-0.557
					c0.293-0.124,0.614-0.186,0.965-0.186c0.419,0,0.782,0.081,1.09,0.24c0.305,0.163,0.592,0.414,0.855,0.757v-0.203
					c0-0.255,0.063-0.455,0.189-0.596c0.128-0.14,0.29-0.21,0.487-0.21c0.285,0,0.474,0.093,0.569,0.278
					C208.663,480.906,208.71,481.175,208.71,481.526z M204.426,483.399c0,0.6,0.13,1.052,0.393,1.36
					c0.261,0.308,0.6,0.46,1.016,0.46c0.246,0,0.477-0.066,0.696-0.197c0.219-0.134,0.397-0.331,0.535-0.596
					c0.136-0.266,0.205-0.587,0.205-0.967c0-0.602-0.132-1.073-0.398-1.408c-0.266-0.336-0.615-0.504-1.048-0.504
					c-0.424,0-0.761,0.161-1.016,0.481C204.553,482.35,204.426,482.808,204.426,483.399z"/>
				<path style="fill:#FF9B46;" d="M211.061,481.26v0.179c0.259-0.344,0.543-0.595,0.852-0.756c0.309-0.161,0.663-0.241,1.063-0.241
					c0.391,0,0.739,0.084,1.047,0.255c0.306,0.169,0.537,0.41,0.686,0.72c0.098,0.18,0.162,0.375,0.191,0.584
					c0.029,0.211,0.043,0.477,0.043,0.802v2.75c0,0.297-0.068,0.522-0.204,0.673c-0.135,0.152-0.31,0.228-0.527,0.228
					c-0.221,0-0.399-0.078-0.537-0.233c-0.138-0.156-0.206-0.378-0.206-0.668v-2.463c0-0.487-0.068-0.862-0.203-1.118
					c-0.135-0.258-0.406-0.387-0.811-0.387c-0.262,0-0.503,0.077-0.719,0.235c-0.217,0.157-0.376,0.374-0.477,0.648
					c-0.072,0.219-0.108,0.631-0.108,1.234v1.851c0,0.301-0.07,0.526-0.209,0.675c-0.138,0.151-0.318,0.225-0.539,0.225
					c-0.213,0-0.388-0.078-0.526-0.233c-0.137-0.156-0.205-0.378-0.205-0.668v-4.272c0-0.282,0.061-0.492,0.184-0.631
					c0.123-0.14,0.289-0.209,0.503-0.209c0.13,0,0.248,0.03,0.353,0.093c0.104,0.061,0.189,0.153,0.252,0.274
					C211.03,480.933,211.061,481.084,211.061,481.26z"/>
				<path style="fill:#FF9B46;" d="M220.056,483.812h-2.891c0.004,0.334,0.07,0.631,0.203,0.888
					c0.132,0.256,0.307,0.449,0.526,0.579c0.218,0.131,0.459,0.194,0.722,0.194c0.177,0,0.339-0.02,0.485-0.061
					c0.146-0.043,0.288-0.106,0.426-0.195c0.136-0.088,0.262-0.183,0.379-0.285c0.115-0.101,0.265-0.239,0.449-0.413
					c0.076-0.064,0.184-0.096,0.325-0.096c0.151,0,0.274,0.042,0.368,0.125c0.094,0.084,0.141,0.2,0.141,0.352
					c0,0.134-0.053,0.289-0.157,0.469c-0.104,0.178-0.263,0.35-0.476,0.515c-0.211,0.163-0.474,0.299-0.795,0.409
					c-0.319,0.107-0.686,0.162-1.102,0.162c-0.949,0-1.688-0.272-2.215-0.813c-0.527-0.541-0.79-1.275-0.79-2.204
					c0-0.436,0.064-0.842,0.194-1.215c0.13-0.374,0.32-0.695,0.571-0.962c0.249-0.267,0.555-0.472,0.92-0.615
					c0.364-0.143,0.769-0.212,1.213-0.212c0.577,0,1.073,0.12,1.485,0.365c0.414,0.243,0.723,0.559,0.93,0.944
					c0.205,0.386,0.309,0.781,0.309,1.181c0,0.372-0.107,0.612-0.32,0.724C220.742,483.755,220.443,483.812,220.056,483.812z
					 M217.165,482.972h2.68c-0.036-0.506-0.172-0.885-0.409-1.135c-0.235-0.25-0.547-0.377-0.933-0.377
					c-0.369,0-0.671,0.127-0.908,0.382C217.358,482.096,217.215,482.474,217.165,482.972z"/>
				<path style="fill:#FF9B46;" d="M226.083,485.609v-0.145c-0.198,0.226-0.393,0.411-0.586,0.554
					c-0.194,0.143-0.403,0.251-0.628,0.325c-0.225,0.074-0.472,0.111-0.741,0.111c-0.354,0-0.68-0.074-0.983-0.225
					c-0.301-0.149-0.562-0.364-0.782-0.642c-0.22-0.278-0.388-0.605-0.501-0.98c-0.114-0.376-0.171-0.782-0.171-1.219
					c0-0.924,0.226-1.646,0.677-2.161c0.452-0.516,1.045-0.775,1.782-0.775c0.426,0,0.786,0.074,1.078,0.219
					c0.292,0.147,0.578,0.371,0.855,0.675v-2.184c0-0.303,0.062-0.532,0.182-0.687c0.121-0.156,0.294-0.233,0.518-0.233
					s0.396,0.072,0.517,0.214c0.121,0.143,0.181,0.351,0.181,0.631v6.521c0,0.283-0.063,0.493-0.194,0.634
					c-0.13,0.141-0.297,0.211-0.503,0.211c-0.203,0-0.37-0.073-0.502-0.22C226.15,486.088,226.083,485.88,226.083,485.609z
					 M223.176,483.437c0,0.402,0.062,0.741,0.187,1.024c0.124,0.281,0.295,0.495,0.512,0.635c0.217,0.144,0.453,0.214,0.71,0.214
					c0.26,0,0.496-0.067,0.711-0.203c0.216-0.135,0.387-0.343,0.515-0.622c0.129-0.28,0.192-0.631,0.192-1.049
					c0-0.393-0.063-0.731-0.192-1.016c-0.128-0.282-0.301-0.5-0.52-0.649c-0.22-0.15-0.458-0.224-0.717-0.224
					c-0.271,0-0.514,0.076-0.726,0.23c-0.212,0.152-0.378,0.373-0.496,0.66C223.234,482.725,223.176,483.059,223.176,483.437z"/>
				<path style="fill:#FF9B46;" d="M232.127,479.088v2.259c0.278-0.289,0.561-0.51,0.85-0.664c0.289-0.153,0.648-0.23,1.073-0.23
					c0.492,0,0.921,0.117,1.292,0.349c0.37,0.234,0.657,0.571,0.861,1.014c0.203,0.441,0.306,0.967,0.306,1.573
					c0,0.449-0.057,0.857-0.171,1.232c-0.115,0.373-0.279,0.697-0.496,0.972c-0.217,0.276-0.479,0.487-0.788,0.637
					c-0.309,0.151-0.649,0.225-1.022,0.225c-0.226,0-0.441-0.026-0.641-0.081c-0.2-0.055-0.371-0.125-0.512-0.214
					c-0.14-0.087-0.26-0.179-0.361-0.273c-0.098-0.094-0.23-0.235-0.392-0.422v0.145c0,0.279-0.067,0.489-0.2,0.632
					c-0.133,0.143-0.302,0.214-0.509,0.214c-0.21,0-0.377-0.07-0.501-0.214c-0.125-0.143-0.187-0.353-0.187-0.632v-6.456
					c0-0.299,0.059-0.526,0.182-0.68c0.12-0.152,0.289-0.229,0.507-0.229c0.227,0,0.402,0.072,0.525,0.219
					C232.066,478.608,232.127,478.817,232.127,479.088z M232.198,483.481c0,0.589,0.135,1.04,0.404,1.357
					c0.268,0.316,0.621,0.473,1.059,0.473c0.372,0,0.693-0.161,0.961-0.484c0.268-0.324,0.403-0.787,0.403-1.39
					c0-0.39-0.055-0.726-0.167-1.006c-0.112-0.282-0.271-0.501-0.477-0.653c-0.205-0.154-0.445-0.23-0.72-0.23
					c-0.282,0-0.534,0.076-0.754,0.23c-0.22,0.152-0.393,0.375-0.52,0.666C232.261,482.734,232.198,483.08,232.198,483.481z"/>
				<path style="fill:#FF9B46;" d="M238.427,486.638l0.136-0.33l-1.82-4.583c-0.112-0.262-0.168-0.454-0.168-0.573
					c0-0.127,0.032-0.243,0.096-0.352c0.067-0.108,0.155-0.195,0.27-0.26c0.114-0.066,0.231-0.098,0.354-0.098
					c0.214,0,0.373,0.068,0.483,0.203c0.108,0.136,0.204,0.329,0.286,0.583l1.252,3.64l1.186-3.386
					c0.093-0.273,0.178-0.489,0.254-0.644c0.076-0.156,0.157-0.261,0.241-0.314c0.084-0.055,0.205-0.081,0.361-0.081
					c0.112,0,0.22,0.029,0.322,0.089c0.103,0.06,0.183,0.141,0.238,0.242c0.055,0.1,0.084,0.206,0.084,0.318
					c-0.015,0.069-0.038,0.166-0.071,0.293c-0.032,0.126-0.072,0.255-0.118,0.385l-1.929,5.049
					c-0.166,0.444-0.329,0.792-0.487,1.045c-0.158,0.253-0.37,0.448-0.631,0.583c-0.262,0.136-0.616,0.203-1.06,0.203
					c-0.433,0-0.758-0.047-0.974-0.141c-0.217-0.094-0.326-0.266-0.326-0.515c0-0.168,0.052-0.301,0.155-0.393
					c0.103-0.092,0.255-0.138,0.457-0.138c0.08,0,0.157,0.01,0.234,0.033c0.094,0.021,0.175,0.032,0.243,0.032
					c0.17,0,0.305-0.025,0.402-0.078c0.097-0.049,0.184-0.137,0.262-0.262C238.236,487.064,238.326,486.88,238.427,486.638z"/>
			</g>
			<g>
				<path style="fill:#FF9B46;" d="M259.848,480.57h0.353v-0.444c0-0.464,0.056-0.83,0.175-1.104
					c0.116-0.273,0.316-0.471,0.596-0.596c0.28-0.124,0.663-0.186,1.15-0.186c0.866,0,1.296,0.21,1.296,0.637
					c0,0.136-0.045,0.253-0.137,0.351c-0.089,0.095-0.195,0.145-0.319,0.145c-0.057,0-0.158-0.01-0.3-0.035
					c-0.135-0.018-0.257-0.031-0.355-0.031c-0.267,0-0.438,0.08-0.517,0.236c-0.072,0.157-0.111,0.383-0.111,0.676v0.351h0.36
					c0.565,0,0.844,0.171,0.844,0.51c0,0.24-0.072,0.395-0.223,0.459c-0.15,0.066-0.355,0.098-0.621,0.098h-0.36v3.919
					c0,0.291-0.069,0.514-0.211,0.667c-0.138,0.155-0.316,0.231-0.538,0.231c-0.209,0-0.382-0.076-0.523-0.231
					c-0.14-0.152-0.208-0.376-0.208-0.667v-3.919h-0.407c-0.222,0-0.389-0.048-0.509-0.149c-0.119-0.098-0.179-0.228-0.179-0.387
					C259.105,480.745,259.352,480.57,259.848,480.57"/>
				<path style="fill:#FF9B46;" d="M264.689,484.319v1.236c0,0.299-0.077,0.523-0.214,0.673c-0.14,0.152-0.319,0.225-0.534,0.225
					c-0.217,0-0.392-0.074-0.528-0.228c-0.135-0.15-0.206-0.374-0.206-0.67v-4.118c0-0.665,0.24-0.999,0.72-0.999
					c0.247,0,0.423,0.077,0.533,0.234c0.107,0.155,0.167,0.384,0.18,0.689c0.176-0.305,0.356-0.534,0.541-0.689
					c0.19-0.157,0.434-0.234,0.747-0.234c0.312,0,0.611,0.077,0.905,0.234c0.293,0.155,0.438,0.362,0.438,0.618
					c0,0.179-0.063,0.331-0.186,0.446c-0.125,0.118-0.259,0.177-0.403,0.177c-0.056,0-0.188-0.036-0.395-0.103
					c-0.208-0.064-0.392-0.098-0.548-0.098c-0.217,0-0.396,0.058-0.532,0.169c-0.137,0.117-0.246,0.284-0.322,0.505
					c-0.073,0.226-0.124,0.494-0.156,0.801C264.701,483.499,264.689,483.876,264.689,484.319"/>
				<path style="fill:#FF9B46;" d="M271.486,483.81h-2.893c0.004,0.334,0.07,0.633,0.202,0.889c0.134,0.254,0.307,0.448,0.526,0.578
					c0.22,0.131,0.459,0.195,0.725,0.195c0.176,0,0.337-0.019,0.484-0.064c0.146-0.039,0.288-0.106,0.424-0.193
					c0.138-0.088,0.263-0.182,0.379-0.286c0.116-0.1,0.266-0.237,0.45-0.41c0.077-0.064,0.185-0.099,0.325-0.099
					c0.152,0,0.274,0.043,0.37,0.126c0.095,0.085,0.139,0.2,0.139,0.352c0,0.135-0.051,0.289-0.152,0.467
					c-0.106,0.181-0.263,0.352-0.477,0.517c-0.213,0.162-0.479,0.3-0.798,0.407c-0.318,0.109-0.686,0.163-1.102,0.163
					c-0.952,0-1.689-0.27-2.216-0.811c-0.527-0.543-0.793-1.278-0.793-2.207c0-0.436,0.067-0.843,0.198-1.217
					c0.128-0.376,0.319-0.693,0.57-0.963c0.248-0.268,0.553-0.472,0.919-0.615c0.364-0.141,0.768-0.212,1.214-0.212
					c0.575,0,1.072,0.121,1.486,0.367c0.413,0.242,0.726,0.557,0.929,0.943c0.206,0.388,0.309,0.78,0.309,1.184
					c0,0.37-0.107,0.611-0.32,0.722C272.172,483.754,271.873,483.81,271.486,483.81 M268.594,482.97h2.68
					c-0.035-0.504-0.169-0.884-0.407-1.133c-0.237-0.253-0.546-0.377-0.935-0.377c-0.37,0-0.672,0.126-0.908,0.381
					C268.788,482.096,268.642,482.471,268.594,482.97"/>
				<path style="fill:#FF9B46;" d="M277.638,483.81h-2.893c0.004,0.334,0.072,0.633,0.203,0.889
					c0.132,0.254,0.308,0.448,0.526,0.578c0.219,0.131,0.459,0.195,0.725,0.195c0.174,0,0.337-0.019,0.481-0.064
					c0.149-0.039,0.288-0.106,0.428-0.193c0.138-0.088,0.263-0.182,0.379-0.286c0.113-0.1,0.265-0.237,0.449-0.41
					c0.078-0.064,0.186-0.099,0.324-0.099c0.153,0,0.276,0.043,0.371,0.126c0.094,0.085,0.137,0.2,0.137,0.352
					c0,0.135-0.05,0.289-0.156,0.467c-0.101,0.181-0.26,0.352-0.473,0.517c-0.211,0.162-0.478,0.3-0.796,0.407
					c-0.317,0.109-0.688,0.163-1.102,0.163c-0.951,0-1.688-0.27-2.217-0.811c-0.527-0.543-0.792-1.278-0.792-2.207
					c0-0.436,0.066-0.843,0.198-1.217c0.13-0.376,0.318-0.693,0.569-0.963c0.248-0.268,0.554-0.472,0.919-0.615
					c0.365-0.141,0.771-0.212,1.215-0.212c0.576,0,1.072,0.121,1.491,0.367c0.41,0.242,0.721,0.557,0.924,0.943
					c0.205,0.388,0.311,0.78,0.311,1.184c0,0.37-0.109,0.611-0.319,0.722C278.323,483.754,278.023,483.81,277.638,483.81
					 M274.745,482.97h2.681c-0.036-0.504-0.173-0.884-0.407-1.133c-0.24-0.253-0.549-0.377-0.936-0.377
					c-0.37,0-0.671,0.126-0.91,0.381C274.938,482.096,274.794,482.471,274.745,482.97"/>
				<path style="fill:#FF9B46;" d="M280.878,481.271v0.178c0.276-0.342,0.566-0.594,0.869-0.756
					c0.296-0.161,0.638-0.242,1.017-0.242c0.452,0,0.875,0.118,1.258,0.351c0.382,0.236,0.684,0.58,0.907,1.03
					c0.221,0.453,0.334,0.986,0.334,1.604c0,0.454-0.064,0.874-0.192,1.255s-0.307,0.7-0.529,0.958
					c-0.224,0.256-0.489,0.458-0.793,0.597c-0.309,0.137-0.633,0.206-0.985,0.206c-0.422,0-0.779-0.085-1.065-0.254
					c-0.286-0.168-0.56-0.42-0.821-0.746v2.22c0,0.649-0.238,0.977-0.71,0.977c-0.28,0-0.461-0.084-0.554-0.251
					c-0.088-0.171-0.134-0.413-0.134-0.736v-6.383c0-0.284,0.061-0.491,0.182-0.632c0.123-0.137,0.292-0.209,0.506-0.209
					c0.21,0,0.379,0.072,0.51,0.214C280.811,480.797,280.878,481,280.878,481.271 M283.775,483.419c0-0.39-0.06-0.726-0.178-1.005
					c-0.12-0.28-0.284-0.494-0.494-0.643c-0.209-0.15-0.445-0.226-0.702-0.226c-0.408,0-0.753,0.162-1.031,0.48
					c-0.282,0.323-0.424,0.798-0.424,1.423c0,0.585,0.14,1.045,0.421,1.372c0.276,0.327,0.618,0.489,1.034,0.489
					c0.243,0,0.473-0.071,0.683-0.212c0.211-0.145,0.378-0.358,0.503-0.643C283.712,484.169,283.775,483.823,283.775,483.419"/>
				<path style="fill:#FF9B46;" d="M286.751,479.751c-0.208,0-0.382-0.064-0.528-0.191c-0.147-0.127-0.22-0.304-0.22-0.534
					c0-0.21,0.075-0.383,0.226-0.52c0.149-0.134,0.323-0.203,0.521-0.203c0.194,0,0.362,0.061,0.509,0.183
					c0.148,0.125,0.223,0.304,0.223,0.54c0,0.228-0.072,0.405-0.215,0.533C287.123,479.686,286.951,479.751,286.751,479.751
					 M287.483,481.279v4.277c0,0.294-0.07,0.518-0.211,0.669c-0.142,0.154-0.32,0.228-0.536,0.228c-0.217,0-0.391-0.076-0.529-0.231
					c-0.134-0.158-0.203-0.381-0.203-0.665v-4.236c0-0.291,0.069-0.51,0.203-0.659c0.138-0.151,0.313-0.224,0.529-0.224
					c0.217,0,0.395,0.073,0.536,0.224C287.413,480.811,287.483,481.017,287.483,481.279"/>
				<path style="fill:#FF9B46;" d="M292.251,485.778l-1.302-2.147l-0.804,0.757v1.178c0,0.285-0.076,0.503-0.226,0.655
					c-0.146,0.155-0.323,0.231-0.516,0.231c-0.228,0-0.408-0.074-0.538-0.228c-0.129-0.15-0.195-0.374-0.195-0.67v-6.31
					c0-0.325,0.066-0.575,0.188-0.747c0.128-0.174,0.311-0.259,0.545-0.259c0.226,0,0.405,0.078,0.541,0.235
					c0.134,0.154,0.202,0.384,0.202,0.686v3.588l1.663-1.747c0.206-0.213,0.36-0.365,0.471-0.443c0.107-0.079,0.24-0.12,0.392-0.12
					c0.188,0,0.34,0.06,0.466,0.177c0.121,0.118,0.183,0.266,0.183,0.441c0,0.216-0.202,0.506-0.601,0.866l-0.786,0.722l1.517,2.384
					c0.109,0.18,0.193,0.311,0.241,0.404c0.049,0.089,0.075,0.181,0.075,0.262c0,0.236-0.066,0.418-0.194,0.557
					c-0.129,0.135-0.299,0.202-0.504,0.202c-0.181,0-0.322-0.047-0.419-0.146C292.551,486.209,292.416,486.031,292.251,485.778"/>
				<path style="fill:#FF9B46;" d="M295.465,486.453c-0.224,0-0.416-0.072-0.579-0.217c-0.162-0.141-0.245-0.344-0.245-0.606
					c0-0.221,0.079-0.41,0.235-0.569c0.156-0.158,0.345-0.237,0.574-0.237c0.227,0,0.42,0.079,0.583,0.235
					c0.16,0.157,0.241,0.348,0.241,0.571c0,0.257-0.081,0.46-0.241,0.605C295.87,486.382,295.681,486.453,295.465,486.453"/>
				<path style="fill:#FF9B46;" d="M302.82,484.622c0,0.184-0.056,0.382-0.166,0.591c-0.109,0.21-0.279,0.408-0.506,0.597
					c-0.225,0.19-0.507,0.345-0.852,0.459c-0.343,0.115-0.731,0.176-1.159,0.176c-0.915,0-1.63-0.268-2.143-0.8
					c-0.509-0.533-0.767-1.249-0.767-2.145c0-0.608,0.117-1.144,0.353-1.611c0.233-0.464,0.572-0.825,1.016-1.079
					c0.444-0.255,0.978-0.382,1.594-0.382c0.385,0,0.733,0.056,1.056,0.168c0.319,0.111,0.589,0.258,0.813,0.432
					c0.221,0.18,0.391,0.367,0.507,0.566c0.118,0.2,0.175,0.389,0.175,0.564c0,0.174-0.064,0.325-0.195,0.448
					c-0.134,0.123-0.294,0.185-0.478,0.185c-0.125,0-0.228-0.032-0.309-0.094c-0.082-0.064-0.172-0.166-0.273-0.31
					c-0.181-0.273-0.368-0.479-0.568-0.615c-0.195-0.138-0.446-0.206-0.75-0.206c-0.434,0-0.788,0.171-1.056,0.513
					c-0.266,0.339-0.402,0.809-0.402,1.398c0,0.277,0.036,0.535,0.105,0.767c0.067,0.234,0.166,0.432,0.297,0.596
					c0.131,0.165,0.288,0.288,0.471,0.375c0.185,0.086,0.388,0.127,0.607,0.127c0.297,0,0.551-0.068,0.762-0.205
					c0.214-0.138,0.402-0.346,0.563-0.63c0.09-0.165,0.187-0.296,0.289-0.39c0.104-0.092,0.234-0.141,0.386-0.141
					c0.18,0,0.331,0.069,0.447,0.205C302.758,484.32,302.82,484.47,302.82,484.622"/>
				<path style="fill:#FF9B46;" d="M309.201,483.447c0,0.439-0.069,0.847-0.203,1.22c-0.14,0.372-0.337,0.691-0.598,0.957
					c-0.259,0.267-0.571,0.472-0.931,0.616c-0.364,0.141-0.768,0.214-1.22,0.214c-0.447,0-0.85-0.073-1.208-0.219
					c-0.356-0.141-0.668-0.35-0.926-0.617c-0.264-0.272-0.462-0.59-0.601-0.956c-0.13-0.366-0.199-0.773-0.199-1.215
					c0-0.448,0.069-0.859,0.203-1.231c0.138-0.373,0.336-0.691,0.593-0.953c0.256-0.265,0.566-0.467,0.93-0.611
					c0.367-0.142,0.768-0.214,1.208-0.214c0.449,0,0.855,0.072,1.22,0.219c0.365,0.143,0.676,0.35,0.938,0.615
					c0.261,0.271,0.458,0.587,0.592,0.953C309.133,482.598,309.201,483.002,309.201,483.447 M307.716,483.447
					c0-0.604-0.133-1.073-0.398-1.408c-0.263-0.34-0.621-0.507-1.07-0.507c-0.289,0-0.543,0.075-0.764,0.225
					c-0.22,0.149-0.388,0.37-0.509,0.663c-0.118,0.294-0.179,0.635-0.179,1.026c0,0.388,0.058,0.723,0.176,1.011
					c0.119,0.292,0.286,0.513,0.505,0.665c0.22,0.152,0.476,0.23,0.77,0.23c0.449,0,0.806-0.168,1.07-0.508
					C307.583,484.508,307.716,484.04,307.716,483.447"/>
				<path style="fill:#FF9B46;" d="M314.842,483.556v1.965c0,0.313-0.069,0.543-0.209,0.701c-0.143,0.155-0.327,0.233-0.558,0.233
					c-0.224,0-0.406-0.078-0.542-0.233c-0.141-0.158-0.212-0.388-0.212-0.701v-2.354c0-0.373-0.012-0.663-0.037-0.869
					c-0.025-0.203-0.095-0.375-0.205-0.504c-0.113-0.135-0.291-0.2-0.532-0.2c-0.485,0-0.802,0.166-0.956,0.502
					c-0.152,0.329-0.231,0.806-0.231,1.43v1.997c0,0.308-0.07,0.541-0.206,0.699c-0.143,0.156-0.324,0.235-0.549,0.235
					c-0.226,0-0.409-0.079-0.552-0.235c-0.143-0.157-0.215-0.391-0.215-0.699v-4.23c0-0.279,0.063-0.491,0.192-0.634
					c0.13-0.147,0.299-0.219,0.507-0.219c0.204,0,0.371,0.07,0.508,0.203c0.136,0.136,0.203,0.323,0.203,0.561v0.141
					c0.257-0.305,0.533-0.532,0.824-0.674c0.294-0.148,0.617-0.219,0.976-0.219c0.372,0,0.692,0.074,0.958,0.222
					c0.267,0.149,0.486,0.373,0.662,0.671c0.25-0.303,0.517-0.527,0.804-0.674c0.285-0.146,0.6-0.219,0.948-0.219
					c0.402,0,0.752,0.081,1.045,0.237c0.291,0.16,0.509,0.387,0.654,0.682c0.126,0.27,0.188,0.69,0.188,1.265v2.886
					c0,0.313-0.069,0.543-0.21,0.701c-0.139,0.155-0.327,0.233-0.558,0.233c-0.224,0-0.408-0.079-0.549-0.235
					c-0.143-0.157-0.215-0.391-0.215-0.699v-2.487c0-0.318-0.014-0.571-0.04-0.763c-0.027-0.192-0.101-0.353-0.218-0.482
					c-0.121-0.131-0.303-0.197-0.544-0.197c-0.194,0-0.38,0.061-0.557,0.176c-0.174,0.113-0.311,0.272-0.41,0.462
					C314.898,482.482,314.842,482.923,314.842,483.556"/>
			</g>
			<g>
				<path style="fill:#FF9B46;" d="M246.009,483.09c-0.001-0.004-0.001-0.006-0.001-0.01
					C246.008,483.084,246.008,483.086,246.009,483.09z"/>
				<path style="fill:#FF9B46;" d="M246.083,483.562c0.001,0,0.001,0,0.001,0c-0.028-0.135-0.05-0.268-0.067-0.401
					C246.034,483.295,246.056,483.43,246.083,483.562z"/>
				<path style="fill:#FF9B46;" d="M246.572,484.935c-0.003-0.006-0.005-0.013-0.01-0.02
					C246.567,484.921,246.569,484.928,246.572,484.935z"/>
				<path style="fill:#FF9B46;" d="M246.525,484.842c-0.012-0.024-0.024-0.05-0.036-0.075
					C246.501,484.794,246.513,484.819,246.525,484.842z"/>
				<path style="fill:#FF9B46;" d="M246.22,484.091c0.073,0.228,0.16,0.448,0.261,0.66c-0.103-0.217-0.188-0.439-0.258-0.66H246.22z
					"/>
				<path style="fill:#FF9B46;" d="M251.733,477.422c0.286,0,0.496,0.024,0.737,0.064l0.069-0.435c0,0-0.669-0.206-1.546-0.134
					l-0.069-0.237c0.273-0.057,0.478-0.299,0.478-0.589c0-0.333-0.27-0.602-0.602-0.602c-0.334,0-0.603,0.27-0.603,0.602
					c0,0.289,0.205,0.532,0.477,0.589l0.076,0.263c-0.931,0.129-1.673,0.493-1.673,0.493l0.131,0.402
					c0.563-0.188,1.053-0.302,1.496-0.35C251.139,477.443,251.466,477.422,251.733,477.422z"/>
				<path style="fill:#FF9B46;" d="M246.561,479.623l0.002-0.004c0.023-0.03,0.044-0.056,0.066-0.081l-0.179-0.13l-0.277-0.203
					c-0.015,0.022-0.455,0.424-0.799,1.167c-0.014-0.022-0.032-0.045-0.052-0.068c-0.103-0.112-0.249-0.171-0.432-0.167
					c-0.001,0-0.005,0-0.008,0c-0.113,0-0.192-0.038-0.243-0.084c0.05-0.064,0.081-0.147,0.081-0.235
					c0-0.211-0.172-0.383-0.382-0.383c-0.211,0-0.38,0.172-0.38,0.383c0,0.211,0.169,0.38,0.38,0.38c0.034,0,0.064-0.005,0.096-0.01
					c0.093,0.104,0.242,0.195,0.46,0.191c0.112-0.001,0.195,0.027,0.249,0.088c0.064,0.068,0.086,0.169,0.092,0.243
					c-0.001,0.001-0.001,0.004-0.003,0.004c-0.248,0.678-0.177,1.522-0.177,1.522l0.602,0.024c0.012-0.307,0.058-0.845,0.214-1.272
					C246.17,480.161,246.547,479.645,246.561,479.623z"/>
				<path style="fill:#FF9B46;" d="M256.978,477.927c-0.209,0-0.38,0.171-0.38,0.381c0,0.033,0.004,0.064,0.013,0.095
					c-0.105,0.095-0.197,0.243-0.194,0.462c0.002,0.113-0.026,0.194-0.088,0.249c-0.048,0.043-0.109,0.066-0.168,0.08
					c-0.448-0.628-1.001-1.014-1.001-1.014l-0.433,0.465c0.327,0.298,0.66,0.669,0.986,1.135c0.224,0.32,0.455,0.734,0.647,1.148
					l0.584-0.276c0,0-0.266-0.658-0.641-1.251c0.064-0.021,0.13-0.057,0.188-0.108c0.115-0.104,0.171-0.25,0.167-0.433
					c-0.001-0.12,0.037-0.199,0.085-0.252c0.065,0.049,0.146,0.083,0.234,0.083c0.211,0,0.382-0.172,0.382-0.383
					C257.36,478.098,257.189,477.927,256.978,477.927z"/>
				<path style="fill:#FF9B46;" d="M255.463,483.175c-0.804,0.392-2.126,0.908-3.866,1.151c-0.685,0.094-1.346,0.13-1.957,0.13
					c-0.793,0-1.493-0.058-2.031-0.126c-0.614-0.079-1.094-0.173-1.386-0.238c0.07,0.222,0.156,0.444,0.258,0.66
					c0.001,0.006,0.004,0.011,0.007,0.016c0.013,0.025,0.025,0.051,0.036,0.075c0.012,0.027,0.024,0.052,0.037,0.073
					c0.005,0.006,0.007,0.013,0.01,0.02c0.173,0.325,0.38,0.625,0.617,0.883c0.821,0.899,1.657,1.04,1.664,1.041l0.015,0.003
					l0.012,0.005c0.007,0.002,0.75,0.242,1.876,0.242c1.109,0,2.199-0.224,3.235-0.665c0.769-0.393,1.496-0.991,1.856-1.522
					c0.279-0.412,0.48-0.852,0.6-1.309c0.063-0.243,0.114-0.632,0.083-1.04C256.303,482.721,255.947,482.94,255.463,483.175z"/>
				<path style="fill:#FF9B46;" d="M246.82,479.814c-0.024,0.033-0.373,0.527-0.648,1.284c-0.206,0.569-0.197,1.394-0.197,1.404
					v0.001c0,0.193,0.01,0.386,0.032,0.576c0,0.004,0,0.007,0.001,0.01c0.001,0.024,0.006,0.048,0.008,0.072
					c0.016,0.132,0.039,0.266,0.067,0.401c0.399,0.101,2.783,0.657,5.445,0.286c1.67-0.231,2.937-0.725,3.707-1.097
					c0.639-0.311,1.05-0.592,1.208-0.706c-0.158-0.588-0.594-1.507-0.993-2.081c-1.144-1.633-2.378-2.053-3.009-2.157
					c-0.242-0.04-0.435-0.063-0.709-0.063c-0.256,0-0.572,0.021-0.994,0.066c-0.425,0.044-0.897,0.155-1.444,0.339
					c-0.769,0.257-1.464,0.662-2.012,1.168l-0.018,0.016C247.183,479.409,247.014,479.565,246.82,479.814z M253.817,479.433
					c0.547,0,0.994,0.445,0.994,0.994c0,0.547-0.447,0.995-0.994,0.995c-0.549,0-0.994-0.447-0.994-0.995
					C252.822,479.878,253.268,479.433,253.817,479.433z M249.116,479.395c0.889,0,1.607,0.719,1.607,1.605
					c0,0.888-0.719,1.606-1.607,1.606c-0.886,0-1.605-0.718-1.605-1.606C247.511,480.113,248.23,479.395,249.116,479.395z"/>
			</g>
		</g>
	</g>
</g>
</svg>
