<?xml version="1.0" encoding="utf-8"?>
<!-- Generator: Adobe Illustrator 27.5.0, SVG Export Plug-In . SVG Version: 6.00 Build 0)  -->
<svg version="1.1" xmlns="http://www.w3.org/2000/svg" xmlns:xlink="http://www.w3.org/1999/xlink" x="0px" y="0px"
	 viewBox="0 0 500 500" style="enable-background:new 0 0 500 500;" xml:space="preserve">
<g id="Background">
	<rect id="XMLID_1_" style="fill:#FFFDEA;" width="500" height="500"/>
</g>
<g id="Objects">
	<g id="XMLID_115_">
		
			<linearGradient id="XMLID_00000085227624442795649600000001496617718917686462_" gradientUnits="userSpaceOnUse" x1="250.5409" y1="237.7759" x2="260.5411" y2="11.7758" gradientTransform="matrix(-1 0 0 1 500 0)">
			<stop  offset="0" style="stop-color:#532C7F"/>
			<stop  offset="1" style="stop-color:#311B6D"/>
		</linearGradient>
		<polygon id="XMLID_91_" style="fill:url(#XMLID_00000085227624442795649600000001496617718917686462_);" points="0,500 500,500 
			500,0 0,0 		"/>
		<polygon id="XMLID_72_" style="fill:#63368B;" points="0,227.478 181.755,221.491 0,214.909 		"/>
		<polygon id="XMLID_92_" style="fill:#452980;" points="500,18 500,55 209.301,45.667 		"/>
		<polygon id="XMLID_68_" style="fill:#63368B;" points="0,500 500,500 500,222.521 0,245.959 		"/>
		
			<rect id="XMLID_75_" y="277.5" transform="matrix(-1 -1.224647e-16 1.224647e-16 -1 500 777.5005)" style="fill:#C44E7E;" width="500" height="222.499"/>
		<path id="XMLID_121_" style="fill:#843666;" d="M433.632,331.968c-15.326-2.243-30.354-6.821-45.827-7.799
			c-1.665-0.105-3.936-0.23-5.415,0.689c-3.591,2.233,2.32,2.885,3.843,3.049c3.674,0.396,7.382,0.645,11.045,1.123
			c5.616,0.733,11.232,1.465,16.848,2.198c1.53,0.2,3.32,0.585,3.935,2c0.404,0.93,0.155,2.063,0.637,2.955
			c0.646,1.197,2.242,1.412,3.601,1.473c12.136,0.543,24.313,0.16,36.39-1.143c1.24-0.134,2.813-0.266,3.904,0.457
			c3.142,2.084-2.791,3.753-3.37,5.198c-0.882,2.201,3.662,1.534,4.615,1.529c2.736-0.016,5.471-0.128,8.198-0.336
			c3.291-0.25,6.571-0.64,9.829-1.166c2.777-0.449,7.101-0.583,9.395-2.392c2.488-1.962,0.519-4.049-1.749-4.578
			c-3.954-0.923-7.864-2.048-11.863-2.769c-3.855-0.695-7.35-0.105-11.213,0.185c-8.296,0.623-16.412,0.263-24.694,0.263
			C439.025,332.684,436.324,332.362,433.632,331.968z"/>
		<path id="XMLID_134_" style="fill:#843666;" d="M500,288.548c-8.451,0.107-17.255-1.136-24.782-1.474
			c-22.311-1.003-44.634-1.73-66.962-2.18c8.651,4.65,84.539,7.375,72.494,12.565c-8.206,2.877-104.7,4.134-80.25,15.874
			c21.099,10.131-106.767-1.593-71.177,26.426c29.678,23.365-138.788,14.734-162.373,9.241c-30.44-7.09-101.45-6.375-80.783-31.224
			c0.691-1.055,1.667-2.622,2.727-4.342c2.119-3.437-0.662-7.797-4.671-7.325c-22.905,2.698-56.578,2.741-71.722-8.65
			c-8.414-6.329,44.75-13-7.09-17.426c-1.841-0.157-3.608-0.516-5.41-0.458V277.5h500V288.548z"/>
		<path id="XMLID_94_" style="fill:#FF678E;" d="M0,399.125c69.968-11.94,138.586-42.673,209.431-36.727
			c34.586,2.903,67.761,14.473,100.727,25.327c32.966,10.854,66.734,21.18,101.44,21.45c32.015,0.249,65.38-9.205,88.402-31.086V500
			H0V399.125z"/>
		<path id="XMLID_139_" style="fill:#843666;" d="M0,500v-49.172c28.111,9.828,58.952,13.314,88.825,12.173
			c52.178-1.993,102.936-16.458,153.929-27.694c50.993-11.235,104.126-19.283,155.196-8.402
			c38.049,8.107,73.605,27.044,102.05,53.553V500H0z"/>
		<path id="XMLID_170_" style="fill:#843666;" d="M456.613,320.491c1.868,0.021,3.861,0.008,5.421-1.019
			c1.56-1.027,2.316-3.474,0.988-4.787c-1.898-1.877-6.36-0.295-7.005-2.886c-0.558-2.244,2.843-3.079,5.137-2.783
			c9.458,1.222,20.008,4.022,29.529,3.533c3.158-0.162,6.246-0.47,9.318-0.776v16.894c-1.925-0.567-3.858-1.105-5.823-1.5
			c-10-2.008-20.313-0.286-30.502,0.187c-10.189,0.473-21.179-0.602-29.029-7.115C441.968,320.323,449.291,320.407,456.613,320.491z
			"/>
		<path id="XMLID_330_" style="fill:#843666;" d="M89.105,323.091c-17.26-1.937-35.378-2.144-52.819-0.613
			c-3.524,0.309-7.153,0.69-10.631,0.016c-1.974-0.383-3.57-1.156-3.99-2.144c-1.11-2.611,6.164-4.044,11.736-4.051
			c4.833-0.005,10.734,0.033,13.753-1.527c0.688-0.355,0.216-0.937-0.788-1.019c-5.989-0.487-25.035-1.325-46.867-1.809v21.066
			c36.795-1.76,62.013-3.561,87.221-5.363c2.675-0.191,5.875-0.575,6.311-1.955C93.409,324.496,91.598,323.371,89.105,323.091z"/>
	</g>
	<g id="XMLID_79_">
		<polygon id="XMLID_81_" style="fill:#6B2654;" points="468.333,297.258 360.333,202.959 319.09,304.194 		"/>
		<polygon id="XMLID_80_" style="fill:#D95793;" points="360.333,202.959 319.09,304.194 265.667,296.556 		"/>
		<polygon id="XMLID_144_" style="fill:#EEAA9D;" points="360.333,202.959 319.09,304.194 318.25,303.776 		"/>
	</g>
	<g id="XMLID_104_">
		<g id="XMLID_67_">
			<polygon id="XMLID_69_" style="fill:#843666;" points="394,308.959 261.988,188.959 211.5,308.959 			"/>
			<polygon id="XMLID_105_" style="fill:#6B2654;" points="250,230.459 249.551,231.709 280.25,231.834 281,236.459 281,231.459 
				301.25,231.459 			"/>
			<polygon id="XMLID_108_" style="fill:#6B2654;" points="244.882,245.959 244.551,247.209 267.16,247.334 267.712,251.959 
				267.712,246.959 309.333,247.126 309.333,246.626 			"/>
			<polygon id="XMLID_117_" style="fill:#6B2654;" points="242.05,269.875 241.719,271.125 264.327,271.25 264.879,275.875 
				264.879,270.875 306.501,271.042 306.501,270.542 			"/>
			<polygon id="XMLID_111_" style="fill:#6B2654;" points="285.981,257.193 285.657,258.445 308.266,258.444 308.844,263.066 
				308.816,258.066 323.729,257.983 			"/>
			<polygon id="XMLID_119_" style="fill:#6B2654;" points="303.293,283.889 302.97,285.141 325.578,285.14 326.156,289.762 
				326.128,284.762 341.041,284.678 			"/>
			<polygon id="XMLID_133_" style="fill:#6B2654;" points="211.5,308.959 394,308.959 388.298,303.776 268.802,303.776 
				230.125,264.691 			"/>
			<polygon id="XMLID_74_" style="fill:#D4618A;" points="261.988,188.959 211.5,308.959 141,298.459 			"/>
			<polygon id="XMLID_130_" style="fill:#EEAA9D;" points="261.988,188.959 211.5,308.959 210.204,308.766 			"/>
		</g>
		<polygon id="XMLID_102_" style="fill:#6B2654;" points="230.125,217.797 240.542,218.167 245.688,217.797 250,217.453 
			261.988,188.959 		"/>
		<polygon id="XMLID_71_" style="fill:#6B2654;" points="261.988,188.959 250,217.453 257.5,218.709 271.313,222.521 
			295.715,219.617 		"/>
		<polygon id="XMLID_98_" style="fill:#FF678E;" points="230.125,217.797 241,217.797 246.057,217.209 250,216.803 261.988,188.959 
					"/>
		<polygon id="XMLID_138_" style="fill:#EEAA9D;" points="249.551,216.849 249.551,216.849 250,216.803 250,216.803 
			261.988,188.959 		"/>
		<polygon id="XMLID_99_" style="fill:#D4618A;" points="261.988,188.959 250,216.803 257.667,217.797 271.181,221.959 
			295.328,219.265 		"/>
	</g>
	<g id="XMLID_76_">
		<polygon id="XMLID_78_" style="fill:#843666;" points="285.667,324.959 184.997,221.959 139.167,333.042 		"/>
		<polygon id="XMLID_77_" style="fill:#FF678E;" points="184.997,221.959 139.167,333.042 91.852,324.531 		"/>
		<polygon id="XMLID_124_" style="fill:#EEAA9D;" points="184.997,221.959 139.167,333.042 138.424,333.042 		"/>
	</g>
	<g id="XMLID_82_">
		<polygon id="XMLID_84_" style="fill:#6B2654;" points="313,335.334 271.181,297.459 255.875,338.092 		"/>
		<polygon id="XMLID_83_" style="fill:#FF678E;" points="271.181,297.459 255.875,338.092 230.125,333.834 		"/>
	</g>
	<g id="XMLID_85_">
		<polygon id="XMLID_87_" style="fill:#6B2654;" points="212.417,337 171.833,299.125 152.667,339.759 		"/>
		<polygon id="XMLID_86_" style="fill:#FF678E;" points="171.833,299.125 152.667,339.759 130.607,335.697 		"/>
	</g>
	<g id="XMLID_88_">
		<polygon id="XMLID_90_" style="fill:#6B2654;" points="126.497,339.063 83.833,299.959 59.667,342.625 		"/>
		<polygon id="XMLID_89_" style="fill:#FF678E;" points="83.833,299.959 59.667,342.625 43.5,338.092 		"/>
	</g>
	<g id="XMLID_103_">
		<path id="XMLID_101_" style="fill:#D4618A;" d="M35.158,278.636c0.941-1.843,0.86-4.016,1.244-6.049
			c0.384-2.033,1.574-4.232,3.618-4.551c2.278-0.355,4.806,1.76,6.709,0.46c1.472-1.006,1.245-3.234,2.057-4.822
			c0.99-1.936,3.591-2.672,5.65-1.97c2.058,0.702,3.566,2.544,4.385,4.559c0.819,2.015,1.046,4.213,1.265,6.376
			c0.217,2.148,0.385,4.502-0.842,6.278c-1.157,1.675-3.254,2.385-5.229,2.895c-7.199,1.856-14.726,2.414-22.121,1.653
			c-1.741-0.179-5.739-0.53-3.001-1.982C31.131,280.295,33.69,281.513,35.158,278.636z"/>
		<path id="XMLID_100_" style="fill:#843666;" d="M54.163,275.204c6.312-2.987,8.81-9.774,7-16.518
			c-0.659-4.942,12.765-4.609,15.154-1.8c2.389,2.808,0.591,9.27,2.448,12.456c3.681,6.316,10.992,9.435,17.91,11.795
			c-8.598,1.599-21.365-0.729-30.002-0.563c-5.94,0.115-23.848,3.926-27.625-0.339C43.864,278.121,49.323,277.495,54.163,275.204z"
			/>
	</g>
	<g id="XMLID_140_">
		<path id="XMLID_143_" style="fill:#D4618A;" d="M459.329,280.716c0.581-1.139,0.532-2.482,0.769-3.739
			c0.237-1.257,0.973-2.616,2.236-2.813c1.408-0.219,2.97,1.088,4.147,0.284c0.91-0.622,0.77-1.999,1.271-2.98
			c0.612-1.197,2.22-1.651,3.492-1.217c1.272,0.434,2.204,1.572,2.71,2.817c0.506,1.245,0.647,2.604,0.782,3.941
			c0.134,1.327,0.238,2.782-0.52,3.88c-0.715,1.036-2.011,1.474-3.231,1.789c-4.449,1.147-9.102,1.492-13.672,1.022
			c-1.076-0.111-3.547-0.327-1.855-1.225C456.84,281.741,458.422,282.493,459.329,280.716z"/>
		<path id="XMLID_142_" style="fill:#843666;" d="M471.075,278.594c3.901-1.846,5.445-6.04,4.326-10.209
			c-0.407-3.054,7.889-2.849,9.366-1.113c1.477,1.736,0.365,5.729,1.513,7.698c2.275,3.903,6.793,5.831,11.069,7.29
			c-5.314,0.988-13.204-0.451-18.543-0.348c-3.671,0.071-14.739,2.427-17.074-0.209C464.71,280.397,468.084,280.01,471.075,278.594z
			"/>
	</g>
	<g id="XMLID_191_">
		<g id="XMLID_1568_">
			<g id="XMLID_1693_">
				<g id="XMLID_1694_">
					<path id="XMLID_1704_" style="fill:#843666;" d="M44.244,430.455c2.02-0.396,3.954-1.06,5.741-2.203
						C47.799,427.693,46.012,428.906,44.244,430.455z"/>
					<path id="XMLID_1703_" style="fill:#843666;" d="M23.068,431.882c-2.959-0.315-6.526,0.446-8.847,2.409
						c-0.458,0.388-3.685,4.793-2.622,4.248c6.494-3.325,13.994-4.653,21.236-3.761c1.73,0.213,3.508,0.547,5.192,0.096
						c2.38-0.638,4.288-2.728,6.218-4.419C37.542,431.771,29.854,430.007,23.068,431.882z"/>
					<path id="XMLID_1702_" style="fill:#843666;" d="M52.077,422.374c0.341,0.137,0.669,0.001,0.873-0.338
						C52.865,422.175,52.259,421.971,52.077,422.374z"/>
					<path id="XMLID_1701_" style="fill:#843666;" d="M41.045,425.551c3.238-0.886,6.477-1.771,9.715-2.657l-1.162-0.108
						C46.746,423.707,43.896,424.629,41.045,425.551z"/>
					<path id="XMLID_1700_" style="fill:#843666;" d="M51.579,422.97c0.022-0.118,0.068-0.226,0.116-0.332
						c-0.312,0.085-0.623,0.171-0.935,0.256L51.579,422.97z"/>
					<path id="XMLID_1699_" style="fill:#843666;" d="M55.715,422.138c2.766-1.527,5.694-2.62,8.689-3.53
						c1.922-0.584,3.871-1.093,5.822-1.593c4.03-0.908,8.104-1.979,12.047-3.167C75.604,414.947,59.165,415.778,55.715,422.138z"/>
					<path id="XMLID_1698_" style="fill:#843666;" d="M54.794,431.323c6.833-3.478,13.713-6.864,20.636-10.156l-2.601,0.008
						C65.857,422.229,59.314,425.911,54.794,431.323z"/>
					<path id="XMLID_1697_" style="fill:#843666;" d="M85.526,416.4l2.079,1.179c-0.474,0.347-0.947,0.694-1.42,1.04
						c1.819-0.905,4.042-1.116,6.118-1.026c2.898,0.126,5.847,0.675,8.665-0.01c2.819-0.685,5.517-3.135,5.218-6.02
						C99.299,413.175,92.413,414.787,85.526,416.4z"/>
					<path id="XMLID_1696_" style="fill:#843666;" d="M129.111,401.004c-1.733-1.257-4.253-0.325-5.786,1.17
						c-1.416,1.381-2.398,3.172-3.83,4.526c1.857-0.48,3.714-0.961,5.572-1.441C125.522,404.577,128.656,401.686,129.111,401.004z"
						/>
					<path id="XMLID_1695_" style="fill:#843666;" d="M110.907,413.512l19.999-3.393
						C124.13,408.705,116.837,409.942,110.907,413.512z"/>
				</g>
			</g>
			<g id="XMLID_1681_">
				<g id="XMLID_1682_">
					<path id="XMLID_1692_" style="fill:#843666;" d="M161.268,404.34c1.133-0.055,2.24-0.263,3.306-0.743
						C163.426,403.117,162.355,403.637,161.268,404.34z"/>
					<path id="XMLID_1691_" style="fill:#843666;" d="M149.609,403.429c-1.588-0.408-3.594-0.278-5.016,0.608
						c-0.281,0.175-2.391,2.319-1.768,2.107c3.806-1.295,8.001-1.421,11.878-0.357c0.926,0.254,1.869,0.578,2.823,0.466
						c1.349-0.158,2.555-1.146,3.742-1.913C157.509,404.523,153.458,402.948,149.609,403.429z"/>
					<path id="XMLID_1690_" style="fill:#843666;" d="M166.182,400.559c0.175,0.102,0.365,0.054,0.503-0.115
						C166.628,400.513,166.314,400.353,166.182,400.559z"/>
					<path id="XMLID_1689_" style="fill:#843666;" d="M159.914,401.411c1.836-0.224,3.672-0.449,5.508-0.674l-0.625-0.152
						C163.17,400.861,161.542,401.136,159.914,401.411z"/>
					<path id="XMLID_1688_" style="fill:#843666;" d="M165.863,400.844c0.021-0.063,0.055-0.118,0.09-0.172
						c-0.177,0.022-0.353,0.043-0.53,0.065L165.863,400.844z"/>
					<path id="XMLID_1687_" style="fill:#843666;" d="M168.185,400.72c1.63-0.612,3.313-0.974,5.019-1.232
						c1.094-0.165,2.198-0.287,3.301-0.404c2.27-0.174,4.576-0.432,6.82-0.766C179.602,398.386,170.573,397.528,168.185,400.72z"/>
					<path id="XMLID_1686_" style="fill:#843666;" d="M166.95,405.654c4.003-1.351,8.023-2.648,12.061-3.891l-1.419-0.203
						C173.707,401.579,169.846,403.064,166.95,405.654z"/>
					<path id="XMLID_1685_" style="fill:#843666;" d="M184.895,399.969l1.039,0.809c-0.286,0.151-0.572,0.303-0.857,0.454
						c1.064-0.349,2.293-0.286,3.417-0.071c1.57,0.3,3.134,0.834,4.725,0.686s3.258-1.269,3.325-2.866
						C192.662,399.31,188.779,399.639,184.895,399.969z"/>
					<path id="XMLID_1684_" style="fill:#843666;" d="M209.886,395.052c-0.845-0.824-2.293-0.516-3.248,0.177
						c-0.882,0.64-1.56,1.538-2.449,2.162c1.051-0.114,2.102-0.228,3.153-0.342C207.644,396.713,209.583,395.387,209.886,395.052z"
						/>
					<path id="XMLID_1683_" style="fill:#843666;" d="M198.964,400.419l11.174-0.255
						C206.556,398.853,202.481,398.946,198.964,400.419z"/>
				</g>
			</g>
			<g id="XMLID_1669_">
				<g id="XMLID_1670_">
					<path id="XMLID_1680_" style="fill:#843666;" d="M248.161,392.711c0.857-0.042,1.694-0.199,2.5-0.562
						C249.794,391.786,248.984,392.179,248.161,392.711z"/>
					<path id="XMLID_1679_" style="fill:#843666;" d="M239.343,392.022c-1.201-0.309-2.718-0.21-3.793,0.46
						c-0.212,0.132-1.809,1.754-1.337,1.594c2.879-0.979,6.051-1.075,8.984-0.27c0.7,0.192,1.414,0.437,2.135,0.353
						c1.02-0.119,1.933-0.866,2.831-1.447C245.318,392.849,242.254,391.659,239.343,392.022z"/>
					<path id="XMLID_1678_" style="fill:#843666;" d="M251.878,389.851c0.133,0.077,0.276,0.041,0.38-0.087
						C252.216,389.817,251.978,389.696,251.878,389.851z"/>
					<path id="XMLID_1677_" style="fill:#843666;" d="M247.138,390.496c1.389-0.17,2.778-0.34,4.166-0.509l-0.473-0.115
						C249.6,390.08,248.369,390.288,247.138,390.496z"/>
					<path id="XMLID_1676_" style="fill:#843666;" d="M251.637,390.067c0.016-0.047,0.042-0.089,0.068-0.13
						c-0.134,0.016-0.267,0.033-0.401,0.049L251.637,390.067z"/>
					<path id="XMLID_1675_" style="fill:#843666;" d="M253.393,389.973c1.233-0.463,2.506-0.737,3.796-0.932
						c0.828-0.125,1.662-0.217,2.497-0.306c1.717-0.131,3.461-0.327,5.158-0.579C262.028,388.208,255.199,387.559,253.393,389.973z"
						/>
					<path id="XMLID_1674_" style="fill:#843666;" d="M252.459,393.705c3.027-1.022,6.068-2.003,9.122-2.943l-1.073-0.154
						C257.57,390.623,254.649,391.746,252.459,393.705z"/>
					<path id="XMLID_1673_" style="fill:#843666;" d="M266.032,389.405l0.786,0.612c-0.216,0.115-0.432,0.229-0.648,0.343
						c0.805-0.264,1.734-0.217,2.585-0.054c1.187,0.227,2.37,0.631,3.574,0.518c1.204-0.113,2.464-0.96,2.515-2.168
						C271.906,388.906,268.969,389.156,266.032,389.405z"/>
					<path id="XMLID_1672_" style="fill:#843666;" d="M284.933,385.686c-0.639-0.623-1.734-0.39-2.456,0.134
						c-0.667,0.484-1.18,1.163-1.852,1.635c0.795-0.086,1.59-0.172,2.384-0.258C283.238,386.943,284.704,385.94,284.933,385.686z"/>
					<path id="XMLID_1671_" style="fill:#843666;" d="M276.672,389.746l8.451-0.193
						C282.415,388.561,279.333,388.631,276.672,389.746z"/>
				</g>
			</g>
			<g id="XMLID_1657_">
				<g id="XMLID_1658_">
					<path id="XMLID_1668_" style="fill:#A95184;" d="M314.589,381.801c0.579-0.028,1.144-0.134,1.688-0.379
						C315.691,381.177,315.144,381.442,314.589,381.801z"/>
					<path id="XMLID_1667_" style="fill:#A95184;" d="M308.635,381.336c-0.811-0.208-1.835-0.142-2.561,0.31
						c-0.143,0.089-1.221,1.184-0.903,1.076c1.944-0.661,4.086-0.726,6.065-0.182c0.473,0.13,0.955,0.295,1.442,0.238
						c0.689-0.081,1.305-0.585,1.911-0.977C312.67,381.894,310.601,381.09,308.635,381.336z"/>
					<path id="XMLID_1666_" style="fill:#A95184;" d="M317.099,379.87c0.09,0.052,0.186,0.028,0.257-0.059
						C317.327,379.847,317.166,379.765,317.099,379.87z"/>
					<path id="XMLID_1665_" style="fill:#A95184;" d="M313.898,380.305c0.938-0.115,1.875-0.229,2.813-0.344l-0.319-0.077
						C315.561,380.024,314.729,380.165,313.898,380.305z"/>
					<path id="XMLID_1664_" style="fill:#A95184;" d="M316.936,380.016c0.011-0.032,0.028-0.06,0.046-0.088
						c-0.09,0.011-0.181,0.022-0.271,0.033L316.936,380.016z"/>
					<path id="XMLID_1663_" style="fill:#A95184;" d="M318.121,379.952c0.832-0.313,1.692-0.497,2.563-0.629
						c0.559-0.084,1.122-0.147,1.686-0.206c1.159-0.089,2.337-0.221,3.483-0.391C323.952,378.76,319.341,378.322,318.121,379.952z"
						/>
					<path id="XMLID_1662_" style="fill:#A95184;" d="M317.491,382.472c2.044-0.69,4.097-1.352,6.159-1.987l-0.724-0.104
						C320.941,380.391,318.97,381.149,317.491,382.472z"/>
					<path id="XMLID_1661_" style="fill:#A95184;" d="M326.655,379.569l0.531,0.413c-0.146,0.077-0.292,0.155-0.438,0.232
						c0.543-0.178,1.171-0.146,1.745-0.036c0.802,0.153,1.6,0.426,2.413,0.35c0.813-0.076,1.664-0.648,1.698-1.464
						C330.621,379.232,328.638,379.401,326.655,379.569z"/>
					<path id="XMLID_1660_" style="fill:#A95184;" d="M339.417,377.058c-0.431-0.421-1.171-0.264-1.658,0.09
						c-0.451,0.327-0.797,0.785-1.25,1.104c0.537-0.058,1.073-0.116,1.61-0.174C338.272,377.906,339.262,377.229,339.417,377.058z"
						/>
					<path id="XMLID_1659_" style="fill:#A95184;" d="M333.839,379.798l5.706-0.13C337.716,378.999,335.635,379.046,333.839,379.798
						z"/>
				</g>
			</g>
			<g id="XMLID_1645_">
				<g id="XMLID_1646_">
					<path id="XMLID_1656_" style="fill:#A95184;" d="M351.611,377c0.506-0.024,1-0.117,1.476-0.332
						C352.574,376.454,352.096,376.686,351.611,377z"/>
					<path id="XMLID_1655_" style="fill:#A95184;" d="M346.407,376.593c-0.709-0.182-1.604-0.124-2.239,0.271
						c-0.125,0.078-1.067,1.035-0.789,0.94c1.699-0.578,3.571-0.634,5.302-0.159c0.413,0.113,0.834,0.258,1.26,0.208
						c0.602-0.07,1.141-0.511,1.67-0.854C349.934,377.081,348.125,376.379,346.407,376.593z"/>
					<path id="XMLID_1654_" style="fill:#A95184;" d="M353.805,375.312c0.078,0.046,0.163,0.024,0.224-0.051
						C354.004,375.292,353.863,375.22,353.805,375.312z"/>
					<path id="XMLID_1653_" style="fill:#A95184;" d="M351.007,375.692c0.82-0.1,1.639-0.201,2.459-0.301l-0.279-0.068
						C352.46,375.447,351.734,375.57,351.007,375.692z"/>
					<path id="XMLID_1652_" style="fill:#A95184;" d="M353.663,375.439c0.009-0.028,0.025-0.052,0.04-0.077
						c-0.079,0.01-0.158,0.019-0.237,0.029L353.663,375.439z"/>
					<path id="XMLID_1651_" style="fill:#A95184;" d="M354.699,375.384c0.727-0.273,1.479-0.435,2.24-0.55
						c0.488-0.074,0.981-0.128,1.474-0.18c1.013-0.078,2.043-0.193,3.044-0.342C359.795,374.342,355.765,373.959,354.699,375.384z"
						/>
					<path id="XMLID_1650_" style="fill:#A95184;" d="M354.147,377.586c1.787-0.603,3.581-1.182,5.384-1.737l-0.633-0.091
						C357.163,375.767,355.44,376.43,354.147,377.586z"/>
					<path id="XMLID_1649_" style="fill:#A95184;" d="M362.158,375.049l0.464,0.361c-0.127,0.068-0.255,0.135-0.383,0.203
						c0.475-0.156,1.023-0.128,1.525-0.032c0.701,0.134,1.399,0.372,2.109,0.306c0.71-0.066,1.454-0.566,1.484-1.279
						C365.624,374.754,363.891,374.902,362.158,375.049z"/>
					<path id="XMLID_1648_" style="fill:#A95184;" d="M373.312,372.854c-0.377-0.368-1.023-0.23-1.45,0.079
						c-0.394,0.286-0.697,0.687-1.093,0.965c0.469-0.051,0.938-0.102,1.407-0.152C372.311,373.595,373.177,373.004,373.312,372.854z
						"/>
					<path id="XMLID_1647_" style="fill:#A95184;" d="M368.437,375.25l4.987-0.114C371.826,374.551,370.007,374.592,368.437,375.25z
						"/>
				</g>
			</g>
			<g id="XMLID_1625_">
				<g id="XMLID_1626_">
					<g id="XMLID_1637_">
						<g id="XMLID_1638_">
							<g id="XMLID_1643_">
								<path id="XMLID_1644_" style="fill:#3A0C4A;" d="M210.984,370.669c0.023-0.187,1.79,0.283,1.79,0.283l0.188-0.801h0.659
									c0,0-0.33-2.072-1.319-2.402c-0.989-0.33-2.873,0-2.873,0s-1.837-1.131-1.978-1.131c-0.141,0-2.308,0.141-2.873,0.707
									c-0.565,0.565-2.355,5.181-3.58,5.558c-1.225,0.377-7.489,0.989-10.551-5.746c0,0-3.58-1.507-8.431,0.377
									c-4.851,1.884-6.783-0.236-8.196,0.612c-1.413,0.848-0.471,4.569-0.471,4.569s-3.203,2.167-4.522,3.909
									c-1.319,1.743,0.141,4.616-0.895,6.688c-1.036,2.072-1.79,4.946-2.496,6.359c-0.706,1.413-2.402,2.967-2.543,3.486
									s0.659,10.08,0.942,10.692c0.283,0.612,4.333,0.141,3.862-0.236c-0.471-0.377-1.978-0.565-2.355-1.083
									s-1.79-4.851,0.377-8.431c2.167-3.58,10.174-8.196,10.457-11.681c0,0,7.684,0.908,12.073-1.053c0,0,1.421,6.093,0.785,8.495
									c-0.636,2.402,0.777,9.114,0.848,9.326c0.071,0.212,2.897,0.353,2.967-0.071c0.071-0.424-1.978-1.413-2.049-1.978
									c-0.071-0.565-0.353-4.027,0.141-5.228c0.495-1.201-0.141-2.543,0.777-5.44c0.919-2.897,3.25-6.712,3.957-7.489
									c0.706-0.777,4.663,0.989,9.185-2.897c0,0,2.19,0.918,3.815-3.038C208.676,373.024,210.6,373.73,210.984,370.669z"/>
							</g>
							<g id="XMLID_1641_">
								<path id="XMLID_1642_" style="fill:#3A0C4A;" d="M172.291,385.345c0,0-0.212,7.603-0.494,8.875
									c-0.283,1.272,4.875,5.158,5.794,6.924c0.494,0,3.25,0.565,3.462,0c0.212-0.565-2.543-0.848-3.038-1.342
									c-0.495-0.495-2.967-3.462-3.321-5.087c-0.353-1.625,3.25-9.713,1.731-13.37
									C174.905,377.687,171.386,383.893,172.291,385.345z"/>
							</g>
							<g id="XMLID_1639_">
								<path id="XMLID_1640_" style="fill:#3A0C4A;" d="M184.513,381.344c0.495,0.229,7.418,6.587,7.56,7.153
									c0.141,0.565-3.549,6.147-3.823,6.783c-0.274,0.636,2.195,3.33,2.552,2.826c0.356-0.504-0.145-2.347,0.212-3.886
									c0.918-3.957,4.239-3.674,2.826-5.793c-1.413-2.12-5.158-9.043-5.158-9.043"/>
							</g>
						</g>
					</g>
					<g id="XMLID_1635_">
						<path id="XMLID_1636_" style="fill:#3A0C4A;" d="M168.992,376.916c0,0-4.37,2.019-2.331,9.677l1.935-2.373
							c0,0-2.56-3.642,0.396-6.306"/>
					</g>
					<g id="XMLID_1633_">
						<path id="XMLID_1634_" style="fill:#3A0C4A;" d="M220.355,379.726c-3.653-0.33-7.798-2.458-9.416-9.803l-0.387,0.5
							c0,0,1.783,9.308,9.802,9.669V379.726z"/>
					</g>
					<g id="XMLID_1631_">
						<path id="XMLID_1632_" style="fill:#3A0C4A;" d="M223.204,389.17c0.261-0.661,0.379-1.375,0.339-2.084l0.813-0.135
							l-3.814-10.061l-0.7-0.541c0,0,0.89-1.806,1.181-2.491c0.292-0.685,0.922-2.642-1.316-2.421c0,0-1.87,0.782-2.006,1.291
							c-0.135,0.509-0.383,3.276-0.383,3.276s-0.987,0.228-1.18,1.157c-0.193,0.929-0.074,5.592,0.362,5.899
							c0.436,0.307,0.778,0.453,0.778,0.453s0.623,4.716,0.399,5.147c-0.224,0.431-4.038,7.587-4.038,7.587s7.88,2.018,10.705,1.845
							C224.346,398.091,223.945,393.688,223.204,389.17z"/>
					</g>
					<g id="XMLID_1629_">
						<path id="XMLID_1630_" style="fill:#3A0C4A;" d="M215.152,396.45c-0.055-0.097-0.115-0.198-0.212-0.253
							c-0.097-0.055-0.242-0.043-0.295,0.056c-0.075,0.14,0.083,0.289,0.221,0.368c1.016,0.582,2.115,1.006,3.214,1.41
							c-0.488-0.828-1.276-1.474-2.183-1.791"/>
					</g>
					<g id="XMLID_1627_">
						<path id="XMLID_1628_" style="fill:#3A0C4A;" d="M223.092,398.51c-0.654,0.219-1.396,0.158-2.006-0.164
							c-0.295-0.156-1.721-1.515-0.72-1.416c0.386,0.038,0.993,0.573,1.333,0.77C222.163,397.969,222.628,398.24,223.092,398.51z"/>
					</g>
				</g>
			</g>
			<g id="XMLID_1607_">
				<g id="XMLID_1608_">
					<g id="XMLID_1613_">
						<g id="XMLID_1614_">
							<g id="XMLID_1623_">
								<path id="XMLID_1624_" style="fill:#3A0C4A;" d="M277.127,362.413c0.02-0.158,1.51,0.239,1.51,0.239l0.159-0.676h0.556
									c0,0-0.278-1.748-1.113-2.027s-2.424,0-2.424,0s-1.55-0.954-1.669-0.954c-0.119,0-1.947,0.119-2.424,0.596
									c-0.477,0.477-1.987,4.371-3.02,4.689c-1.033,0.318-6.318,0.835-8.901-4.848c0,0-3.02-1.272-7.113,0.318
									c-4.093,1.59-5.722-0.199-6.914,0.517s-0.397,3.855-0.397,3.855s-2.702,1.828-3.815,3.298
									c-1.113,1.47,0.119,3.894-0.755,5.643c-0.874,1.748-1.51,4.172-2.106,5.365c-0.596,1.192-2.027,2.503-2.146,2.941
									c-0.119,0.437,0.556,8.504,0.795,9.02c0.238,0.517,3.656,0.119,3.258-0.199c-0.397-0.318-1.669-0.477-1.987-0.914
									c-0.318-0.437-1.51-4.093,0.318-7.113c1.828-3.02,8.583-6.914,8.822-9.855c0,0,6.483,0.766,10.186-0.888
									c0,0,1.199,5.14,0.663,7.167s0.656,7.689,0.715,7.868c0.06,0.179,2.444,0.298,2.503-0.06s-1.669-1.192-1.729-1.669
									s-0.298-3.398,0.119-4.411c0.417-1.013-0.119-2.146,0.656-4.59c0.775-2.444,2.742-5.663,3.338-6.318
									c0.596-0.656,3.934,0.835,7.749-2.444c0,0,1.848,0.775,3.219-2.563C275.18,364.4,276.803,364.996,277.127,362.413z"/>
							</g>
							<g id="XMLID_1621_">
								<path id="XMLID_1622_" style="fill:#3A0C4A;" d="M286.584,384.839c-0.552,0.185-1.178,0.133-1.693-0.139
									c-0.249-0.131-1.452-1.278-0.608-1.195c0.325,0.032,0.838,0.483,1.124,0.65C285.8,384.383,286.192,384.611,286.584,384.839z
									"/>
							</g>
							<g id="XMLID_1619_">
								<path id="XMLID_1620_" style="fill:#3A0C4A;" d="M279.354,383.77c-0.019-0.327,0.179-0.624,0.367-0.892
									c1.135-1.62,2.296-3.435,2.122-5.406c-0.077-0.881-0.421-1.717-0.564-2.59c-0.142-0.873-0.035-1.874,0.622-2.465
									c-0.648,0.002-1.162-0.619-1.263-1.259c-0.102-0.64,0.107-1.284,0.327-1.893c0.333-0.923,0.879-1.978,1.856-2.075
									c-0.124-0.645-0.216-1.317-0.055-1.954c0.161-0.637,0.631-1.236,1.275-1.367c0.644-0.131,1.395,0.371,1.371,1.028
									c-0.012,0.332-0.202,0.632-0.266,0.958c-0.125,0.636,0.235,1.252,0.514,1.838c0.453,0.951,1.199,3.083,1.143,4.134
									c-0.059,1.119-0.699,0.319-0.762,1.438c-0.086,1.517,0.225,3.777,0.64,5.238c0.415,1.461,0.668,3.09-0.005,4.452
									c-0.211,0.427-0.529,0.828-0.972,1.006c-0.574,0.231-1.222,0.048-1.812-0.138c0.111-1.096-0.777-2.197-1.872-2.32
									c-0.055,0.691-0.952,0.988-1.235,1.621c-0.227,0.507,0.437,1.21-0.109,1.52C280.178,384.924,279.382,384.259,279.354,383.77
									z"/>
							</g>
							<g id="XMLID_1617_">
								<path id="XMLID_1618_" style="fill:#3A0C4A;" d="M244.482,374.794c0,0-0.179,6.415-0.417,7.487
									c-0.239,1.073,4.113,4.351,4.888,5.842c0.417,0,2.742,0.477,2.921,0c0.179-0.477-2.146-0.715-2.563-1.133
									c-0.417-0.417-2.503-2.921-2.802-4.292c-0.298-1.371,2.742-8.195,1.461-11.28
									C246.688,368.334,243.719,373.569,244.482,374.794z"/>
							</g>
							<g id="XMLID_1615_">
								<path id="XMLID_1616_" style="fill:#3A0C4A;" d="M254.794,371.419c0.417,0.193,6.259,5.558,6.378,6.034
									c0.119,0.477-2.994,5.186-3.226,5.722c-0.232,0.536,1.852,2.81,2.153,2.384c0.301-0.426-0.123-1.98,0.179-3.278
									c0.775-3.338,3.576-3.099,2.384-4.888c-1.192-1.788-4.351-7.63-4.351-7.63"/>
							</g>
						</g>
					</g>
					<g id="XMLID_1611_">
						<path id="XMLID_1612_" style="fill:#3A0C4A;" d="M241.699,367.683c0,0-3.687,1.703-1.967,8.165l1.633-2.002
							c0,0-2.16-3.073,0.334-5.32"/>
					</g>
					<g id="XMLID_1609_">
						<path id="XMLID_1610_" style="fill:#3A0C4A;" d="M285.033,370.054c-3.082-0.279-6.578-2.073-7.944-8.27l-0.326,0.421
							c0,0,1.504,7.853,8.27,8.157V370.054z"/>
					</g>
				</g>
			</g>
			<g id="XMLID_1589_">
				<g id="XMLID_1590_">
					<g id="XMLID_1595_">
						<g id="XMLID_1596_">
							<g id="XMLID_1605_">
								<path id="XMLID_1606_" style="fill:#3A0C4A;" d="M372.995,357.591c0.014-0.111,1.064,0.168,1.064,0.168l0.112-0.476h0.392
									c0,0-0.196-1.233-0.784-1.429c-0.588-0.196-1.709,0-1.709,0s-1.092-0.672-1.177-0.672c-0.084,0-1.373,0.084-1.709,0.42
									c-0.336,0.336-1.401,3.081-2.129,3.305c-0.728,0.224-4.454,0.588-6.275-3.417c0,0-2.129-0.896-5.014,0.224
									c-2.885,1.12-4.034-0.14-4.874,0.364c-0.84,0.504-0.28,2.717-0.28,2.717s-1.905,1.289-2.689,2.325
									c-0.784,1.036,0.084,2.745-0.532,3.978c-0.616,1.232-1.065,2.941-1.485,3.782c-0.42,0.84-1.429,1.765-1.513,2.073
									c-0.084,0.308,0.392,5.995,0.56,6.359c0.168,0.364,2.577,0.084,2.297-0.14c-0.28-0.224-1.177-0.336-1.401-0.644
									c-0.224-0.308-1.065-2.885,0.224-5.014c1.289-2.129,6.051-4.874,6.219-6.947c0,0,4.57,0.54,7.18-0.626
									c0,0,0.845,3.624,0.467,5.052c-0.378,1.429,0.462,5.421,0.504,5.546c0.042,0.126,1.723,0.21,1.765-0.042
									s-1.177-0.84-1.219-1.176c-0.042-0.336-0.21-2.395,0.084-3.11c0.294-0.714-0.084-1.513,0.462-3.235
									c0.546-1.723,1.933-3.992,2.353-4.454c0.42-0.462,2.773,0.588,5.463-1.723c0,0,1.302,0.546,2.269-1.807
									C371.623,358.992,372.767,359.412,372.995,357.591z"/>
							</g>
							<g id="XMLID_1603_">
								<path id="XMLID_1604_" style="fill:#3A0C4A;" d="M379.662,373.4c-0.389,0.13-0.831,0.094-1.193-0.098
									c-0.175-0.093-1.024-0.901-0.428-0.842c0.229,0.023,0.59,0.341,0.793,0.458C379.109,373.079,379.385,373.239,379.662,373.4z
									"/>
							</g>
							<g id="XMLID_1601_">
								<path id="XMLID_1602_" style="fill:#3A0C4A;" d="M374.565,372.646c-0.013-0.231,0.126-0.44,0.259-0.629
									c0.8-1.142,1.618-2.422,1.496-3.811c-0.055-0.621-0.297-1.211-0.398-1.826c-0.101-0.615-0.025-1.321,0.439-1.738
									c-0.457,0.002-0.819-0.436-0.891-0.887c-0.072-0.451,0.076-0.905,0.231-1.335c0.235-0.651,0.62-1.394,1.308-1.463
									c-0.087-0.455-0.152-0.929-0.039-1.378c0.114-0.449,0.445-0.871,0.899-0.963c0.454-0.092,0.984,0.262,0.966,0.724
									c-0.009,0.234-0.143,0.445-0.188,0.675c-0.088,0.449,0.166,0.883,0.362,1.295c0.319,0.67,0.845,2.173,0.806,2.915
									c-0.042,0.788-0.492,0.225-0.537,1.013c-0.061,1.069,0.159,2.662,0.451,3.693c0.293,1.03,0.471,2.178-0.004,3.139
									c-0.149,0.301-0.373,0.584-0.685,0.709c-0.404,0.163-0.861,0.034-1.277-0.097c0.078-0.773-0.547-1.548-1.319-1.636
									c-0.039,0.488-0.671,0.697-0.871,1.143c-0.16,0.357,0.308,0.853-0.077,1.071
									C375.146,373.46,374.585,372.992,374.565,372.646z"/>
							</g>
							<g id="XMLID_1599_">
								<path id="XMLID_1600_" style="fill:#3A0C4A;" d="M349.983,366.319c0,0-0.126,4.522-0.294,5.278
									c-0.168,0.756,2.899,3.067,3.446,4.118c0.294,0,1.933,0.336,2.059,0c0.126-0.336-1.513-0.504-1.807-0.798
									c-0.294-0.294-1.765-2.059-1.975-3.025c-0.21-0.966,1.933-5.777,1.03-7.952
									C351.538,361.765,349.445,365.456,349.983,366.319z"/>
							</g>
							<g id="XMLID_1597_">
								<path id="XMLID_1598_" style="fill:#3A0C4A;" d="M357.252,363.94c0.294,0.136,4.412,3.918,4.496,4.254
									c0.084,0.336-2.111,3.656-2.274,4.034c-0.163,0.378,1.306,1.981,1.518,1.681c0.212-0.3-0.086-1.396,0.126-2.311
									c0.546-2.353,2.521-2.185,1.681-3.446c-0.84-1.261-3.067-5.378-3.067-5.378"/>
							</g>
						</g>
					</g>
					<g id="XMLID_1593_">
						<path id="XMLID_1594_" style="fill:#3A0C4A;" d="M348.021,361.306c0,0-2.599,1.201-1.386,5.756l1.151-1.411
							c0,0-1.522-2.166,0.235-3.75"/>
					</g>
					<g id="XMLID_1591_">
						<path id="XMLID_1592_" style="fill:#3A0C4A;" d="M378.569,362.978c-2.173-0.197-4.638-1.462-5.6-5.83l-0.23,0.297
							c0,0,1.06,5.536,5.83,5.75V362.978z"/>
					</g>
				</g>
			</g>
			<g id="XMLID_1569_">
				<g id="XMLID_1570_">
					<g id="XMLID_1581_">
						<g id="XMLID_1582_">
							<g id="XMLID_1587_">
								<path id="XMLID_1588_" style="fill:#3A0C4A;" d="M326.937,359.741c0.015-0.122,1.173,0.185,1.173,0.185l0.124-0.525h0.432
									c0,0-0.216-1.358-0.864-1.574c-0.648-0.216-1.882,0-1.882,0s-1.204-0.741-1.296-0.741s-1.512,0.093-1.883,0.463
									c-0.37,0.37-1.543,3.395-2.345,3.641c-0.802,0.247-4.907,0.648-6.913-3.765c0,0-2.345-0.987-5.524,0.247
									c-3.179,1.234-4.444-0.154-5.37,0.401c-0.926,0.555-0.309,2.993-0.309,2.993s-2.099,1.419-2.963,2.561
									c-0.864,1.142,0.093,3.024-0.586,4.382c-0.679,1.358-1.173,3.24-1.636,4.166c-0.463,0.926-1.574,1.944-1.666,2.284
									c-0.093,0.34,0.432,6.604,0.617,7.005c0.185,0.401,2.839,0.093,2.53-0.154c-0.309-0.247-1.296-0.37-1.543-0.71
									c-0.247-0.339-1.173-3.178,0.247-5.524c1.419-2.345,6.666-5.37,6.851-7.653c0,0,5.035,0.595,7.91-0.69
									c0,0,0.931,3.992,0.515,5.566c-0.417,1.574,0.509,5.971,0.555,6.11c0.046,0.139,1.898,0.231,1.944-0.046
									c0.046-0.278-1.296-0.926-1.342-1.296c-0.046-0.37-0.231-2.638,0.093-3.426c0.324-0.787-0.093-1.666,0.509-3.564
									c0.602-1.898,2.129-4.397,2.592-4.907c0.463-0.509,3.055,0.648,6.018-1.898c0,0,1.435,0.602,2.5-1.99
									C325.424,361.284,326.685,361.747,326.937,359.741z"/>
							</g>
							<g id="XMLID_1585_">
								<path id="XMLID_1586_" style="fill:#3A0C4A;" d="M301.585,369.356c0,0-0.139,4.981-0.324,5.815
									c-0.185,0.833,3.194,3.379,3.796,4.536c0.324,0,2.129,0.37,2.268,0c0.139-0.37-1.666-0.555-1.99-0.879
									c-0.324-0.324-1.944-2.268-2.176-3.333c-0.232-1.065,2.13-6.364,1.134-8.76
									C303.298,364.339,300.993,368.405,301.585,369.356z"/>
							</g>
							<g id="XMLID_1583_">
								<path id="XMLID_1584_" style="fill:#3A0C4A;" d="M309.593,366.735c0.324,0.15,4.861,4.316,4.953,4.686
									c0.093,0.37-2.325,4.027-2.505,4.444c-0.18,0.417,1.438,2.182,1.672,1.852c0.234-0.33-0.095-1.538,0.139-2.546
									c0.602-2.592,2.777-2.407,1.852-3.796c-0.926-1.389-3.379-5.925-3.379-5.925"/>
							</g>
						</g>
					</g>
					<g id="XMLID_1579_">
						<path id="XMLID_1580_" style="fill:#3A0C4A;" d="M299.424,363.834c0,0-2.863,1.323-1.527,6.341l1.268-1.554
							c0,0-1.677-2.386,0.259-4.132"/>
					</g>
					<g id="XMLID_1577_">
						<path id="XMLID_1578_" style="fill:#3A0C4A;" d="M333.076,365.675c-2.393-0.216-5.109-1.61-6.169-6.423l-0.253,0.327
							c0,0,1.168,6.099,6.422,6.335V365.675z"/>
					</g>
					<g id="XMLID_1575_">
						<path id="XMLID_1576_" style="fill:#3A0C4A;" d="M334.235,371.604c0.171-0.433,0.193-0.964,0.167-1.429h0.469l-1.671-6.358
							l-0.459-0.354c0,0,0.583-1.183,0.774-1.632c0.191-0.449,0.604-1.731-0.862-1.586c0,0-1.225,0.512-1.314,0.846
							s-0.251,2.147-0.251,2.147s-0.647,0.149-0.773,0.758c-0.126,0.609-0.734,5.037-0.448,5.238c0.286,0.201,0.51,0.297,0.51,0.297
							s0.183,1.306,0.036,1.589s-1.734,5.382-1.734,5.382s5.163,1.322,7.014,1.209C335.691,377.707,334.72,374.564,334.235,371.604z
							"/>
					</g>
					<g id="XMLID_1573_">
						<path id="XMLID_1574_" style="fill:#3A0C4A;" d="M329.667,376.633c-0.036-0.064-0.075-0.13-0.139-0.166
							c-0.064-0.036-0.159-0.028-0.193,0.036c-0.049,0.092,0.054,0.189,0.145,0.241c0.666,0.382,1.385,0.659,2.106,0.924
							c-0.32-0.542-0.836-0.966-1.43-1.173"/>
					</g>
					<g id="XMLID_1571_">
						<path id="XMLID_1572_" style="fill:#3A0C4A;" d="M334.87,377.982c-0.428,0.143-0.915,0.104-1.314-0.108
							c-0.193-0.102-1.128-0.993-0.472-0.928c0.253,0.025,0.65,0.375,0.873,0.505C334.261,377.628,334.565,377.805,334.87,377.982z"
							/>
					</g>
				</g>
			</g>
		</g>
	</g>
	<g id="XMLID_391_">
		<g id="XMLID_97_">
			<g id="XMLID_93_">
				<path id="XMLID_70_" style="fill:#EEAA9D;" d="M80.535,84.549c-8.96,0.103-9.043,0.187-9.147,9.147
					c-0.103-8.96-0.187-9.044-9.147-9.147c8.96-0.103,9.044-0.187,9.147-9.147C71.491,84.362,71.575,84.445,80.535,84.549z"/>
				<path id="XMLID_95_" style="fill:#EEAA9D;" d="M103.123,76.992c-5.538,0.064-5.589,0.115-5.653,5.653
					c-0.064-5.538-0.115-5.589-5.653-5.653c5.538-0.064,5.589-0.115,5.653-5.653C97.534,76.877,97.586,76.928,103.123,76.992z"/>
				<path id="XMLID_96_" style="fill:#EEAA9D;" d="M112.27,116.305c-3.423,0.039-3.454,0.071-3.494,3.494
					c-0.039-3.423-0.071-3.454-3.494-3.494c3.423-0.039,3.455-0.071,3.494-3.494C108.816,116.234,108.848,116.266,112.27,116.305z"
					/>
			</g>
			<g id="XMLID_362_">
				<path id="XMLID_368_" style="fill:#EEAA9D;" d="M422.271,59.501c-14.221,0.164-14.353,0.296-14.517,14.517
					c-0.164-14.22-0.296-14.353-14.517-14.517c14.221-0.164,14.353-0.296,14.517-14.517
					C407.918,59.205,408.05,59.338,422.271,59.501z"/>
				<path id="XMLID_366_" style="fill:#EEAA9D;" d="M458.121,47.508c-8.789,0.101-8.871,0.183-8.972,8.972
					c-0.101-8.789-0.183-8.871-8.972-8.972c8.789-0.101,8.871-0.183,8.972-8.972C449.25,47.325,449.332,47.407,458.121,47.508z"/>
				<path id="XMLID_364_" style="fill:#EEAA9D;" d="M472.639,109.903c-5.432,0.063-5.483,0.113-5.545,5.545
					c-0.063-5.432-0.113-5.483-5.545-5.545c5.432-0.063,5.483-0.113,5.545-5.545C467.156,109.79,467.207,109.84,472.639,109.903z"/>
			</g>
			<g id="XMLID_106_">
				<path id="XMLID_125_" style="fill:#EEAA9D;" d="M415.47,192.795c0.064,5.538,0.115,5.589,5.653,5.653
					c-5.538,0.064-5.589,0.115-5.653,5.653c-0.064-5.538-0.115-5.589-5.653-5.653C415.355,198.384,415.406,198.333,415.47,192.795z"
					/>
				<path id="XMLID_123_" style="fill:#EEAA9D;" d="M410.8,178.834c0.039,3.423,0.071,3.454,3.494,3.494
					c-3.423,0.039-3.455,0.071-3.494,3.494c-0.039-3.423-0.071-3.454-3.494-3.494C410.729,182.289,410.761,182.257,410.8,178.834z"
					/>
				<path id="XMLID_118_" style="fill:#EEAA9D;" d="M435.097,173.181c0.024,2.115,0.044,2.135,2.159,2.159
					c-2.115,0.024-2.135,0.044-2.159,2.159c-0.024-2.115-0.044-2.135-2.159-2.159C435.053,175.316,435.073,175.296,435.097,173.181z
					"/>
			</g>
			<g id="XMLID_126_">
				<path id="XMLID_129_" style="fill:#EEAA9D;" d="M341.345,193.329c-0.039-3.423-0.071-3.454-3.494-3.494
					c3.423-0.039,3.454-0.071,3.494-3.494c0.039,3.423,0.071,3.454,3.494,3.494C341.416,189.874,341.384,189.906,341.345,193.329z"
					/>
				<path id="XMLID_132_" style="fill:#EEAA9D;" d="M378.47,185.445c-0.039-3.423-0.071-3.455-3.494-3.494
					c3.423-0.039,3.454-0.071,3.494-3.494c0.039,3.423,0.071,3.454,3.494,3.494C378.542,181.99,378.51,182.022,378.47,185.445z"/>
				<path id="XMLID_128_" style="fill:#EEAA9D;" d="M344.231,201.957c-0.024-2.115-0.044-2.135-2.159-2.159
					c2.115-0.024,2.135-0.044,2.159-2.159c0.024,2.115,0.044,2.135,2.159,2.159C344.275,199.822,344.255,199.842,344.231,201.957z"
					/>
				<path id="XMLID_135_" style="fill:#EEAA9D;" d="M465.511,210.061c-0.024-2.115-0.044-2.135-2.159-2.159
					c2.115-0.024,2.135-0.044,2.159-2.159c0.024,2.115,0.044,2.135,2.159,2.159C465.555,207.926,465.535,207.946,465.511,210.061z"
					/>
				<path id="XMLID_127_" style="fill:#EEAA9D;" d="M329.214,205.451c-0.015-1.307-0.027-1.319-1.335-1.335
					c1.307-0.015,1.32-0.027,1.335-1.335c0.015,1.307,0.027,1.32,1.335,1.335C329.241,204.132,329.229,204.144,329.214,205.451z"/>
				<path id="XMLID_136_" style="fill:#EEAA9D;" d="M483.3,173.181c-0.015-1.307-0.027-1.32-1.335-1.335
					c1.307-0.015,1.32-0.027,1.335-1.335c0.015,1.307,0.027,1.32,1.335,1.335C483.327,171.862,483.315,171.874,483.3,173.181z"/>
			</g>
			<g id="XMLID_289_">
				<path id="XMLID_321_" style="fill:#EEAA9D;" d="M40.37,178.383c-0.039-3.423-0.071-3.454-3.494-3.494
					c3.423-0.039,3.454-0.071,3.494-3.494c0.039,3.423,0.071,3.454,3.494,3.494C40.441,174.928,40.41,174.96,40.37,178.383z"/>
				<path id="XMLID_319_" style="fill:#EEAA9D;" d="M77.496,170.499c-0.039-3.422-0.071-3.454-3.494-3.494
					c3.423-0.039,3.454-0.071,3.494-3.494c0.039,3.423,0.071,3.454,3.494,3.494C77.567,167.044,77.535,167.077,77.496,170.499z"/>
				<path id="XMLID_302_" style="fill:#EEAA9D;" d="M43.256,187.011c-0.024-2.115-0.044-2.135-2.159-2.159
					c2.115-0.024,2.135-0.044,2.159-2.159c0.024,2.115,0.044,2.135,2.159,2.159C43.3,184.876,43.281,184.896,43.256,187.011z"/>
				<path id="XMLID_300_" style="fill:#EEAA9D;" d="M164.536,195.115c-0.024-2.115-0.044-2.135-2.159-2.159
					c2.115-0.024,2.135-0.044,2.159-2.159c0.024,2.115,0.044,2.135,2.159,2.159C164.58,192.98,164.56,193,164.536,195.115z"/>
				<path id="XMLID_298_" style="fill:#EEAA9D;" d="M28.24,190.505c-0.015-1.307-0.027-1.32-1.335-1.335
					c1.307-0.015,1.319-0.027,1.335-1.335c0.015,1.307,0.027,1.32,1.335,1.335C28.267,189.186,28.255,189.198,28.24,190.505z"/>
				<path id="XMLID_297_" style="fill:#EEAA9D;" d="M182.325,158.235c-0.015-1.307-0.027-1.32-1.335-1.335
					c1.307-0.015,1.32-0.027,1.335-1.335c0.015,1.307,0.027,1.32,1.335,1.335C182.353,156.916,182.34,156.928,182.325,158.235z"/>
			</g>
			<g id="XMLID_323_">
				<path id="XMLID_336_" style="fill:#EEAA9D;" d="M255.138,161.277c0.039-3.423,0.071-3.454,3.494-3.494
					c-3.423-0.039-3.454-0.071-3.494-3.494c-0.039,3.423-0.071,3.454-3.494,3.494C255.066,157.823,255.098,157.855,255.138,161.277z
					"/>
				<path id="XMLID_334_" style="fill:#EEAA9D;" d="M218.012,153.394c0.039-3.423,0.071-3.455,3.494-3.494
					c-3.423-0.039-3.454-0.071-3.494-3.494c-0.039,3.423-0.071,3.454-3.494,3.494C217.941,149.939,217.973,149.971,218.012,153.394z
					"/>
				<path id="XMLID_332_" style="fill:#EEAA9D;" d="M252.251,169.906c0.024-2.115,0.044-2.135,2.159-2.159
					c-2.115-0.024-2.135-0.044-2.159-2.159c-0.024,2.115-0.044,2.135-2.159,2.159C252.207,167.771,252.227,167.791,252.251,169.906z
					"/>
				<path id="XMLID_328_" style="fill:#EEAA9D;" d="M130.972,178.01c0.024-2.115,0.044-2.135,2.159-2.159
					c-2.115-0.024-2.135-0.044-2.159-2.159c-0.024,2.115-0.044,2.135-2.159,2.159C130.928,175.875,130.947,175.894,130.972,178.01z"
					/>
				<path id="XMLID_327_" style="fill:#EEAA9D;" d="M267.268,173.4c0.015-1.307,0.027-1.319,1.335-1.335
					c-1.307-0.015-1.319-0.027-1.335-1.335c-0.015,1.307-0.027,1.32-1.335,1.335C267.241,172.08,267.253,172.092,267.268,173.4z"/>
				<path id="XMLID_325_" style="fill:#EEAA9D;" d="M113.182,141.13c0.015-1.307,0.027-1.32,1.335-1.335
					c-1.307-0.015-1.32-0.027-1.335-1.335c-0.015,1.307-0.027,1.32-1.335,1.335C113.155,139.81,113.167,139.822,113.182,141.13z"/>
			</g>
			<g id="XMLID_338_">
				<path id="XMLID_347_" style="fill:#EEAA9D;" d="M446.121,122.841c0.039-3.423,0.071-3.454,3.494-3.494
					c-3.423-0.039-3.454-0.071-3.494-3.494c-0.039,3.423-0.071,3.454-3.494,3.494C446.05,119.387,446.082,119.419,446.121,122.841z"
					/>
				<path id="XMLID_345_" style="fill:#EEAA9D;" d="M408.996,114.958c0.039-3.423,0.071-3.455,3.494-3.494
					c-3.423-0.039-3.454-0.071-3.494-3.494c-0.039,3.423-0.071,3.454-3.494,3.494C408.924,111.503,408.956,111.535,408.996,114.958z
					"/>
				<path id="XMLID_343_" style="fill:#EEAA9D;" d="M443.235,131.47c0.024-2.115,0.044-2.135,2.159-2.159
					c-2.115-0.024-2.135-0.044-2.159-2.159c-0.024,2.115-0.044,2.135-2.159,2.159C443.191,129.335,443.211,129.355,443.235,131.47z"
					/>
				<path id="XMLID_342_" style="fill:#EEAA9D;" d="M321.956,139.574c0.024-2.115,0.044-2.135,2.159-2.159
					c-2.115-0.024-2.135-0.044-2.159-2.159c-0.024,2.115-0.044,2.135-2.159,2.159C321.911,137.439,321.931,137.458,321.956,139.574z
					"/>
				<path id="XMLID_341_" style="fill:#EEAA9D;" d="M458.252,134.964c0.015-1.307,0.027-1.32,1.335-1.335
					c-1.307-0.015-1.319-0.027-1.335-1.335c-0.015,1.307-0.027,1.32-1.335,1.335C458.225,133.644,458.237,133.656,458.252,134.964z"
					/>
				<path id="XMLID_340_" style="fill:#EEAA9D;" d="M304.166,102.694c0.015-1.307,0.027-1.32,1.335-1.335
					c-1.307-0.015-1.319-0.027-1.335-1.335c-0.015,1.307-0.027,1.32-1.335,1.335C304.139,101.374,304.151,101.386,304.166,102.694z"
					/>
			</g>
			<g id="XMLID_349_">
				<path id="XMLID_360_" style="fill:#EEAA9D;" d="M315.102,94.156c0.039-3.423,0.071-3.454,3.494-3.494
					c-3.422-0.039-3.454-0.071-3.494-3.494c-0.039,3.423-0.071,3.455-3.494,3.494C315.03,90.701,315.062,90.733,315.102,94.156z"/>
				<path id="XMLID_358_" style="fill:#EEAA9D;" d="M277.976,86.272c0.039-3.423,0.071-3.454,3.494-3.494
					c-3.423-0.039-3.454-0.071-3.494-3.494c-0.039,3.423-0.071,3.454-3.494,3.494C277.905,82.818,277.937,82.85,277.976,86.272z"/>
				<path id="XMLID_356_" style="fill:#EEAA9D;" d="M312.215,102.784c0.024-2.115,0.044-2.135,2.159-2.159
					c-2.115-0.024-2.135-0.044-2.159-2.159c-0.024,2.115-0.044,2.135-2.159,2.159C312.171,100.649,312.191,100.669,312.215,102.784z
					"/>
				<path id="XMLID_354_" style="fill:#EEAA9D;" d="M190.936,110.888c0.024-2.115,0.044-2.135,2.159-2.159
					c-2.115-0.024-2.135-0.044-2.159-2.159c-0.024,2.115-0.044,2.135-2.159,2.159C190.892,108.753,190.911,108.773,190.936,110.888z
					"/>
				<path id="XMLID_352_" style="fill:#EEAA9D;" d="M327.232,106.278c0.015-1.307,0.027-1.319,1.335-1.335
					c-1.307-0.015-1.32-0.027-1.335-1.335c-0.015,1.307-0.027,1.32-1.335,1.335C327.205,104.959,327.217,104.971,327.232,106.278z"
					/>
				<path id="XMLID_351_" style="fill:#EEAA9D;" d="M173.146,74.008c0.015-1.307,0.027-1.32,1.335-1.335
					c-1.307-0.015-1.32-0.027-1.335-1.335c-0.015,1.307-0.027,1.32-1.335,1.335C173.119,72.689,173.131,72.701,173.146,74.008z"/>
			</g>
			<g id="XMLID_371_">
				<path id="XMLID_387_" style="fill:#EEAA9D;" d="M170.195,36.659c0.039-3.423,0.071-3.455,3.494-3.494
					c-3.423-0.039-3.454-0.071-3.494-3.494c-0.039,3.423-0.071,3.454-3.494,3.494C170.124,33.204,170.156,33.236,170.195,36.659z"/>
				<path id="XMLID_385_" style="fill:#EEAA9D;" d="M133.069,28.775c0.039-3.422,0.071-3.454,3.494-3.494
					c-3.423-0.039-3.454-0.071-3.494-3.494c-0.039,3.423-0.071,3.455-3.494,3.494C132.998,25.321,133.03,25.353,133.069,28.775z"/>
				<path id="XMLID_376_" style="fill:#EEAA9D;" d="M167.309,45.287c0.024-2.115,0.044-2.135,2.159-2.159
					c-2.115-0.024-2.135-0.044-2.159-2.159c-0.024,2.115-0.044,2.135-2.159,2.159C167.264,43.152,167.284,43.172,167.309,45.287z"/>
				<path id="XMLID_375_" style="fill:#EEAA9D;" d="M46.029,53.391c0.024-2.115,0.044-2.135,2.159-2.159
					c-2.115-0.024-2.135-0.044-2.159-2.159c-0.024,2.115-0.044,2.135-2.159,2.159C45.985,51.256,46.005,51.276,46.029,53.391z"/>
				<path id="XMLID_374_" style="fill:#EEAA9D;" d="M182.325,48.781c0.015-1.307,0.027-1.32,1.335-1.335
					c-1.307-0.015-1.32-0.027-1.335-1.335c-0.015,1.307-0.027,1.32-1.335,1.335C182.298,47.462,182.31,47.474,182.325,48.781z"/>
				<path id="XMLID_373_" style="fill:#EEAA9D;" d="M28.24,16.511c0.015-1.307,0.027-1.319,1.335-1.335
					c-1.307-0.015-1.32-0.027-1.335-1.335c-0.015,1.307-0.027,1.32-1.335,1.335C28.212,15.192,28.225,15.204,28.24,16.511z"/>
			</g>
		</g>
		
			<linearGradient id="XMLID_00000094581064245149321570000000010227819798299582_" gradientUnits="userSpaceOnUse" x1="241.3876" y1="139.5373" x2="242.0276" y2="125.074">
			<stop  offset="0" style="stop-color:#EEAA9D"/>
			<stop  offset="1" style="stop-color:#EEAA9D;stop-opacity:0.1"/>
		</linearGradient>
		<path id="XMLID_389_" style="fill:url(#XMLID_00000094581064245149321570000000010227819798299582_);" d="M197.828,123.118
			l87.372,17.344c0.276,0.055,0.456,0.324,0.4,0.6l0,0c-0.056,0.278-0.327,0.457-0.604,0.398L197.828,123.118z"/>
	</g>
</g>
<g id="Designed_by_Freepik">
	<g id="XMLID_2_">
		<g id="XMLID_1046_">
			<g id="XMLID_1083_">
				<path id="XMLID_1108_" style="fill:#FF678E;" d="M180.308,472.293v-0.161c-0.218,0.249-0.432,0.452-0.644,0.608
					c-0.212,0.157-0.441,0.276-0.689,0.357c-0.247,0.082-0.517,0.122-0.81,0.122c-0.388,0-0.747-0.082-1.078-0.246
					c-0.33-0.164-0.616-0.399-0.857-0.704c-0.242-0.305-0.425-0.662-0.549-1.074c-0.124-0.412-0.187-0.857-0.187-1.335
					c0-1.013,0.247-1.804,0.742-2.369c0.495-0.565,1.146-0.848,1.953-0.848c0.467,0,0.861,0.081,1.181,0.24
					c0.321,0.16,0.633,0.408,0.938,0.739v-2.392c0-0.333,0.066-0.583,0.199-0.754c0.132-0.17,0.321-0.255,0.567-0.255
					c0.245,0,0.434,0.078,0.567,0.234c0.133,0.157,0.199,0.386,0.199,0.691v7.147c0,0.309-0.071,0.54-0.214,0.694
					c-0.143,0.154-0.326,0.231-0.552,0.231c-0.221,0-0.405-0.08-0.549-0.24C180.38,472.817,180.308,472.589,180.308,472.293z
					 M177.12,469.912c0,0.439,0.068,0.813,0.205,1.122c0.137,0.309,0.324,0.541,0.561,0.697c0.238,0.157,0.497,0.236,0.778,0.236
					c0.285,0,0.545-0.074,0.781-0.223c0.235-0.148,0.423-0.376,0.564-0.682c0.141-0.307,0.211-0.691,0.211-1.149
					c0-0.432-0.07-0.803-0.211-1.114c-0.14-0.31-0.33-0.547-0.57-0.712c-0.24-0.164-0.502-0.245-0.786-0.245
					c-0.297,0-0.562,0.084-0.796,0.252c-0.234,0.168-0.415,0.409-0.543,0.724C177.184,469.131,177.12,469.496,177.12,469.912z"/>
				<path id="XMLID_1105_" style="fill:#FF678E;" d="M187.454,470.322h-3.17c0.004,0.367,0.078,0.692,0.223,0.973
					c0.144,0.281,0.336,0.493,0.576,0.635c0.24,0.143,0.504,0.213,0.793,0.213c0.194,0,0.371-0.022,0.531-0.067
					c0.16-0.046,0.316-0.117,0.466-0.214c0.151-0.097,0.289-0.201,0.415-0.312c0.126-0.111,0.29-0.262,0.493-0.452
					c0.083-0.071,0.202-0.107,0.357-0.107c0.166,0,0.3,0.046,0.403,0.137c0.103,0.092,0.155,0.219,0.155,0.386
					c0,0.146-0.058,0.317-0.172,0.513c-0.116,0.196-0.289,0.384-0.52,0.564c-0.232,0.18-0.522,0.329-0.873,0.448
					c-0.35,0.119-0.753,0.178-1.208,0.178c-1.04,0-1.85-0.297-2.428-0.891c-0.578-0.593-0.866-1.399-0.866-2.416
					c0-0.479,0.071-0.924,0.213-1.332c0.143-0.41,0.351-0.761,0.623-1.054c0.273-0.293,0.609-0.517,1.01-0.674
					c0.399-0.156,0.843-0.234,1.33-0.234c0.633,0,1.176,0.132,1.629,0.4c0.454,0.267,0.793,0.612,1.019,1.035
					c0.225,0.424,0.338,0.856,0.338,1.294c0,0.408-0.117,0.672-0.35,0.793C188.206,470.261,187.878,470.322,187.454,470.322z
					 M184.284,469.402h2.939c-0.039-0.554-0.189-0.969-0.448-1.244c-0.259-0.275-0.6-0.413-1.024-0.413
					c-0.404,0-0.735,0.139-0.994,0.418C184.497,468.442,184.34,468.855,184.284,469.402z"/>
				<path id="XMLID_1103_" style="fill:#FF678E;" d="M194.838,471.099c0,0.447-0.108,0.831-0.327,1.149
					c-0.217,0.319-0.539,0.56-0.965,0.725c-0.425,0.164-0.943,0.246-1.552,0.246c-0.582,0-1.08-0.089-1.496-0.267
					c-0.415-0.178-0.722-0.401-0.92-0.667c-0.198-0.268-0.297-0.535-0.297-0.805c0-0.178,0.063-0.33,0.19-0.456
					c0.126-0.126,0.287-0.19,0.481-0.19c0.17,0,0.3,0.042,0.391,0.125c0.091,0.083,0.178,0.2,0.261,0.35
					c0.166,0.29,0.366,0.504,0.597,0.648c0.231,0.142,0.547,0.214,0.947,0.214c0.324,0,0.59-0.073,0.798-0.217
					c0.207-0.145,0.311-0.31,0.311-0.496c0-0.285-0.107-0.492-0.324-0.622c-0.216-0.131-0.571-0.256-1.066-0.375
					c-0.558-0.138-1.012-0.284-1.362-0.436c-0.35-0.151-0.63-0.353-0.84-0.602c-0.21-0.25-0.315-0.557-0.315-0.92
					c0-0.324,0.097-0.631,0.291-0.92c0.194-0.288,0.48-0.519,0.859-0.691c0.377-0.173,0.833-0.259,1.367-0.259
					c0.42,0,0.797,0.043,1.131,0.131c0.335,0.086,0.614,0.204,0.837,0.35c0.224,0.146,0.394,0.308,0.51,0.486
					c0.117,0.178,0.175,0.352,0.175,0.523c0,0.185-0.062,0.338-0.187,0.457c-0.124,0.118-0.301,0.178-0.532,0.178
					c-0.166,0-0.308-0.048-0.424-0.143c-0.117-0.095-0.25-0.237-0.401-0.427c-0.123-0.158-0.266-0.285-0.433-0.38
					c-0.166-0.095-0.392-0.142-0.677-0.142c-0.293,0-0.536,0.062-0.73,0.187c-0.194,0.124-0.291,0.279-0.291,0.465
					c0,0.171,0.071,0.31,0.213,0.419c0.143,0.109,0.334,0.2,0.576,0.27c0.242,0.071,0.573,0.157,0.997,0.261
					c0.502,0.123,0.913,0.27,1.232,0.44c0.318,0.17,0.56,0.371,0.725,0.603C194.756,470.538,194.838,470.802,194.838,471.099z"/>
				<path id="XMLID_1100_" style="fill:#FF678E;" d="M196.494,465.876c-0.225,0-0.418-0.07-0.579-0.208
					c-0.16-0.138-0.24-0.334-0.24-0.588c0-0.23,0.082-0.418,0.246-0.567c0.164-0.149,0.355-0.223,0.573-0.223
					c0.21,0,0.396,0.067,0.558,0.202c0.162,0.135,0.244,0.33,0.244,0.588c0,0.25-0.08,0.444-0.238,0.585
					C196.899,465.805,196.711,465.876,196.494,465.876z M197.295,467.549v4.683c0,0.325-0.077,0.571-0.232,0.737
					c-0.155,0.166-0.35,0.249-0.588,0.249c-0.238,0-0.431-0.085-0.579-0.255c-0.149-0.17-0.222-0.414-0.222-0.73v-4.636
					c0-0.32,0.074-0.561,0.222-0.724c0.148-0.162,0.341-0.243,0.579-0.243c0.238,0,0.433,0.081,0.588,0.243
					C197.218,467.035,197.295,467.261,197.295,467.549z"/>
				<path id="XMLID_1097_" style="fill:#FF678E;" d="M204.395,467.817v4.707c0,0.538-0.058,1.001-0.173,1.39
					c-0.114,0.387-0.298,0.708-0.552,0.961c-0.253,0.253-0.585,0.441-0.994,0.563c-0.41,0.123-0.919,0.184-1.529,0.184
					c-0.558,0-1.057-0.078-1.496-0.234c-0.439-0.157-0.777-0.358-1.015-0.605c-0.237-0.247-0.357-0.502-0.357-0.763
					c0-0.198,0.068-0.36,0.202-0.483c0.134-0.125,0.297-0.187,0.486-0.187c0.237,0,0.445,0.105,0.623,0.314
					c0.087,0.107,0.177,0.216,0.27,0.324c0.093,0.109,0.197,0.202,0.309,0.28c0.113,0.076,0.249,0.134,0.407,0.172
					c0.158,0.037,0.341,0.056,0.546,0.056c0.42,0,0.745-0.058,0.977-0.175c0.232-0.117,0.394-0.28,0.487-0.49
					c0.093-0.209,0.147-0.433,0.163-0.673s0.027-0.624,0.035-1.155c-0.25,0.349-0.537,0.615-0.864,0.797
					c-0.326,0.182-0.715,0.273-1.166,0.273c-0.542,0-1.016-0.139-1.422-0.416c-0.405-0.277-0.717-0.665-0.935-1.163
					c-0.218-0.499-0.326-1.074-0.326-1.727c0-0.486,0.066-0.927,0.198-1.318c0.133-0.393,0.322-0.723,0.567-0.992
					c0.245-0.269,0.528-0.472,0.849-0.608c0.32-0.136,0.673-0.204,1.057-0.204c0.459,0,0.857,0.089,1.193,0.264
					c0.336,0.177,0.649,0.453,0.938,0.829v-0.22c0-0.281,0.069-0.498,0.208-0.653c0.139-0.154,0.317-0.231,0.535-0.231
					c0.313,0,0.52,0.103,0.623,0.306C204.343,467.139,204.395,467.433,204.395,467.817z M199.699,469.871
					c0,0.657,0.143,1.154,0.43,1.49c0.287,0.337,0.658,0.505,1.113,0.505c0.269,0,0.523-0.073,0.762-0.217
					c0.24-0.145,0.435-0.362,0.585-0.653c0.15-0.291,0.225-0.644,0.225-1.06c0-0.66-0.145-1.176-0.436-1.543
					c-0.291-0.368-0.674-0.552-1.149-0.552c-0.463,0-0.834,0.176-1.113,0.529C199.838,468.721,199.699,469.222,199.699,469.871z"/>
				<path id="XMLID_1095_" style="fill:#FF678E;" d="M206.97,467.526v0.196c0.285-0.376,0.596-0.652,0.935-0.828
					c0.338-0.176,0.727-0.264,1.166-0.264c0.428,0,0.809,0.093,1.146,0.28c0.336,0.186,0.588,0.449,0.753,0.789
					c0.108,0.198,0.176,0.413,0.208,0.641c0.032,0.23,0.048,0.522,0.048,0.879v3.015c0,0.325-0.074,0.571-0.223,0.737
					c-0.148,0.166-0.341,0.249-0.579,0.249c-0.242,0-0.437-0.085-0.588-0.255c-0.151-0.17-0.226-0.414-0.226-0.73v-2.701
					c0-0.534-0.074-0.943-0.223-1.226c-0.149-0.283-0.444-0.425-0.888-0.425c-0.288,0-0.552,0.086-0.789,0.258
					c-0.237,0.173-0.412,0.41-0.522,0.71c-0.079,0.242-0.119,0.692-0.119,1.353v2.03c0,0.328-0.077,0.576-0.228,0.74
					c-0.152,0.164-0.349,0.246-0.59,0.246c-0.234,0-0.425-0.085-0.576-0.255c-0.15-0.17-0.225-0.414-0.225-0.73v-4.683
					c0-0.309,0.067-0.54,0.202-0.692c0.135-0.152,0.319-0.228,0.552-0.228c0.143,0,0.272,0.034,0.387,0.101
					c0.114,0.068,0.207,0.169,0.276,0.302C206.935,467.167,206.97,467.332,206.97,467.526z"/>
				<path id="XMLID_1092_" style="fill:#FF678E;" d="M216.829,470.322h-3.17c0.004,0.367,0.078,0.692,0.223,0.973
					c0.144,0.281,0.336,0.493,0.576,0.635c0.239,0.143,0.503,0.213,0.792,0.213c0.194,0,0.371-0.022,0.532-0.067
					c0.16-0.046,0.315-0.117,0.466-0.214c0.15-0.097,0.288-0.201,0.416-0.312c0.126-0.111,0.29-0.262,0.492-0.452
					c0.083-0.071,0.202-0.107,0.356-0.107c0.166,0,0.301,0.046,0.404,0.137c0.103,0.092,0.154,0.219,0.154,0.386
					c0,0.146-0.057,0.317-0.172,0.513c-0.115,0.196-0.288,0.384-0.52,0.564c-0.232,0.18-0.522,0.329-0.872,0.448
					c-0.35,0.119-0.753,0.178-1.208,0.178c-1.041,0-1.85-0.297-2.428-0.891c-0.577-0.593-0.866-1.399-0.866-2.416
					c0-0.479,0.071-0.924,0.214-1.332c0.143-0.41,0.351-0.761,0.624-1.054c0.273-0.293,0.609-0.517,1.009-0.674
					c0.399-0.156,0.843-0.234,1.33-0.234c0.633,0,1.175,0.132,1.629,0.4c0.454,0.267,0.793,0.612,1.019,1.035
					c0.225,0.424,0.338,0.856,0.338,1.294c0,0.408-0.117,0.672-0.35,0.793C217.581,470.261,217.253,470.322,216.829,470.322z
					 M213.659,469.402h2.938c-0.039-0.554-0.189-0.969-0.448-1.244c-0.259-0.275-0.601-0.413-1.024-0.413
					c-0.404,0-0.736,0.139-0.995,0.418C213.871,468.442,213.715,468.855,213.659,469.402z"/>
				<path id="XMLID_1089_" style="fill:#FF678E;" d="M223.435,472.293v-0.161c-0.218,0.249-0.432,0.452-0.644,0.608
					c-0.212,0.157-0.441,0.276-0.689,0.357c-0.247,0.082-0.517,0.122-0.81,0.122c-0.389,0-0.747-0.082-1.078-0.246
					c-0.331-0.164-0.616-0.399-0.858-0.704c-0.242-0.305-0.424-0.662-0.549-1.074c-0.125-0.412-0.187-0.857-0.187-1.335
					c0-1.013,0.247-1.804,0.742-2.369c0.495-0.565,1.146-0.848,1.953-0.848c0.467,0,0.861,0.081,1.181,0.24
					c0.321,0.16,0.633,0.408,0.938,0.739v-2.392c0-0.333,0.066-0.583,0.199-0.754c0.132-0.17,0.322-0.255,0.567-0.255
					c0.245,0,0.434,0.078,0.567,0.234c0.132,0.157,0.199,0.386,0.199,0.691v7.147c0,0.309-0.071,0.54-0.214,0.694
					c-0.143,0.154-0.326,0.231-0.552,0.231c-0.222,0-0.405-0.08-0.549-0.24C223.507,472.817,223.435,472.589,223.435,472.293z
					 M220.248,469.912c0,0.439,0.068,0.813,0.205,1.122c0.136,0.309,0.323,0.541,0.561,0.697c0.237,0.157,0.496,0.236,0.777,0.236
					c0.285,0,0.546-0.074,0.781-0.223c0.236-0.148,0.424-0.376,0.564-0.682c0.141-0.307,0.211-0.691,0.211-1.149
					c0-0.432-0.07-0.803-0.211-1.114c-0.14-0.31-0.33-0.547-0.57-0.712c-0.24-0.164-0.502-0.245-0.787-0.245
					c-0.296,0-0.562,0.084-0.795,0.252c-0.233,0.168-0.414,0.409-0.543,0.724C220.312,469.131,220.248,469.496,220.248,469.912z"/>
				<path id="XMLID_1086_" style="fill:#FF678E;" d="M230.059,465.145v2.475c0.304-0.316,0.615-0.559,0.932-0.727
					c0.316-0.168,0.709-0.252,1.175-0.252c0.538,0,1.01,0.128,1.416,0.382c0.405,0.256,0.72,0.626,0.944,1.111
					c0.223,0.484,0.336,1.06,0.336,1.725c0,0.491-0.063,0.94-0.187,1.35c-0.125,0.409-0.306,0.765-0.543,1.065
					c-0.238,0.301-0.525,0.534-0.864,0.698c-0.339,0.164-0.712,0.246-1.119,0.246c-0.25,0-0.484-0.029-0.703-0.089
					c-0.22-0.059-0.407-0.137-0.561-0.234c-0.154-0.096-0.286-0.197-0.395-0.3c-0.109-0.103-0.253-0.258-0.431-0.463v0.161
					c0,0.304-0.073,0.535-0.22,0.692c-0.146,0.156-0.332,0.234-0.558,0.234c-0.229,0-0.413-0.077-0.549-0.234
					c-0.137-0.157-0.205-0.388-0.205-0.692v-7.077c0-0.328,0.066-0.577,0.198-0.745c0.133-0.168,0.318-0.252,0.555-0.252
					c0.25,0,0.441,0.08,0.576,0.24C229.992,464.62,230.059,464.848,230.059,465.145z M230.136,469.96
					c0,0.645,0.148,1.14,0.442,1.486c0.295,0.347,0.682,0.521,1.161,0.521c0.407,0,0.759-0.177,1.053-0.532
					c0.295-0.355,0.442-0.862,0.442-1.523c0-0.427-0.061-0.796-0.184-1.104c-0.123-0.309-0.297-0.548-0.522-0.715
					c-0.226-0.168-0.489-0.252-0.79-0.252c-0.309,0-0.584,0.084-0.825,0.252c-0.242,0.168-0.431,0.411-0.57,0.73
					C230.205,469.141,230.136,469.52,230.136,469.96z"/>
				<path id="XMLID_1084_" style="fill:#FF678E;" d="M236.963,473.42l0.148-0.363l-1.995-5.022
					c-0.122-0.288-0.184-0.499-0.184-0.629c0-0.139,0.036-0.267,0.107-0.385c0.071-0.119,0.169-0.214,0.293-0.285
					c0.125-0.072,0.255-0.107,0.389-0.107c0.233,0,0.409,0.074,0.529,0.223c0.119,0.148,0.223,0.361,0.314,0.638l1.371,3.989
					l1.3-3.71c0.103-0.3,0.196-0.536,0.279-0.706c0.083-0.17,0.171-0.285,0.264-0.344c0.093-0.06,0.225-0.09,0.395-0.09
					c0.123,0,0.24,0.032,0.353,0.098c0.113,0.065,0.2,0.153,0.261,0.264c0.061,0.111,0.092,0.227,0.092,0.35
					c-0.017,0.075-0.042,0.182-0.077,0.321c-0.036,0.138-0.079,0.28-0.13,0.421l-2.113,5.533c-0.182,0.487-0.361,0.868-0.535,1.145
					c-0.174,0.277-0.404,0.491-0.691,0.638c-0.287,0.149-0.674,0.223-1.161,0.223c-0.475,0-0.831-0.051-1.068-0.154
					c-0.238-0.104-0.356-0.292-0.356-0.564c0-0.186,0.056-0.33,0.169-0.43c0.112-0.101,0.28-0.152,0.501-0.152
					c0.087,0,0.173,0.012,0.256,0.037c0.103,0.023,0.192,0.035,0.267,0.035c0.186,0,0.333-0.027,0.44-0.084
					c0.106-0.055,0.202-0.151,0.288-0.288C236.754,473.887,236.852,473.685,236.963,473.42z"/>
			</g>
			<g id="XMLID_1061_">
				<path id="XMLID_1082_" style="fill:#FF678E;" d="M260.439,466.769h0.386v-0.487c0-0.509,0.062-0.911,0.192-1.211
					c0.128-0.299,0.347-0.516,0.654-0.653c0.306-0.136,0.727-0.204,1.26-0.204c0.95,0,1.42,0.229,1.42,0.697
					c0,0.149-0.049,0.278-0.15,0.384c-0.096,0.106-0.214,0.16-0.349,0.16c-0.062,0-0.174-0.012-0.33-0.037
					c-0.148-0.021-0.283-0.035-0.389-0.035c-0.292,0-0.479,0.088-0.566,0.259c-0.079,0.172-0.122,0.418-0.122,0.74v0.386h0.395
					c0.62,0,0.926,0.185,0.926,0.56c0,0.262-0.079,0.431-0.245,0.503c-0.164,0.071-0.39,0.107-0.681,0.107h-0.395v4.294
					c0,0.319-0.075,0.563-0.231,0.73c-0.151,0.17-0.346,0.254-0.589,0.254c-0.23,0-0.419-0.084-0.574-0.254
					c-0.153-0.167-0.228-0.411-0.228-0.73v-4.294h-0.446c-0.243,0-0.426-0.053-0.558-0.164c-0.131-0.107-0.197-0.25-0.197-0.423
					C259.624,466.962,259.896,466.769,260.439,466.769"/>
				<path id="XMLID_1081_" style="fill:#FF678E;" d="M265.745,470.878v1.355c0,0.327-0.083,0.574-0.234,0.737
					c-0.154,0.166-0.349,0.247-0.586,0.247c-0.239,0-0.43-0.082-0.579-0.25c-0.148-0.165-0.225-0.41-0.225-0.734v-4.514
					c0-0.729,0.262-1.093,0.788-1.093c0.271,0,0.464,0.084,0.583,0.255c0.119,0.171,0.184,0.421,0.198,0.755
					c0.192-0.334,0.39-0.584,0.593-0.755c0.208-0.171,0.477-0.255,0.819-0.255c0.343,0,0.67,0.084,0.991,0.255
					c0.322,0.171,0.482,0.398,0.482,0.678c0,0.197-0.069,0.362-0.204,0.488c-0.138,0.131-0.284,0.195-0.441,0.195
					c-0.062,0-0.207-0.039-0.433-0.112c-0.228-0.071-0.43-0.108-0.602-0.108c-0.237,0-0.433,0.064-0.582,0.186
					c-0.151,0.128-0.269,0.311-0.353,0.554c-0.081,0.247-0.137,0.541-0.17,0.878C265.759,469.979,265.745,470.392,265.745,470.878"
					/>
				<path id="XMLID_1078_" style="fill:#FF678E;" d="M273.196,470.32h-3.171c0.005,0.367,0.078,0.694,0.222,0.974
					c0.147,0.279,0.337,0.491,0.578,0.635c0.24,0.142,0.502,0.212,0.793,0.212c0.194,0,0.37-0.021,0.531-0.07
					c0.159-0.043,0.316-0.116,0.466-0.213c0.151-0.095,0.288-0.199,0.415-0.313c0.126-0.109,0.292-0.26,0.494-0.449
					c0.084-0.071,0.203-0.109,0.355-0.109c0.168,0,0.301,0.046,0.406,0.139c0.104,0.092,0.152,0.219,0.152,0.386
					c0,0.147-0.056,0.317-0.167,0.512c-0.117,0.198-0.289,0.385-0.522,0.566c-0.234,0.178-0.524,0.329-0.873,0.446
					c-0.35,0.119-0.754,0.179-1.207,0.179c-1.044,0-1.853-0.296-2.429-0.889c-0.577-0.595-0.87-1.401-0.87-2.418
					c0-0.479,0.073-0.924,0.217-1.334c0.14-0.411,0.349-0.76,0.624-1.055c0.272-0.294,0.606-0.518,1.008-0.674
					c0.399-0.156,0.842-0.234,1.33-0.234c0.632,0,1.176,0.134,1.629,0.404c0.452,0.264,0.796,0.61,1.018,1.034
					c0.226,0.426,0.339,0.855,0.339,1.296c0,0.405-0.118,0.669-0.351,0.791C273.947,470.26,273.619,470.32,273.196,470.32
					 M270.024,469.399h2.938c-0.039-0.553-0.186-0.969-0.446-1.242c-0.261-0.276-0.599-0.413-1.025-0.413
					c-0.403,0-0.736,0.137-0.995,0.418C270.237,468.442,270.079,468.853,270.024,469.399"/>
				<path id="XMLID_1075_" style="fill:#FF678E;" d="M279.938,470.32h-3.171c0.004,0.367,0.078,0.694,0.221,0.974
					c0.145,0.279,0.337,0.491,0.576,0.635c0.239,0.142,0.504,0.212,0.795,0.212c0.192,0,0.371-0.021,0.528-0.07
					c0.162-0.043,0.316-0.116,0.469-0.213c0.151-0.095,0.287-0.199,0.415-0.313c0.125-0.109,0.29-0.26,0.493-0.449
					c0.084-0.071,0.204-0.109,0.355-0.109c0.168,0,0.302,0.046,0.406,0.139c0.103,0.092,0.15,0.219,0.15,0.386
					c0,0.147-0.054,0.317-0.171,0.512c-0.111,0.198-0.285,0.385-0.519,0.566c-0.231,0.178-0.525,0.329-0.872,0.446
					c-0.349,0.119-0.755,0.179-1.209,0.179c-1.042,0-1.849-0.296-2.429-0.889c-0.577-0.595-0.868-1.401-0.868-2.418
					c0-0.479,0.073-0.924,0.217-1.334c0.142-0.411,0.349-0.76,0.623-1.055c0.272-0.294,0.608-0.518,1.009-0.674
					c0.398-0.156,0.844-0.234,1.331-0.234c0.63,0,1.174,0.134,1.633,0.404c0.45,0.264,0.791,0.61,1.013,1.034
					c0.225,0.426,0.341,0.855,0.341,1.296c0,0.405-0.12,0.669-0.351,0.791C280.688,470.26,280.36,470.32,279.938,470.32
					 M276.767,469.399h2.938c-0.04-0.553-0.19-0.969-0.447-1.242c-0.263-0.276-0.601-0.413-1.027-0.413
					c-0.403,0-0.735,0.137-0.995,0.418C276.978,468.442,276.819,468.853,276.767,469.399"/>
				<path id="XMLID_1072_" style="fill:#FF678E;" d="M283.487,467.538v0.194c0.304-0.375,0.621-0.651,0.953-0.828
					c0.324-0.178,0.699-0.267,1.114-0.267c0.497,0,0.959,0.13,1.379,0.386c0.419,0.259,0.749,0.635,0.993,1.129
					c0.244,0.497,0.366,1.081,0.366,1.758c0,0.497-0.07,0.957-0.21,1.376c-0.14,0.418-0.336,0.767-0.581,1.05
					c-0.246,0.281-0.535,0.501-0.868,0.654c-0.339,0.151-0.695,0.227-1.08,0.227c-0.461,0-0.853-0.093-1.166-0.28
					c-0.314-0.182-0.614-0.458-0.901-0.816v2.433c0,0.71-0.26,1.069-0.777,1.069c-0.306,0-0.505-0.092-0.607-0.275
					c-0.095-0.187-0.146-0.452-0.146-0.807v-6.996c0-0.309,0.066-0.537,0.2-0.692c0.134-0.15,0.32-0.228,0.553-0.228
					c0.231,0,0.416,0.078,0.56,0.234C283.417,467.018,283.487,467.241,283.487,467.538 M286.665,469.892
					c0-0.428-0.067-0.796-0.197-1.102c-0.131-0.308-0.312-0.542-0.541-0.705c-0.23-0.164-0.489-0.248-0.77-0.248
					c-0.446,0-0.824,0.178-1.13,0.527c-0.308,0.354-0.462,0.872-0.462,1.558c0,0.641,0.153,1.146,0.46,1.504
					c0.305,0.358,0.679,0.536,1.133,0.536c0.268,0,0.519-0.079,0.748-0.233c0.232-0.158,0.416-0.392,0.552-0.704
					C286.595,470.714,286.665,470.335,286.665,469.892"/>
				<path id="XMLID_1069_" style="fill:#FF678E;" d="M289.925,465.871c-0.226,0-0.418-0.071-0.577-0.209
					c-0.162-0.139-0.242-0.333-0.242-0.585c0-0.23,0.082-0.419,0.248-0.569c0.164-0.146,0.354-0.222,0.571-0.222
					c0.212,0,0.397,0.067,0.559,0.2c0.162,0.137,0.244,0.334,0.244,0.591c0,0.25-0.079,0.444-0.236,0.585
					C290.332,465.8,290.145,465.871,289.925,465.871 M290.727,467.546v4.689c0,0.322-0.077,0.568-0.231,0.732
					c-0.156,0.168-0.35,0.25-0.588,0.25c-0.238,0-0.428-0.084-0.58-0.254c-0.146-0.173-0.222-0.416-0.222-0.729v-4.642
					c0-0.319,0.076-0.559,0.222-0.721c0.152-0.165,0.342-0.245,0.58-0.245c0.238,0,0.432,0.079,0.588,0.245
					C290.65,467.033,290.727,467.259,290.727,467.546"/>
				<path id="XMLID_1068_" style="fill:#FF678E;" d="M295.952,472.477l-1.428-2.354l-0.88,0.83v1.291
					c0,0.312-0.083,0.551-0.248,0.718c-0.16,0.17-0.354,0.254-0.566,0.254c-0.249,0-0.447-0.082-0.588-0.25
					c-0.142-0.165-0.215-0.41-0.215-0.734v-6.915c0-0.358,0.072-0.632,0.207-0.821c0.139-0.191,0.341-0.283,0.596-0.283
					c0.25,0,0.446,0.086,0.593,0.257c0.146,0.169,0.221,0.421,0.221,0.751v3.933l1.823-1.914c0.227-0.235,0.396-0.4,0.517-0.486
					c0.118-0.087,0.262-0.13,0.431-0.13c0.204,0,0.371,0.065,0.51,0.193c0.132,0.129,0.2,0.291,0.2,0.483
					c0,0.237-0.221,0.556-0.659,0.951l-0.861,0.789l1.662,2.614c0.121,0.196,0.212,0.34,0.265,0.441
					c0.053,0.1,0.081,0.2,0.081,0.289c0,0.258-0.071,0.459-0.213,0.61c-0.14,0.148-0.327,0.221-0.554,0.221
					c-0.198,0-0.352-0.051-0.458-0.16C296.282,472.949,296.133,472.755,295.952,472.477"/>
				<path id="XMLID_1067_" style="fill:#FF678E;" d="M299.474,473.217c-0.245,0-0.455-0.079-0.634-0.238
					c-0.178-0.156-0.268-0.378-0.268-0.665c0-0.241,0.086-0.449,0.256-0.622c0.172-0.174,0.38-0.262,0.63-0.262
					c0.248,0,0.46,0.087,0.639,0.258c0.174,0.172,0.264,0.383,0.264,0.626c0,0.283-0.089,0.505-0.264,0.662
					C299.919,473.138,299.711,473.217,299.474,473.217"/>
				<path id="XMLID_1066_" style="fill:#FF678E;" d="M307.536,471.211c0,0.2-0.061,0.417-0.182,0.646
					c-0.12,0.231-0.305,0.449-0.553,0.656c-0.247,0.207-0.557,0.377-0.935,0.502c-0.375,0.126-0.8,0.192-1.269,0.192
					c-1.004,0-1.787-0.294-2.349-0.876c-0.56-0.585-0.841-1.368-0.841-2.35c0-0.667,0.128-1.254,0.387-1.765
					c0.255-0.509,0.628-0.904,1.113-1.184c0.487-0.28,1.072-0.419,1.746-0.419c0.421,0,0.805,0.061,1.158,0.184
					c0.35,0.122,0.645,0.282,0.89,0.474c0.242,0.197,0.429,0.402,0.556,0.62c0.129,0.22,0.192,0.426,0.192,0.617
					c0,0.192-0.071,0.357-0.214,0.492c-0.147,0.134-0.322,0.203-0.524,0.203c-0.137,0-0.249-0.035-0.338-0.104
					c-0.09-0.07-0.19-0.181-0.299-0.339c-0.198-0.299-0.404-0.526-0.623-0.674c-0.214-0.152-0.488-0.226-0.821-0.226
					c-0.476,0-0.865,0.186-1.159,0.561c-0.292,0.372-0.439,0.887-0.439,1.534c0,0.305,0.039,0.587,0.114,0.842
					c0.073,0.254,0.182,0.472,0.325,0.652c0.144,0.179,0.315,0.315,0.516,0.409c0.203,0.096,0.425,0.141,0.665,0.141
					c0.326,0,0.604-0.075,0.836-0.225c0.235-0.151,0.439-0.38,0.616-0.689c0.099-0.182,0.204-0.323,0.318-0.427
					c0.114-0.102,0.256-0.156,0.422-0.156c0.198,0,0.363,0.077,0.491,0.227C307.469,470.88,307.536,471.042,307.536,471.211"/>
				<path id="XMLID_1063_" style="fill:#FF678E;" d="M314.53,469.923c0,0.481-0.076,0.928-0.222,1.337
					c-0.155,0.408-0.37,0.758-0.656,1.049c-0.285,0.293-0.626,0.518-1.02,0.675c-0.4,0.154-0.844,0.234-1.337,0.234
					c-0.491,0-0.933-0.08-1.326-0.239c-0.389-0.156-0.732-0.384-1.016-0.676c-0.288-0.298-0.505-0.646-0.657-1.048
					c-0.143-0.402-0.219-0.846-0.219-1.332c0-0.491,0.078-0.941,0.224-1.349c0.151-0.409,0.368-0.757,0.649-1.046
					c0.282-0.289,0.621-0.511,1.019-0.669c0.402-0.156,0.844-0.234,1.326-0.234c0.49,0,0.936,0.078,1.337,0.239
					c0.398,0.157,0.739,0.384,1.027,0.674c0.286,0.297,0.502,0.643,0.65,1.045C314.455,468.991,314.53,469.434,314.53,469.923
					 M312.903,469.923c0-0.662-0.146-1.176-0.436-1.543c-0.289-0.372-0.681-0.555-1.171-0.555c-0.317,0-0.597,0.082-0.839,0.246
					c-0.242,0.164-0.425,0.406-0.556,0.728c-0.131,0.321-0.197,0.696-0.197,1.124c0,0.424,0.064,0.792,0.193,1.108
					c0.13,0.319,0.314,0.561,0.554,0.729c0.241,0.167,0.522,0.253,0.845,0.253c0.49,0,0.882-0.185,1.171-0.557
					C312.756,471.086,312.903,470.574,312.903,469.923"/>
				<path id="XMLID_1062_" style="fill:#FF678E;" d="M320.712,470.042v2.154c0,0.342-0.075,0.594-0.231,0.767
					c-0.156,0.17-0.357,0.255-0.611,0.255c-0.245,0-0.446-0.085-0.594-0.255c-0.154-0.173-0.233-0.425-0.233-0.767v-2.582
					c0-0.408-0.013-0.726-0.04-0.953c-0.029-0.221-0.105-0.41-0.226-0.552c-0.123-0.147-0.318-0.22-0.582-0.22
					c-0.532,0-0.879,0.181-1.048,0.55c-0.167,0.36-0.254,0.883-0.254,1.567v2.189c0,0.336-0.076,0.591-0.226,0.765
					c-0.156,0.171-0.355,0.258-0.603,0.258c-0.247,0-0.448-0.087-0.604-0.258c-0.157-0.173-0.235-0.428-0.235-0.765v-4.637
					c0-0.306,0.07-0.538,0.209-0.695c0.143-0.16,0.329-0.239,0.556-0.239c0.223,0,0.407,0.077,0.557,0.222
					c0.148,0.149,0.222,0.354,0.222,0.615v0.153c0.283-0.334,0.584-0.582,0.903-0.738c0.323-0.162,0.676-0.241,1.07-0.241
					c0.407,0,0.757,0.082,1.049,0.244c0.294,0.163,0.533,0.409,0.725,0.735c0.275-0.33,0.568-0.577,0.881-0.738
					c0.313-0.161,0.658-0.241,1.039-0.241c0.441,0,0.826,0.089,1.146,0.262c0.319,0.174,0.558,0.425,0.717,0.747
					c0.138,0.295,0.206,0.756,0.206,1.385v3.164c0,0.342-0.076,0.594-0.23,0.767c-0.154,0.17-0.359,0.255-0.612,0.255
					c-0.247,0-0.446-0.087-0.603-0.258c-0.156-0.173-0.235-0.428-0.235-0.765v-2.726c0-0.349-0.015-0.627-0.043-0.836
					c-0.029-0.211-0.11-0.388-0.239-0.529c-0.133-0.142-0.331-0.215-0.596-0.215c-0.214,0-0.416,0.066-0.609,0.192
					c-0.192,0.124-0.342,0.298-0.45,0.508C320.774,468.864,320.712,469.348,320.712,470.042"/>
			</g>
			<g id="XMLID_1047_">
				<path id="XMLID_1060_" style="fill:#FF678E;" d="M245.272,469.531c-0.001-0.003-0.001-0.006-0.001-0.011
					C245.271,469.525,245.271,469.527,245.272,469.531z"/>
				<path id="XMLID_1059_" style="fill:#FF678E;" d="M245.354,470.049c0.001,0,0.001,0,0.001,0
					c-0.031-0.148-0.055-0.294-0.074-0.439C245.3,469.756,245.324,469.903,245.354,470.049z"/>
				<path id="XMLID_1058_" style="fill:#FF678E;" d="M245.89,471.553c-0.004-0.006-0.007-0.013-0.011-0.021
					C245.883,471.539,245.886,471.547,245.89,471.553z"/>
				<path id="XMLID_1057_" style="fill:#FF678E;" d="M245.839,471.453c-0.014-0.027-0.027-0.056-0.041-0.084
					C245.811,471.398,245.825,471.425,245.839,471.453z"/>
				<path id="XMLID_1056_" style="fill:#FF678E;" d="M245.504,470.628c0.079,0.25,0.175,0.493,0.286,0.724
					c-0.113-0.236-0.206-0.479-0.284-0.724C245.506,470.628,245.505,470.628,245.504,470.628z"/>
				<path id="XMLID_1055_" style="fill:#FF678E;" d="M251.545,463.32c0.313,0,0.544,0.025,0.809,0.069l0.075-0.477
					c0,0-0.732-0.225-1.694-0.147l-0.076-0.259c0.299-0.063,0.524-0.329,0.524-0.646c0-0.364-0.296-0.659-0.661-0.659
					c-0.364,0-0.66,0.295-0.66,0.659c0,0.317,0.224,0.583,0.522,0.646l0.084,0.289c-1.021,0.14-1.834,0.539-1.834,0.539l0.144,0.441
					c0.618-0.206,1.154-0.331,1.64-0.383C250.895,463.342,251.253,463.32,251.545,463.32z"/>
				<path id="XMLID_1054_" style="fill:#FF678E;" d="M245.878,465.732l0.004-0.005c0.024-0.031,0.047-0.06,0.071-0.089l-0.196-0.141
					l-0.305-0.223c-0.017,0.024-0.497,0.465-0.876,1.28c-0.016-0.026-0.035-0.051-0.056-0.074c-0.114-0.124-0.272-0.187-0.474-0.184
					c-0.003,0-0.006,0-0.009,0c-0.125,0-0.21-0.041-0.267-0.092c0.056-0.071,0.089-0.16,0.089-0.258c0-0.23-0.187-0.418-0.418-0.418
					c-0.23,0-0.418,0.188-0.418,0.418c0,0.231,0.187,0.418,0.418,0.418c0.036,0,0.071-0.006,0.104-0.013
					c0.103,0.114,0.266,0.214,0.505,0.209c0.123-0.001,0.213,0.031,0.273,0.097c0.069,0.076,0.093,0.185,0.1,0.267
					c-0.001,0.001-0.001,0.003-0.002,0.003c-0.272,0.743-0.194,1.669-0.194,1.669l0.661,0.026c0.013-0.337,0.062-0.926,0.232-1.394
					C245.449,466.322,245.861,465.756,245.878,465.732z"/>
				<path id="XMLID_1053_" style="fill:#FF678E;" d="M257.295,463.873c-0.23,0-0.418,0.187-0.418,0.418
					c0,0.036,0.006,0.07,0.015,0.103c-0.115,0.104-0.214,0.267-0.211,0.507c0.002,0.123-0.03,0.212-0.096,0.273
					c-0.053,0.047-0.12,0.072-0.185,0.088c-0.492-0.689-1.097-1.11-1.097-1.11l-0.474,0.508c0.358,0.326,0.725,0.734,1.08,1.244
					c0.246,0.352,0.499,0.806,0.71,1.259l0.64-0.304c0,0-0.292-0.722-0.704-1.37c0.072-0.025,0.144-0.064,0.207-0.12
					c0.125-0.113,0.187-0.273,0.183-0.474c-0.001-0.13,0.042-0.218,0.093-0.276c0.071,0.054,0.16,0.089,0.258,0.089
					c0.232,0,0.419-0.187,0.419-0.418C257.714,464.059,257.527,463.873,257.295,463.873z"/>
				<path id="XMLID_1052_" style="fill:#FF678E;" d="M255.634,469.624c-0.881,0.429-2.33,0.996-4.238,1.262
					c-0.749,0.104-1.475,0.142-2.143,0.142c-0.869,0-1.637-0.065-2.227-0.139c-0.673-0.085-1.198-0.188-1.52-0.261
					c0.077,0.245,0.171,0.488,0.284,0.724c0.002,0.006,0.005,0.013,0.008,0.017c0.013,0.028,0.027,0.056,0.041,0.084
					c0.013,0.027,0.027,0.054,0.041,0.079c0.004,0.007,0.007,0.015,0.011,0.021c0.189,0.357,0.416,0.684,0.675,0.968
					c0.9,0.984,1.817,1.14,1.826,1.141l0.014,0.002l0.013,0.005c0.008,0.003,0.821,0.266,2.057,0.266
					c1.216,0,2.409-0.245,3.546-0.729c0.842-0.431,1.639-1.085,2.034-1.669c0.305-0.452,0.526-0.933,0.656-1.434
					c0.069-0.266,0.124-0.692,0.092-1.141C256.556,469.128,256.164,469.366,255.634,469.624z"/>
				<path id="XMLID_1048_" style="fill:#FF678E;" d="M246.161,465.94c-0.026,0.037-0.408,0.578-0.71,1.408
					c-0.226,0.622-0.216,1.527-0.216,1.538v0.002c0,0.212,0.012,0.423,0.035,0.632c0,0.005,0,0.008,0.001,0.011
					c0.002,0.027,0.007,0.052,0.009,0.079c0.019,0.145,0.043,0.291,0.074,0.439c0.438,0.111,3.049,0.72,5.968,0.314
					c1.829-0.254,3.218-0.795,4.062-1.204c0.701-0.34,1.151-0.648,1.325-0.774c-0.173-0.643-0.651-1.65-1.089-2.279
					c-1.253-1.791-2.604-2.25-3.298-2.364c-0.265-0.043-0.477-0.068-0.777-0.068c-0.28,0-0.626,0.023-1.089,0.071
					c-0.464,0.048-0.982,0.17-1.583,0.372c-0.842,0.282-1.605,0.724-2.204,1.28l-0.021,0.019
					C246.56,465.497,246.374,465.669,246.161,465.94z M253.829,465.524c0.601,0,1.09,0.488,1.09,1.089c0,0.601-0.489,1.09-1.09,1.09
					c-0.601,0-1.089-0.489-1.089-1.09C252.74,466.012,253.228,465.524,253.829,465.524z M248.678,465.48
					c0.973,0,1.76,0.789,1.76,1.761c0,0.972-0.787,1.759-1.76,1.759c-0.972,0-1.76-0.787-1.76-1.759
					C246.918,466.269,247.707,465.48,248.678,465.48z"/>
			</g>
		</g>
	</g>
</g>
</svg>
